<svg width="300" height="300" viewBox="0 0 300 300" fill="none" xmlns="http://www.w3.org/2000/svg">
<path d="M74.8955 238.517H55.0223V238.667H74.8955V238.517Z" fill="#E6E6E6"/>
<path d="M48.7332 238.517H37.2174V238.667H48.7332V238.517Z" fill="#E6E6E6"/>
<path d="M126.332 240.725H114.817V240.875H126.332V240.725Z" fill="#E6E6E6"/>
<path d="M186.37 244.075H160.454V244.225H186.37V244.075Z" fill="#E6E6E6"/>
<path d="M155.112 244.075H151.312V244.225H155.112V244.075Z" fill="#E6E6E6"/>
<path d="M272.006 240.725H215.8V240.875H272.006V240.725Z" fill="#E6E6E6"/>
<path d="M142.208 202.68H26.349C24.4608 202.68 22.9242 201.143 22.9242 199.255V36.396C22.9242 34.5078 24.4608 32.9712 26.349 32.9712H142.208C144.096 32.9712 145.633 34.5078 145.633 36.396V199.255C145.633 201.143 144.096 202.68 142.208 202.68ZM26.349 33.1218C24.543 33.1218 23.0742 34.5906 23.0742 36.3966V199.256C23.0742 201.062 24.543 202.531 26.349 202.531H142.208C144.014 202.531 145.483 201.062 145.483 199.256V36.396C145.483 34.5906 144.014 33.1212 142.208 33.1212L26.349 33.1218Z" fill="#E6E6E6"/>
<path d="M160.439 178.186H147.246V230.527H160.439V178.186Z" fill="#FBBC04"/>
<path d="M157.934 230.527H160.439V223.399H155.306L157.934 230.527Z" fill="#FAFAFA"/>
<path d="M102.626 178.186H89.433V230.527H102.626V178.186Z" fill="#FBBC04"/>
<path d="M160.44 178.186H100.439V226.153H160.44V178.186Z" fill="#FAFAFA"/>
<path d="M158.264 180.544V193.235H102.615V180.544H158.264ZM158.495 180.313H102.383V193.467H158.495V180.313Z" fill="#FBBC04"/>
<path d="M102.945 230.527H100.439V223.399H105.572L102.945 230.527Z" fill="#FAFAFA"/>
<path d="M129.112 186.889C129.112 187.622 129.706 188.216 130.439 188.216C131.172 188.216 131.767 187.622 131.767 186.889C131.767 186.157 131.173 185.562 130.439 185.562C129.707 185.563 129.112 186.157 129.112 186.889Z" fill="#E6E6E6"/>
<path d="M158.264 195.824V208.515H102.615V195.824H158.264ZM158.495 195.593H102.383V208.747H158.495V195.593Z" fill="#FBBC04"/>
<path d="M129.112 202.169C129.112 202.902 129.706 203.497 130.439 203.497C131.172 203.497 131.767 202.903 131.767 202.169C131.767 201.436 131.173 200.842 130.439 200.842C129.707 200.843 129.112 201.437 129.112 202.169Z" fill="#E6E6E6"/>
<path d="M158.264 211.105V223.795H102.615V211.105H158.264ZM158.495 210.873H102.383V224.027H158.495V210.873Z" fill="#FBBC04"/>
<path d="M129.112 217.45C129.112 218.183 129.706 218.777 130.439 218.777C131.172 218.777 131.767 218.183 131.767 217.45C131.767 216.717 131.173 216.123 130.439 216.123C129.707 216.123 129.112 216.717 129.112 217.45Z" fill="#E6E6E6"/>
<path d="M94.566 147.79H81.3726V230.527H94.566V147.79Z" fill="#1DBF73"/>
<path d="M92.0604 230.527H94.566V223.399H89.433L92.0604 230.527Z" fill="#FAFAFA"/>
<path d="M45.2561 147.79H32.0627V230.527H45.2561V147.79Z" fill="#3887FE"/>
<path d="M94.5659 147.79H43.0697V226.153H94.5659V147.79Z" fill="#FAFAFA"/>
<path d="M92.349 150.008V167.75H45.2868V150.008H92.349ZM92.622 149.735H45.0138V168.024H92.622V149.735Z" fill="#1DBF73"/>
<path d="M92.3489 169.907V216.968H69.9323V169.907H92.3489ZM92.6219 169.634H69.6587V217.243H92.6219V169.634Z" fill="#1DBF73"/>
<path d="M67.7034 169.907V216.968H45.2868V169.907H67.7034ZM67.977 169.634H45.0138V217.243H67.977V169.634Z" fill="#1DBF73"/>
<path d="M45.5753 230.527H43.0697V223.399H48.2027L45.5753 230.527Z" fill="#FAFAFA"/>
<path d="M67.491 158.879C67.491 159.613 68.085 160.207 68.8182 160.207C69.5508 160.207 70.1454 159.613 70.1454 158.879C70.1454 158.147 69.5514 157.552 68.8182 157.552C68.085 157.553 67.491 158.147 67.491 158.879Z" fill="#E6E6E6"/>
<path d="M72.2417 192.316C72.2417 193.048 72.8357 193.643 73.5689 193.643C74.3021 193.643 74.8961 193.049 74.8961 192.316C74.8961 191.583 74.3021 190.988 73.5689 190.988C72.8357 190.988 72.2417 191.582 72.2417 192.316Z" fill="#E6E6E6"/>
<path d="M62.7395 192.316C62.7395 193.048 63.3335 193.643 64.0667 193.643C64.7993 193.643 65.3939 193.049 65.3939 192.316C65.3939 191.583 64.7999 190.988 64.0667 190.988C63.3341 190.988 62.7395 191.582 62.7395 192.316Z" fill="#E6E6E6"/>
<path d="M61.245 124.721H55.6795C55.6795 124.721 56.6454 129.866 56.6454 132.894C56.6454 135.922 52.4118 147.79 58.4622 147.79C64.512 147.79 60.279 135.921 60.279 132.894C60.2784 129.866 61.245 124.721 61.245 124.721Z" fill="#FBBC04"/>
<path d="M40.0818 136.889V140.505C40.0818 144.511 43.3596 147.789 47.3664 147.789H50.9826C54.9888 147.789 58.2666 144.511 58.2666 140.505V136.889H40.0818Z" fill="#FFBE9D"/>
<path d="M254.764 164.418C251.62 166.984 247.28 171.683 243.304 178.295C240.656 182.698 239.06 187.311 238.359 193.406C238.374 186.506 238.396 179.093 238.42 172.097C239.218 170.297 241.042 166.148 242.351 162.869C246.717 151.931 248.343 149.241 252.27 139.806C257.507 127.222 262.874 112.289 261.338 113.483C258.206 115.914 246.206 138.385 244.909 141.602C240.447 152.666 239.204 160.73 238.432 168.513C238.456 161.942 238.482 155.908 238.507 151.253C238.588 136.068 238.846 131.167 238.972 129.656C239.458 128.888 240.031 127.993 240.365 127.51C243.184 123.434 244.271 119.962 246.927 113.883C250.691 105.269 253.932 89.9748 252.985 90.7464C249.039 93.9582 245.927 100.864 241.837 109.663C237.748 118.462 238.917 123.521 238.106 131.036C237.935 132.511 237.805 138.076 237.711 145.789C236.65 137.572 234.661 132.157 231.031 127.237C226.565 121.184 222.246 117.096 219.077 114.961C215.908 112.826 224.549 127.693 228.682 134.182C232.363 139.96 235.753 145.06 237.664 150.082C237.563 160.535 237.516 173.772 237.516 186.094C236.568 180.486 235.02 174.448 232.955 169.772C230.473 164.155 226.655 155.538 223.616 152.615C222.886 151.913 226.794 168.671 229.301 173.128C231.809 177.584 233.65 181.783 235.229 184.309C235.597 184.898 236.819 187.171 237.517 188.478C237.523 203.52 237.6 216.793 237.731 221.311H238.381C238.336 220.145 238.329 212.494 238.343 202.366C239.908 196.867 243.487 190.592 246.44 184.868C249.664 178.618 257.908 161.851 254.764 164.418Z" fill="#1DBF73"/>
<path d="M247.464 230.527H228.658L227.239 212.093H248.884L247.464 230.527Z" fill="#3887FE"/>
<path d="M250.285 214.241H225.837L225.137 208.021H250.985L250.285 214.241Z" fill="#FFBE9D"/>
<path d="M233.279 75.1374C237.907 75.1374 241.66 71.3852 241.66 66.7566C241.66 62.128 237.907 58.3758 233.279 58.3758C228.65 58.3758 224.898 62.128 224.898 66.7566C224.898 71.3852 228.65 75.1374 233.279 75.1374Z" fill="#E1E6EA"/>
<path d="M150 256.537C214.249 256.537 266.333 253.495 266.333 249.743C266.333 245.991 214.249 242.949 150 242.949C85.7509 242.949 33.6666 245.991 33.6666 249.743C33.6666 253.495 85.7509 256.537 150 256.537Z" fill="#F5F7F9"/>
<path d="M146.924 42.342H143.092V42.9588H146.924V42.342Z" fill="#1DBF73"/>
<path d="M196.562 66.7983L196.098 77.0936L196.713 77.1213L197.177 66.826L196.562 66.7983Z" fill="#1DBF73"/>
<path d="M195.368 45.1164H124.568L117.977 192.548H188.777L195.368 45.1164Z" fill="#1DBF73"/>
<path opacity="0.56" d="M193.254 47.1396H122.455L115.864 194.571H186.664L193.254 47.1396Z" fill="#FAFAFA"/>
<path opacity="0.07" d="M191.14 49.1628H120.341L113.75 196.594H184.55L191.14 49.1628Z" fill="#1DBF73"/>
<path d="M183.082 113.464H122.651L122.147 124.747H182.578L183.082 113.464Z" fill="white"/>
<path d="M155.889 105.234H123.019L122.794 110.282H155.663L155.889 105.234Z" fill="#1DBF73"/>
<path d="M181.721 143.909H121.29L120.785 155.193H181.216L181.721 143.909Z" fill="white"/>
<path opacity="0.47" d="M170.639 170.422H130.001L129.397 183.945H170.034L170.639 170.422Z" fill="#1DBF73"/>
<path d="M167.921 186.04H127.284C127.265 186.04 127.246 186.031 127.232 186.017C127.219 186.004 127.212 185.984 127.213 185.965L127.818 172.442C127.819 172.403 127.851 172.373 127.889 172.373H168.526C168.545 172.373 168.563 172.382 168.577 172.396C168.59 172.409 168.598 172.429 168.596 172.448L167.992 185.971C167.99 186.01 167.959 186.04 167.921 186.04ZM127.358 185.897H167.852L168.45 172.516H127.956L127.358 185.897Z" fill="white"/>
<path d="M148.787 135.68H121.658L121.432 140.729H148.561L148.787 135.68Z" fill="#1DBF73"/>
<path d="M169.864 77.0274C169.712 80.406 168.488 83.526 166.525 86.0604C163.56 89.9016 158.917 92.3988 153.805 92.3988C148.694 92.3988 144.28 89.9016 141.659 86.0604C139.922 83.526 138.977 80.4066 139.128 77.0274C139.508 68.5374 146.696 61.6566 155.18 61.6566C163.67 61.656 170.243 68.5374 169.864 77.0274Z" fill="white"/>
<path d="M171.309 64.8738C171.269 65.7714 170.944 66.6006 170.422 67.2738C169.634 68.2944 168.4 68.958 167.042 68.958C165.683 68.958 164.511 68.2944 163.814 67.2738C163.353 66.6006 163.102 65.7714 163.142 64.8738C163.243 62.6178 165.153 60.7896 167.407 60.7896C169.663 60.7896 171.41 62.6178 171.309 64.8738Z" fill="#1DBF73"/>
<path d="M129.159 119.105C129.115 120.104 128.269 120.913 127.27 120.913C126.272 120.913 125.498 120.104 125.543 119.105C125.587 118.107 126.433 117.298 127.432 117.298C128.431 117.297 129.204 118.107 129.159 119.105Z" fill="#263238"/>
<path d="M137.251 119.105C137.207 120.104 136.361 120.913 135.362 120.913C134.364 120.913 133.591 120.104 133.635 119.105C133.679 118.107 134.525 117.298 135.524 117.298C136.522 117.298 137.296 118.107 137.251 119.105Z" fill="#263238"/>
<path d="M145.344 119.105C145.3 120.104 144.454 120.913 143.455 120.913C142.457 120.913 141.683 120.104 141.728 119.105C141.772 118.107 142.618 117.298 143.617 117.298C144.615 117.297 145.388 118.107 145.344 119.105Z" fill="#263238"/>
<path d="M127.798 149.551C127.754 150.55 126.908 151.359 125.909 151.359C124.911 151.359 124.138 150.55 124.182 149.551C124.226 148.553 125.072 147.743 126.071 147.743C127.069 147.743 127.843 148.553 127.798 149.551Z" fill="#263238"/>
<path d="M135.89 149.551C135.846 150.55 135 151.359 134.002 151.359C133.003 151.359 132.23 150.55 132.274 149.551C132.319 148.553 133.165 147.743 134.163 147.743C135.162 147.743 135.935 148.553 135.89 149.551Z" fill="#263238"/>
<path d="M143.983 149.551C143.938 150.55 143.092 151.359 142.094 151.359C141.095 151.359 140.322 150.55 140.366 149.551C140.411 148.553 141.257 147.743 142.255 147.743C143.254 147.743 144.028 148.553 143.983 149.551Z" fill="#263238"/>
<path d="M152.075 149.551C152.031 150.55 151.185 151.359 150.187 151.359C149.188 151.359 148.415 150.55 148.459 149.551C148.504 148.553 149.35 147.743 150.348 147.743C151.346 147.743 152.12 148.553 152.075 149.551Z" fill="#263238"/>
<path d="M160.168 149.551C160.123 150.55 159.277 151.359 158.279 151.359C157.28 151.359 156.507 150.55 156.551 149.551C156.596 148.553 157.442 147.743 158.44 147.743C159.439 147.743 160.212 148.553 160.168 149.551Z" fill="#263238"/>
<path d="M160.942 71.8896C160.788 75.3228 157.88 78.1062 154.447 78.1062C151.013 78.1062 148.354 75.3228 148.508 71.8896C148.661 68.4558 151.569 65.673 155.003 65.673C158.436 65.673 161.095 68.4564 160.942 71.8896Z" fill="#1DBF73"/>
<path d="M166.525 86.0598C163.56 89.901 158.917 92.3982 153.805 92.3982C148.694 92.3982 144.28 89.901 141.659 86.0598C144.575 83.1558 149.192 81.2694 154.303 81.2694C159.42 81.2694 163.868 83.1558 166.525 86.0598Z" fill="#1DBF73"/>
<path opacity="0.1" d="M160.942 71.8896C160.788 75.3228 157.88 78.1062 154.447 78.1062C151.013 78.1062 148.354 75.3228 148.508 71.8896C148.661 68.4558 151.569 65.673 155.003 65.673C158.436 65.673 161.095 68.4564 160.942 71.8896Z" fill="white"/>
<path opacity="0.1" d="M166.525 86.0598C163.56 89.901 158.917 92.3982 153.805 92.3982C148.694 92.3982 144.28 89.901 141.659 86.0598C144.575 83.1558 149.192 81.2694 154.303 81.2694C159.42 81.2694 163.868 83.1558 166.525 86.0598Z" fill="white"/>
<path d="M78.2443 127.466C77.6761 128.712 77.0779 130.083 76.5529 131.42C76.0237 132.77 75.4957 134.122 75.0355 135.492C74.1415 138.233 73.3033 140.999 72.8905 143.773L72.7537 144.656C72.7429 144.762 72.7507 144.913 72.7975 145.103C72.8851 145.484 73.1227 145.994 73.4569 146.494C74.1325 147.506 75.0901 148.531 76.1227 149.483C77.1529 150.449 78.2719 151.374 79.4347 152.252C80.5861 153.137 81.8005 154.004 82.9885 154.817L81.8701 156.922C79.0153 155.674 76.3567 154.182 73.7815 152.309C72.5155 151.345 71.2651 150.306 70.1575 148.902C69.6115 148.194 69.0745 147.394 68.7229 146.338C68.5525 145.811 68.4337 145.216 68.4331 144.571C68.4373 144.423 68.4451 144.215 68.4553 144.115L68.4847 143.817L68.5447 143.221C68.8711 140.04 69.5755 136.983 70.5037 134.018C70.9717 132.537 71.4709 131.071 72.0409 129.633C72.6229 128.185 73.1971 126.796 73.9249 125.338L78.2443 127.466Z" fill="#FFBE9D"/>
<path d="M82.1485 154.459L86.3881 152.308L85.2931 156.968C85.2931 156.968 82.3819 157.781 81.0277 156.368L82.1485 154.459Z" fill="#FFBE9D"/>
<path d="M90.2707 153.073L89.1427 156.925L85.2925 156.968L86.3881 152.308L90.2707 153.073Z" fill="#FFBE9D"/>
<path d="M96.2593 105.001C96.2593 105.001 96.6271 106.353 97.2103 107.372C96.7093 107.84 96.2593 107.678 96.2593 107.678V105.001Z" fill="#DF5753"/>
<path d="M96.1339 105.036C96.382 105.036 96.5832 104.728 96.5832 104.348C96.5832 103.969 96.382 103.661 96.1339 103.661C95.8857 103.661 95.6844 103.969 95.6844 104.348C95.6844 104.728 95.8857 105.036 96.1339 105.036Z" fill="#263238"/>
<path d="M96.024 103.682L96.9361 103.419C96.9361 103.419 96.468 104.132 96.024 103.682Z" fill="#263238"/>
<path d="M84.5383 109.402C85.0861 112.195 85.6327 117.313 83.6779 119.176C83.6779 119.176 84.4417 122.009 89.6317 122.009C95.3389 122.009 92.3593 119.176 92.3593 119.176C89.2447 118.432 89.3251 116.122 89.8675 113.951L84.5383 109.402Z" fill="#FFBE9D"/>
<path d="M83.0239 103.045C83.3101 107.708 83.3317 109.688 85.6873 112.081C89.2297 115.681 94.8943 114.31 96.0073 109.655C97.0087 105.466 96.3721 98.544 91.8079 96.6882C87.3103 94.86 82.7371 98.382 83.0239 103.045Z" fill="#FFBE9D"/>
<path d="M83.4835 97.7688C81.1453 98.6214 78.0259 97.9872 79.2499 105.205C80.5459 112.847 78.5509 115.361 78.5509 115.361C78.5509 115.361 87.4261 117.251 96.4861 115.248C96.4861 115.248 93.7201 110.411 94.4965 106.881C95.4865 102.379 94.7017 100.715 94.7017 100.715C94.7017 100.715 86.7715 96.57 83.4835 97.7688Z" fill="#263238"/>
<path d="M93.3841 105.475C93.3745 106.399 93.6985 107.33 94.1185 107.976C94.7503 108.949 95.5003 108.553 95.6881 107.543C95.8573 106.634 95.7319 105.034 94.9225 104.413C94.1257 103.802 93.3955 104.419 93.3841 105.475Z" fill="#FFBE9D"/>
<path d="M81.4525 98.5854C80.7775 96.6984 83.9839 93.7962 90.7627 95.0034C97.5415 96.2106 97.8391 101.848 97.8391 101.848L96.4675 100.22L96.5293 101.935L89.5627 103.273L81.4525 98.5854Z" fill="#263238"/>
<path d="M82.0274 119.494C81.9338 118.917 82.3214 118.374 82.8974 118.279C85.0082 117.931 89.8058 117.225 92.2208 117.559C94.0148 117.808 94.4894 118.855 94.565 119.712C94.6214 120.347 94.0958 120.883 93.4586 120.854L83.0252 120.383C82.5242 120.36 82.1072 119.989 82.0274 119.494Z" fill="#3887FE"/>
<path opacity="0.6" d="M82.0274 119.494C81.9338 118.917 82.3214 118.374 82.8974 118.279C85.0082 117.931 89.8058 117.225 92.2208 117.559C94.0148 117.808 94.4894 118.855 94.565 119.712C94.6214 120.347 94.0958 120.883 93.4586 120.854L83.0252 120.383C82.5242 120.36 82.1072 119.989 82.0274 119.494Z" fill="#404145"/>
<path d="M88.0562 224.317L91.9232 227.002L98.3984 218.226L94.5314 215.542L88.0562 224.317Z" fill="#FFBE9D"/>
<path d="M79.0291 224.14L83.1199 226.469L88.8505 217.188L84.7603 214.859L79.0291 224.14Z" fill="#FFBE9D"/>
<path d="M98.3954 218.228L95.0588 222.752L91.1906 220.066L94.5272 215.542L98.3954 218.228Z" fill="#FFBE9D"/>
<path d="M84.758 214.861L88.85 217.191L85.8938 221.974L81.8018 219.644L84.758 214.861Z" fill="#FFBE9D"/>
<path d="M91.3189 148.793C91.3189 148.793 106.427 167.834 103.592 186.042C101.303 200.749 88.0447 220.664 88.0447 220.664L81.8107 217.565C81.8107 217.565 88.5841 204.331 93.0319 190.301C94.8973 184.417 94.1023 177.935 90.6151 172.843C82.9621 161.665 70.7011 168.316 78.9487 148.793L91.3189 148.793Z" fill="#3887FE"/>
<path opacity="0.6" d="M91.3189 148.793C91.3189 148.793 106.427 167.834 103.592 186.042C101.303 200.749 88.0447 220.664 88.0447 220.664L81.8107 217.565C81.8107 217.565 88.5841 204.331 93.0319 190.301C94.8973 184.417 94.1023 177.935 90.6151 172.843C82.9621 161.665 70.7011 168.316 78.9487 148.793L91.3189 148.793Z" fill="#404145"/>
<path opacity="0.4" d="M98.7295 161.028L96.5347 158.845C96.5347 159.018 100.789 185.278 101.985 192.658C102.706 190.395 103.261 188.163 103.594 186.042C104.981 177.127 102.065 168.008 98.7295 161.028Z" fill="#404145"/>
<path d="M98.0665 148.793C98.0665 148.793 116.258 172.721 116.77 187.07C117.199 199.093 96.9547 222.317 96.9547 222.317L91.0777 218.515C91.0777 218.515 102.915 202.004 105.895 188.508C104.759 175.149 80.3701 148.792 80.3701 148.792H98.0665V148.793Z" fill="#3887FE"/>
<path opacity="0.6" d="M98.0665 148.793C98.0665 148.793 116.258 172.721 116.77 187.07C117.199 199.093 96.9547 222.317 96.9547 222.317L91.0777 218.515C91.0777 218.515 102.915 202.004 105.895 188.508C104.759 175.149 80.3701 148.792 80.3701 148.792H98.0665V148.793Z" fill="#404145"/>
<path d="M75.5599 120.246C73.6117 120.706 71.7499 127.778 71.7499 127.778L79.3477 132.85C79.3477 132.85 81.8797 127.26 80.9959 124.811C80.0749 122.261 78.0199 119.666 75.5599 120.246Z" fill="#A7EE95"/>
<path opacity="0.2" d="M77.0467 124.796L76.5157 130.958L79.3441 132.851C79.3441 132.851 80.6695 129.922 81.0643 127.37L77.0467 124.796Z" fill="#404145"/>
<path d="M100.316 120.382C100.316 120.382 102.558 121.172 98.0665 148.793C90.4801 148.793 82.6399 148.793 78.9487 148.793C79.2697 141.012 79.2787 136.214 75.5599 120.246C75.5599 120.246 79.5655 119.375 83.6779 119.176C86.8951 119.021 89.5309 118.918 92.3593 119.177C96.0877 119.517 100.316 120.382 100.316 120.382Z" fill="#1DBF73" fill-opacity="0.32"/>
<path d="M102.257 124.768C102.691 125.965 103.149 127.26 103.626 128.503C104.084 129.765 104.559 131.024 105.049 132.278L106.52 136.047L106.892 136.989L107.079 137.46L107.173 137.695C107.189 137.737 107.186 137.734 107.18 137.729C107.154 137.718 107.132 137.599 106.76 137.355C106.577 137.242 106.271 137.132 105.976 137.126C105.679 137.116 105.444 137.188 105.309 137.247C105.038 137.376 105.034 137.432 105.04 137.423C105.058 137.414 105.113 137.36 105.175 137.287C105.437 136.972 105.754 136.429 106.031 135.889C106.315 135.338 106.583 134.75 106.85 134.154C107.381 132.958 107.864 131.71 108.356 130.46C108.842 129.207 109.3 127.935 109.753 126.659L111.119 122.83L113.431 123.413C112.973 126.152 112.382 128.834 111.677 131.527C111.332 132.875 110.934 134.213 110.479 135.563C110.252 136.239 109.998 136.913 109.706 137.601C109.403 138.294 109.103 138.977 108.566 139.771C108.425 139.972 108.266 140.185 108.043 140.419C107.808 140.649 107.536 140.927 106.95 141.191C106.658 141.316 106.253 141.427 105.785 141.409C105.319 141.395 104.846 141.23 104.519 141.027C103.854 140.602 103.624 140.198 103.427 139.894C103.336 139.742 103.258 139.585 103.204 139.471L103.09 139.238L102.862 138.773L102.409 137.841C101.816 136.592 101.235 135.337 100.685 134.068C100.14 132.796 99.6091 131.517 99.0943 130.228C98.6017 128.92 98.1145 127.652 97.6807 126.26L102.257 124.768Z" fill="#FFBE9D"/>
<path d="M100.316 120.382C102.614 120.929 105.196 127.719 105.196 127.719L98.3665 133.538C98.3665 133.538 93.9403 126.135 94.8361 123.691C95.7685 121.145 97.3141 119.667 100.316 120.382Z" fill="#A7EE95"/>
<path d="M112.186 120.713L114.583 118.709L116.25 121.306L115.022 123.475C115.022 123.475 113.066 125.266 111.334 124.355C110.775 123.087 111.122 121.603 112.186 120.713Z" fill="#FFBE9D"/>
<path d="M118.933 118.715L118.754 119.368L114.957 120.006L114.582 118.709L118.933 118.715Z" fill="#FFBE9D"/>
<path d="M97.4414 222.632L90.59 218.2L91.817 216.067L99.5168 220.8L97.4414 222.632Z" fill="#3887FE"/>
<path d="M85.7899 226.156C85.2451 226.156 84.5281 225.81 84.0937 225.569C84.0547 225.547 84.0325 225.505 84.0373 225.46C84.0415 225.416 84.0721 225.379 84.1141 225.364C84.2989 225.306 85.9243 224.808 86.3845 225.194C86.4571 225.256 86.5381 225.368 86.5123 225.556C86.4787 225.805 86.3647 225.981 86.1739 226.076C86.0635 226.131 85.9327 226.156 85.7899 226.156ZM84.4405 225.501C85.1857 225.88 85.7857 226.02 86.0743 225.877C86.1973 225.815 86.2681 225.701 86.2921 225.526C86.3047 225.432 86.2717 225.391 86.2411 225.365C85.9993 225.162 85.0981 225.32 84.4405 225.501Z" fill="#263238"/>
<path d="M84.1483 225.582C84.1183 225.582 84.0895 225.57 84.0685 225.548C84.0409 225.52 84.0307 225.479 84.0415 225.44C84.0571 225.385 84.4315 224.082 85.0477 223.785C85.2121 223.706 85.3789 223.702 85.5421 223.77C85.8013 223.879 85.8271 224.069 85.8181 224.171C85.7761 224.711 84.6763 225.456 84.1747 225.578C84.1663 225.581 84.1573 225.582 84.1483 225.582ZM85.3111 223.946C85.2559 223.946 85.2001 223.96 85.1437 223.987C84.7765 224.164 84.4681 224.867 84.3205 225.295C84.8485 225.073 85.5691 224.483 85.5949 224.155C85.5991 224.101 85.5871 224.032 85.4545 223.976C85.4071 223.956 85.3591 223.946 85.3111 223.946Z" fill="#263238"/>
<path d="M94.3609 228.748C93.6853 228.748 92.7433 227.88 92.2279 227.347C92.1949 227.312 92.1871 227.261 92.2081 227.219C92.2297 227.177 92.2837 227.153 92.3221 227.158C92.5597 227.189 94.6465 227.471 94.9411 228.06C94.9975 228.174 94.9927 228.295 94.9273 228.411C94.8169 228.605 94.6567 228.717 94.4521 228.743C94.4227 228.746 94.3921 228.748 94.3609 228.748ZM92.6227 227.427C93.3811 228.164 94.0435 228.572 94.4245 228.521C94.5577 228.504 94.6585 228.433 94.7335 228.301C94.7623 228.25 94.7647 228.206 94.7413 228.16C94.5811 227.839 93.4669 227.563 92.6227 227.427Z" fill="#263238"/>
<path d="M92.6887 227.408C92.5345 227.408 92.3965 227.399 92.2879 227.378C92.2495 227.371 92.2171 227.344 92.2033 227.308C92.1901 227.27 92.1967 227.228 92.2219 227.198C92.2561 227.156 93.0679 226.178 93.8347 226.111C94.0747 226.092 94.2781 226.156 94.4521 226.304C94.6879 226.507 94.6717 226.687 94.6165 226.802C94.4263 227.201 93.3895 227.408 92.6887 227.408ZM92.5339 227.183C93.2041 227.221 94.2757 226.998 94.4155 226.706C94.4275 226.681 94.4629 226.607 94.3075 226.474C94.1779 226.363 94.0279 226.317 93.8545 226.333C93.3511 226.377 92.7889 226.911 92.5339 227.183Z" fill="#263238"/>
<path d="M84.3127 224.951L79.2235 223.512C79.0381 223.46 78.8515 223.546 78.7747 223.719L77.0569 227.581C76.8787 227.982 77.1259 228.479 77.5555 228.592C79.3381 229.063 80.2225 229.201 82.4605 229.834C83.8375 230.223 85.8085 230.935 87.7099 231.472C89.5693 231.997 90.2437 230.158 89.5003 229.763C86.1661 227.996 85.9033 226.785 84.9913 225.443C84.8269 225.201 84.5839 225.028 84.3127 224.951Z" fill="#3887FE"/>
<path d="M92.3666 226.646L88.0226 223.63C87.8642 223.52 87.6602 223.541 87.5306 223.679L84.6494 226.773C84.3506 227.094 84.4232 227.644 84.7922 227.891C86.3246 228.916 87.1166 229.334 89.027 230.66C90.2024 231.476 92.5484 233.286 94.1714 234.413C95.759 235.515 96.995 233.995 96.4202 233.38C93.8426 230.625 93.2738 228.898 92.8484 227.332C92.771 227.05 92.5976 226.806 92.3666 226.646Z" fill="#3887FE"/>
<path d="M88.8451 221.062L81.0109 217.168L81.8221 215.048L90.1837 219.147L88.8451 221.062Z" fill="#3887FE"/>
<path d="M78.6624 147.671L77.9994 149.382C77.9322 149.515 78.0895 149.65 78.3109 149.65H98.1606C98.3328 149.65 98.4756 149.566 98.4864 149.458L98.6586 147.746C98.6706 147.628 98.5212 147.527 98.3328 147.527H78.9732C78.8316 147.527 78.7056 147.586 78.6624 147.671Z" fill="#3887FE"/>
<path opacity="0.4" d="M78.6624 147.671L77.9994 149.382C77.9322 149.515 78.0895 149.65 78.3109 149.65H98.1606C98.3328 149.65 98.4756 149.566 98.4864 149.458L98.6586 147.746C98.6706 147.628 98.5212 147.527 98.3328 147.527H78.9732C78.8316 147.527 78.7056 147.586 78.6624 147.671Z" fill="white"/>
<path d="M81.7843 149.836H81.2659C81.1627 149.836 81.0841 149.782 81.0913 149.717L81.3343 147.494C81.3415 147.43 81.4315 147.376 81.5353 147.376H82.0537C82.1569 147.376 82.2355 147.43 82.2283 147.494L81.9853 149.717C81.9781 149.783 81.8875 149.836 81.7843 149.836Z" fill="#3887FE"/>
<path d="M94.0285 149.836H93.5101C93.4069 149.836 93.3283 149.782 93.3355 149.717L93.5785 147.494C93.5857 147.43 93.6757 147.376 93.7795 147.376H94.2979C94.4011 147.376 94.4797 147.43 94.4725 147.494L94.2295 149.717C94.2223 149.783 94.1317 149.836 94.0285 149.836Z" fill="#3887FE"/>
<path d="M81.3277 251.452C90.2054 251.452 97.4023 250.93 97.4023 250.286C97.4023 249.642 90.2054 249.119 81.3277 249.119C72.4499 249.119 65.2531 249.642 65.2531 250.286C65.2531 250.93 72.4499 251.452 81.3277 251.452Z" fill="#F5F5F5"/>
<path d="M91.1238 248.64C88.2799 247.814 85.1497 246.751 83.2129 245.62C83.1589 245.588 83.1019 245.566 83.0473 245.537V232.679H88.7676C89.7139 232.679 90.4806 231.913 90.4806 230.966C90.4806 230.021 89.7139 229.254 88.7676 229.254H83.0473V170.56H79.6219V229.254H73.9014C72.9558 229.254 72.1891 230.021 72.1891 230.966C72.1891 231.913 72.9558 232.679 73.9014 232.679H79.6219V245.536C79.5673 245.565 79.5103 245.587 79.4563 245.619C77.5195 246.75 74.3892 247.814 71.5452 248.639C70.6122 248.91 70.8091 250.285 71.7805 250.285H81.3343H90.888C91.86 250.285 92.0569 248.911 91.1238 248.64Z" fill="#E0E0E0"/>
<path d="M92.004 177.148H70.665C68.9556 177.148 67.557 175.75 67.557 174.04V167.696C67.557 165.987 68.9556 164.588 70.665 164.588H92.004C93.7134 164.588 95.112 165.987 95.112 167.696V174.04C95.112 175.75 93.7134 177.148 92.004 177.148Z" fill="#3887FE"/>
<path d="M70.4688 177.148V178.24C70.4688 179.14 71.4485 179.877 72.6455 179.877H90.0234C91.2204 179.877 92.2002 179.141 92.2002 178.24V177.148H70.4688Z" fill="#3887FE"/>
<path opacity="0.3" d="M70.4688 177.148V178.24C70.4688 179.14 71.4485 179.877 72.6455 179.877H90.0234C91.2204 179.877 92.2002 179.141 92.2002 178.24V177.148H70.4688Z" fill="white"/>
</svg>
