<svg width="44" height="44" viewBox="0 0 44 44" fill="none" xmlns="http://www.w3.org/2000/svg">
<rect y="0.000518799" width="44" height="44" rx="8" fill="#1DBF73" fill-opacity="0.06"/>
<path d="M12 17.0005L20.1649 22.716C20.8261 23.1788 21.1567 23.4102 21.5163 23.4998C21.8339 23.579 22.1661 23.579 22.4837 23.4998C22.8433 23.4102 23.1739 23.1788 23.8351 22.716L32 17.0005M16.8 30.0005H27.2C28.8802 30.0005 29.7202 30.0005 30.362 29.6735C30.9265 29.3859 31.3854 28.927 31.673 28.3625C32 27.7208 32 26.8807 32 25.2005V18.8005C32 17.1204 32 16.2803 31.673 15.6385C31.3854 15.0741 30.9265 14.6151 30.362 14.3275C29.7202 14.0005 28.8802 14.0005 27.2 14.0005H16.8C15.1198 14.0005 14.2798 14.0005 13.638 14.3275C13.0735 14.6151 12.6146 15.0741 12.327 15.6385C12 16.2803 12 17.1204 12 18.8005V25.2005C12 26.8807 12 27.7208 12.327 28.3625C12.6146 28.927 13.0735 29.3859 13.638 29.6735C14.2798 30.0005 15.1198 30.0005 16.8 30.0005Z" stroke="#1DBF73" stroke-width="1.5" stroke-linecap="round" stroke-linejoin="round"/>
</svg>
