<svg width="65" height="64" viewBox="0 0 65 64" fill="none" xmlns="http://www.w3.org/2000/svg">
<path d="M32.5 4.11888L47.1157 8.57713L57.5139 19.6784L61.2714 33.7196L58.1675 34.8245L47.1995 26.4603L44.0654 39.843L42.3059 40.4693H40.3937L32.5 28.6709L24.6063 40.4693H22.6941L20.9346 39.843L17.8005 26.4603L6.8325 34.8245L3.7285 33.7198L7.486 19.6785L17.8843 8.57726L32.5 4.11888ZM32.5 6.47126L23.5575 9.19901L26.6213 9.66626L26.6409 9.63551L26.6583 9.67188L32.5 10.5628L38.3418 9.67188L38.3592 9.63551L38.3786 9.66626L41.4424 9.19901L32.5 6.47126ZM46.084 10.7671L39.7 11.7408L46.0779 21.7549L48.3784 13.2168L46.084 10.7671ZM18.916 10.7671L16.6216 13.2168L18.9221 21.7549L25.3 11.7408L18.916 10.7671ZM37.1693 12.1268L32.5 12.8388L27.8307 12.1266L32.5 21.9021L37.1693 12.1268ZM38.6406 14.2661L33.3307 25.3828L44.6235 23.6604L38.6406 14.2661ZM26.3594 14.2661L20.3765 23.6604L31.6693 25.3829L26.3594 14.2661ZM50.188 15.1486L48.189 22.5676L54.5806 19.8381L50.188 15.1486ZM14.812 15.1486L10.4195 19.8381L16.811 22.5679L14.812 15.1486ZM55.7485 21.7859L48.7175 24.7884L58.5612 32.2951L55.7485 21.7859ZM9.2515 21.7859L6.43875 32.2951L16.2825 24.7884L9.2515 21.7859ZM45.0254 25.875L34.419 27.4926L41.9949 38.8161L45.0254 25.875ZM19.9746 25.875L23.0051 38.8163L30.581 27.4926L19.9746 25.875ZM61.375 36.033V40.0505L42.3059 46.875H22.6941L3.625 40.0505V36.033L22.3059 42.7193H42.6941L61.375 36.033ZM41.5241 49.125L43.2029 60.875H21.7971L23.4756 49.125H41.5241Z" fill="#1DBF73"/>
</svg>
