<svg width="261" height="261" viewBox="0 0 261 261" fill="none" xmlns="http://www.w3.org/2000/svg">
<path d="M222.16 72.9147C222.16 72.9147 218.391 70.0167 212.893 79.1344C207.395 88.2521 205.179 93.5784 205.179 93.5784C205.179 93.5784 203.763 95.4702 202.493 94.0771C201.224 92.684 199.621 88.875 197.26 89.3716C194.81 89.887 193.828 92.5093 194.005 96.479C194.182 100.449 194.25 109.16 194.253 109.948C194.256 110.721 193.735 111.823 192.718 111.012C191.701 110.202 186.04 102.913 182.742 105.807C179.444 108.7 181.754 119.678 181.983 120.883C182.212 122.087 181.945 122.576 181.363 122.828C180.78 123.081 179.108 120.452 177.413 118.445C175.718 116.438 173.4 114.408 171.637 116.236C169.874 118.065 168.779 126.1 175.525 139.76L179.065 145.884L186.17 145.997C201.389 145.311 207.897 140.472 208.648 138.045C209.398 135.618 206.502 134.569 203.925 134.053C201.349 133.537 198.24 133.342 198.179 132.71C198.119 132.078 198.418 131.608 199.584 131.227C200.75 130.846 211.478 127.569 212.421 123.284C213.363 119 204.247 117.56 203.046 117.061C201.845 116.561 202.559 115.573 203.238 115.202C203.929 114.825 211.591 110.679 215.152 108.917C218.714 107.156 220.537 105.03 219.805 102.636C219.1 100.328 214.991 100.763 213.158 100.324C211.325 99.885 212.298 97.7317 212.298 97.7317C212.298 97.7317 215.893 93.2191 221.224 84.0032C226.555 74.7872 222.078 72.859 222.078 72.859" fill="#1DBF73"/>
<path d="M217.222 81.0719C217.222 81.0719 217.191 81.1411 217.121 81.2706C217.045 81.4068 216.939 81.5971 216.802 81.8426C216.513 82.3511 216.095 83.0874 215.558 84.0318C214.476 85.9318 212.89 88.6696 210.918 92.0455C206.976 98.7987 201.453 108.081 195.32 118.314C189.185 128.549 183.64 137.82 179.665 144.552C177.684 147.915 176.08 150.639 174.965 152.53C174.413 153.465 173.983 154.194 173.686 154.698C173.541 154.938 173.429 155.125 173.348 155.259C173.272 155.385 173.227 155.446 173.227 155.446C173.227 155.446 173.258 155.377 173.329 155.247C173.405 155.111 173.511 154.921 173.647 154.675C173.937 154.167 174.355 153.431 174.891 152.487C175.973 150.587 177.559 147.849 179.531 144.473C183.473 137.72 188.997 128.437 195.132 118.2C201.265 107.968 206.809 98.6989 210.785 91.9664C212.766 88.6041 214.37 85.8804 215.485 83.9886C216.037 83.0531 216.467 82.3241 216.765 81.8202C216.909 81.5794 217.022 81.3928 217.102 81.2591C217.178 81.1333 217.222 81.0719 217.222 81.0719Z" fill="white"/>
<path d="M199.287 94.7906C199.302 94.7874 199.352 94.9627 199.43 95.282C199.51 95.6012 199.612 96.0656 199.733 96.6407C199.972 97.792 200.262 99.39 200.55 101.159C200.827 102.905 201.078 104.483 201.27 105.691C201.36 106.235 201.436 106.693 201.497 107.062C201.552 107.385 201.575 107.566 201.56 107.57C201.546 107.573 201.494 107.398 201.413 107.079C201.334 106.76 201.231 106.295 201.117 105.718C200.889 104.564 200.62 102.963 200.333 101.194C200.043 99.4518 199.78 97.8752 199.58 96.6693C199.488 96.1259 199.409 95.6673 199.346 95.2986C199.294 94.9746 199.272 94.7937 199.287 94.7906Z" fill="white"/>
<path d="M202.2 107.742C202.188 107.682 205.456 106.94 209.499 106.084C213.544 105.227 216.833 104.582 216.845 104.641C216.857 104.7 213.59 105.443 209.545 106.299C205.501 107.155 202.213 107.801 202.2 107.742Z" fill="white"/>
<path d="M192.072 123.033C192.073 123.018 192.259 123.023 192.594 123.046C192.974 123.075 193.448 123.11 194.01 123.152C195.205 123.24 196.857 123.354 198.683 123.413C200.51 123.477 202.165 123.477 203.363 123.467C203.927 123.463 204.402 123.46 204.783 123.457C205.118 123.456 205.304 123.463 205.305 123.478C205.305 123.493 205.121 123.515 204.786 123.542C204.451 123.568 203.967 123.599 203.367 123.622C202.168 123.671 200.508 123.696 198.676 123.633C196.844 123.574 195.19 123.434 193.996 123.307C193.4 123.241 192.918 123.182 192.586 123.131C192.253 123.082 192.07 123.048 192.072 123.033Z" fill="white"/>
<path d="M186.858 111.899C186.872 111.892 186.96 112.041 187.106 112.314C187.27 112.631 187.472 113.02 187.71 113.479C188.21 114.468 188.888 115.841 189.624 117.362C190.361 118.884 191.017 120.268 191.481 121.274C191.694 121.745 191.874 122.145 192.021 122.47C192.145 122.755 192.206 122.915 192.193 122.922C192.179 122.929 192.091 122.781 191.945 122.508C191.781 122.19 191.579 121.801 191.341 121.342C190.841 120.353 190.163 118.98 189.426 117.458C188.69 115.936 188.034 114.553 187.569 113.547C187.357 113.075 187.176 112.676 187.029 112.35C186.906 112.066 186.844 111.905 186.858 111.899Z" fill="white"/>
<path d="M176.202 124.262C176.215 124.255 176.326 124.446 176.514 124.796C176.716 125.184 176.978 125.685 177.292 126.287C177.94 127.551 178.823 129.303 179.785 131.244C180.748 133.186 181.609 134.95 182.222 136.231C182.51 136.845 182.751 137.357 182.937 137.753C183.102 138.115 183.186 138.318 183.173 138.325C183.159 138.332 183.049 138.141 182.861 137.791C182.658 137.403 182.396 136.902 182.082 136.3C181.434 135.036 180.551 133.284 179.588 131.342C178.626 129.401 177.766 127.637 177.153 126.356C176.864 125.742 176.623 125.23 176.437 124.834C176.273 124.472 176.188 124.269 176.202 124.262Z" fill="white"/>
<path d="M183.101 137.942C183.102 137.927 183.338 137.927 183.763 137.942C184.227 137.96 184.833 137.983 185.563 138.011C187.082 138.069 189.181 138.139 191.501 138.152C193.821 138.168 195.921 138.128 197.441 138.088C198.171 138.069 198.776 138.054 199.241 138.042C199.666 138.033 199.902 138.035 199.903 138.05C199.904 138.065 199.669 138.092 199.246 138.127C198.821 138.163 198.207 138.204 197.446 138.243C195.926 138.323 193.823 138.388 191.499 138.372C189.175 138.36 187.073 138.264 185.554 138.167C184.795 138.116 184.181 138.07 183.757 138.028C183.334 137.986 183.1 137.957 183.101 137.942Z" fill="white"/>
<path d="M130.463 22.8574C131.132 19.6807 130.731 16.0646 130.763 12.8271C130.796 9.58804 131.213 5.98184 130.635 2.78852C130.559 2.36576 129.858 2.36628 129.781 2.78852C129.198 5.98704 129.544 9.57764 129.51 12.8271C129.477 16.0553 129.005 19.6849 129.668 22.8574C129.751 23.2505 130.38 23.25 130.463 22.8574Z" fill="#1DBF73" fill-opacity="0.6"/>
<path d="M101.868 48.054H159.133C159.133 48.054 153.845 22.7477 130.066 22.7477C108.915 22.7477 101.868 48.054 101.868 48.054Z" fill="#1DBF73" fill-opacity="0.6"/>
<path d="M249.288 223.251C249.288 223.326 196.591 223.386 131.6 223.386C66.5872 223.386 13.9014 223.325 13.9014 223.251C13.9014 223.176 66.5872 223.116 131.6 223.116C196.591 223.115 249.288 223.176 249.288 223.251Z" fill="#263238"/>
<path d="M173.28 223.08H87.7201C84.4035 223.08 81.7146 220.391 81.7146 217.075V78.4823C81.7146 75.1652 84.4035 72.4768 87.7201 72.4768H173.28C176.597 72.4768 179.286 75.1658 179.286 78.4823V217.075C179.286 220.392 176.597 223.08 173.28 223.08Z" fill="#404145"/>
<path d="M133.49 216.078C133.49 218.302 131.814 220.105 129.746 220.105C127.678 220.105 126.002 218.302 126.002 216.078C126.002 213.854 127.678 212.051 129.746 212.051C131.813 212.051 133.49 213.854 133.49 216.078Z" fill="white"/>
<path d="M144.562 78.4782H116.439C116.09 78.4782 115.807 78.1953 115.807 77.8464V77.4465C115.807 77.0976 116.09 76.8147 116.439 76.8147H144.562C144.911 76.8147 145.194 77.0976 145.194 77.4465V77.8464C145.194 78.1948 144.911 78.4782 144.562 78.4782Z" fill="white"/>
<path d="M176.459 81.1192H85.0415V208.181H176.459V81.1192Z" fill="white"/>
<path d="M152.726 195.069C152.726 195.069 152.841 195.054 153.063 195.038C153.286 195.035 153.613 194.985 154.04 194.91C154.46 194.806 154.983 194.671 155.549 194.385C156.118 194.112 156.743 193.715 157.323 193.132C157.904 192.556 158.451 191.801 158.808 190.869C159.174 189.941 159.334 188.848 159.232 187.686C159.122 186.535 158.698 185.315 157.882 184.28C157.082 183.239 155.895 182.391 154.489 182.002C154.139 181.898 153.774 181.843 153.405 181.792C153.033 181.77 152.658 181.751 152.268 181.758C151.494 181.76 150.704 181.761 149.897 181.763C148.283 181.765 146.604 181.768 144.867 181.77C141.39 181.775 137.675 181.779 133.767 181.783C125.949 181.786 117.355 181.79 108.334 181.793C107.229 181.805 106.133 182.081 105.18 182.614C104.236 183.157 103.41 183.91 102.849 184.831C102.277 185.742 101.931 186.787 101.876 187.847C101.802 188.911 101.951 189.972 102.347 190.939C102.749 191.902 103.386 192.749 104.162 193.415C104.944 194.076 105.88 194.531 106.854 194.763C107.826 195.015 108.844 194.922 109.847 194.94C110.848 194.942 111.838 194.942 112.815 194.943C120.631 194.954 127.671 194.964 133.587 194.972C139.493 194.99 144.275 195.005 147.591 195.015C149.237 195.026 150.518 195.035 151.398 195.041C151.827 195.047 152.156 195.051 152.388 195.054C152.612 195.06 152.726 195.069 152.726 195.069C152.726 195.069 152.612 195.078 152.389 195.083C152.156 195.086 151.827 195.091 151.399 195.096C150.518 195.102 149.238 195.111 147.591 195.122C144.276 195.132 139.493 195.147 133.587 195.165C127.672 195.173 120.632 195.183 112.815 195.194C111.838 195.195 110.849 195.196 109.848 195.197C109.347 195.197 108.844 195.197 108.338 195.198C108.081 195.183 107.821 195.18 107.563 195.152C107.309 195.105 107.046 195.091 106.795 195.016C105.782 194.776 104.807 194.303 103.993 193.617C103.184 192.925 102.521 192.044 102.102 191.042C101.687 190.038 101.532 188.923 101.608 187.831C101.665 186.727 102.025 185.638 102.621 184.689C103.204 183.729 104.064 182.944 105.047 182.378C106.04 181.823 107.183 181.534 108.333 181.523C117.354 181.527 125.948 181.53 133.766 181.533C137.674 181.537 141.389 181.542 144.866 181.546C146.603 181.548 148.282 181.551 149.896 181.554C150.703 181.555 151.493 181.556 152.267 181.558C152.652 181.551 153.041 181.572 153.424 181.597C153.805 181.65 154.179 181.709 154.54 181.817C155.987 182.224 157.201 183.102 158.017 184.174C158.849 185.24 159.277 186.494 159.381 187.672C159.479 188.853 159.307 189.974 158.927 190.916C158.556 191.864 157.992 192.628 157.396 193.207C156.802 193.793 156.162 194.189 155.583 194.457C155.007 194.74 154.476 194.868 154.051 194.964C153.618 195.031 153.288 195.072 153.064 195.066C152.841 195.073 152.726 195.069 152.726 195.069Z" fill="white"/>
<path d="M119.026 187.483L118.703 187.886C118.464 187.628 118.122 187.469 117.79 187.469C117.134 187.469 116.619 187.975 116.619 188.62C116.619 189.266 117.134 189.777 117.79 189.777C118.117 189.777 118.454 189.627 118.703 189.388L119.03 189.753C118.698 190.081 118.225 190.292 117.762 190.292C116.802 190.292 116.058 189.566 116.058 188.625C116.058 187.694 116.812 186.977 117.781 186.977C118.244 186.978 118.708 187.17 119.026 187.483Z" fill="white"/>
<path d="M122.723 188.63C122.723 189.566 121.965 190.292 120.987 190.292C120.008 190.292 119.249 189.566 119.249 188.63C119.249 187.689 120.008 186.977 120.987 186.977C121.965 186.978 122.723 187.694 122.723 188.63ZM119.811 188.63C119.811 189.281 120.35 189.796 120.991 189.796C121.632 189.796 122.156 189.281 122.156 188.63C122.156 187.979 121.632 187.473 120.991 187.473C120.345 187.474 119.811 187.979 119.811 188.63Z" fill="white"/>
<path d="M125.61 190.269L123.864 187.918V190.269H123.312V186.992H123.854L125.61 189.346V186.992H126.153V190.269H125.61Z" fill="white"/>
<path d="M127.571 187.488V188.433H129.06V188.925H127.571V190.268H127.018V186.991H129.219L129.214 187.487H127.571V187.488Z" fill="white"/>
<path d="M129.709 190.269V186.992H130.262V190.269H129.709Z" fill="white"/>
<path d="M132.602 189.277C132.555 189.281 132.504 189.281 132.452 189.281H131.675V190.269H131.123V186.992H132.452C133.29 186.992 133.772 187.399 133.772 188.11C133.772 188.635 133.529 189.005 133.093 189.173L133.829 190.268H133.201L132.602 189.277ZM132.452 188.785C132.958 188.785 133.248 188.569 133.248 188.124C133.248 187.694 132.958 187.487 132.452 187.487H131.675V188.784H132.452V188.785Z" fill="white"/>
<path d="M137.46 190.269L137.455 187.821L136.421 189.927H136.06L135.026 187.821V190.269H134.506V186.992H135.162L136.243 189.168L137.32 186.992H137.97V190.269H137.46Z" fill="white"/>
<path d="M139.387 187.488V188.372H140.989V188.869H139.387V189.772H141.232V190.268H138.835V186.991H141.176V187.487H139.387V187.488Z" fill="white"/>
<path d="M143.249 186.992C144.232 186.992 144.944 187.68 144.944 188.63C144.944 189.576 144.228 190.268 143.235 190.268H141.905V186.991H143.249V186.992ZM142.458 189.773H143.264C143.9 189.773 144.387 189.3 144.387 188.635C144.387 187.965 143.886 187.488 143.24 187.488H142.458V189.773Z" fill="white"/>
<path d="M95.4266 125.417L164.67 124.914L166.6 171.991L94.9009 171.326L95.4266 125.417Z" fill="#1DBF73" fill-opacity="0.6"/>
<path d="M95.4265 125.417L130.58 96.972L164.67 124.914" fill="#1DBF73" fill-opacity="0.6"/>
<g opacity="0.3">
<path d="M95.4265 125.417L130.58 96.972L164.67 124.914" fill="#404145"/>
</g>
<path d="M94.9009 171.326C94.8146 171.245 100.358 165.193 107.281 157.809C114.206 150.423 119.888 144.504 119.975 144.585C120.061 144.666 114.519 150.717 107.594 158.103C100.671 165.486 94.9877 171.407 94.9009 171.326Z" fill="#263238"/>
<path d="M166.6 171.991C166.511 172.069 161.113 166.139 154.543 158.747C147.972 151.352 142.718 145.296 142.807 145.217C142.895 145.139 148.293 151.068 154.864 158.462C161.433 165.855 166.689 171.912 166.6 171.991Z" fill="#263238"/>
<g opacity="0.5">
<path d="M164.67 124.914L129.899 152.69L95.4265 125.417" fill="#404145"/>
</g>
<path d="M98.9136 127.989L98.8127 107.847L159.458 106.363L160.12 128.401L129.896 152.327L98.9136 127.989Z" fill="#EBEBEB"/>
<path d="M130.742 145.091C130.169 145.091 129.592 145.058 129.014 144.992C125.009 144.539 121.421 142.553 118.911 139.4C116.401 136.249 115.268 132.307 115.722 128.303C116.658 120.037 124.146 114.072 132.412 115.011C136.416 115.464 140.004 117.45 142.514 120.602C145.025 123.755 146.157 127.696 145.704 131.7C145.25 135.704 143.264 139.292 140.112 141.803C137.414 143.951 134.14 145.091 130.742 145.091ZM130.702 115.434C123.398 115.434 117.08 120.935 116.239 128.362C115.801 132.228 116.894 136.033 119.318 139.077C121.743 142.12 125.206 144.038 129.073 144.476C132.938 144.916 136.744 143.82 139.788 141.397C142.831 138.972 144.749 135.509 145.187 131.642C145.625 127.776 144.532 123.97 142.107 120.927C139.684 117.883 136.22 115.966 132.353 115.528C131.799 115.465 131.247 115.434 130.702 115.434Z" fill="#1DBF73"/>
<path d="M120.458 132.097L122.979 129.007L128.878 133.268L138.462 121.971L141.352 124.512L129.025 138.719L120.458 132.097Z" fill="#1DBF73"/>
<path d="M195.983 152.516C196.033 152.904 196.565 153.086 196.902 152.888C197.239 152.69 197.367 152.248 197.31 151.862C197.254 151.475 197.048 151.128 196.847 150.793C197.453 151.136 198.337 150.764 198.518 150.092C198.699 149.419 198.119 148.655 197.423 148.647C197.91 148.547 198.409 148.406 198.785 148.08C199.16 147.753 199.376 147.196 199.171 146.742C198.967 146.289 198.259 146.114 197.949 146.503C198.206 146.335 198.471 146.16 198.641 145.904C198.81 145.649 198.861 145.288 198.678 145.041C198.467 144.755 198.035 144.733 197.703 144.861C197.372 144.989 197.098 145.23 196.786 145.401C196.044 145.806 195.081 145.77 194.371 145.309L192.43 146.914L195.983 152.516Z" fill="#404145"/>
<path d="M185.615 143.715C184.536 144.049 183.704 145.07 183.595 146.194C183.555 146.605 183.615 147.052 183.884 147.366C184.206 147.743 184.765 147.846 185.25 147.739C185.735 147.632 186.159 147.35 186.559 147.056C187.121 146.642 187.701 146.123 187.782 145.429C187.861 144.749 187.392 144.075 186.763 143.804C186.133 143.533 185.39 143.62 184.772 143.917" fill="#404145"/>
<path d="M187.302 153.319C187.101 153.998 186.861 154.679 186.442 155.251C186.023 155.822 185.396 156.276 184.69 156.34C183.985 156.405 183.221 156.002 183.003 155.328C182.885 155.732 182.551 156.075 182.14 156.164C181.73 156.253 181.263 156.059 181.07 155.686C180.876 155.313 181.008 154.793 181.374 154.588C180.957 154.823 180.438 155.06 180.026 154.817C179.847 154.712 179.723 154.528 179.659 154.331C179.449 153.677 179.856 152.992 180.305 152.473C180.754 151.954 181.288 151.442 181.4 150.765C181.49 150.222 181.287 149.679 181.154 149.145C181.005 148.549 180.943 147.92 181.079 147.321C181.214 146.722 181.568 146.155 182.103 145.854C182.638 145.553 183.36 145.562 183.833 145.953L183.922 146.838L187.302 153.319Z" fill="#404145"/>
<path d="M195.385 163.623C195.385 163.623 196.599 176.441 195.58 178.111C194.56 179.781 182.082 197.228 182.082 197.228L182.111 197.249C181.868 197.349 181.61 197.451 181.318 197.558C180.883 197.715 180.425 197.794 179.963 197.797C179.403 197.802 178.658 197.777 178.255 197.636C177.756 197.462 177.306 197.986 177.578 198.381C177.851 198.776 179.215 199.287 180.908 199.122C182.601 198.957 180.698 200.84 180.017 201.539C179.335 202.237 177.329 204.497 177.378 204.877C177.449 205.433 178.059 205.459 178.723 204.746C179.395 204.023 181.529 202.033 181.881 202.411C182.227 202.783 178.71 206.291 178.71 206.291C178.71 206.291 177.837 206.919 178.228 207.37C178.935 208.181 182.399 204.176 182.719 203.787C182.942 203.516 183.338 203.913 183.084 204.19C182.821 204.476 179.494 207.608 180.205 208.441C180.751 209.08 183.086 205.174 184.137 204.907C185.188 204.641 182.065 207.69 182.612 208.28C182.815 208.499 182.998 208.634 184.538 206.624C185.402 205.496 186.803 203.106 187.893 201.173C189.532 199.401 205.675 181.868 205.799 178.594C205.929 175.145 206.547 163.479 206.547 163.479L195.385 163.623Z" fill="#FFBE9D"/>
<path d="M176.127 220.677L175.98 215.919L184.892 215.586L185.181 222.545L184.63 222.601C182.176 222.829 172.136 223.589 170.474 223.153C168.62 222.666 176.127 220.677 176.127 220.677Z" fill="#3887FE"/>
<g opacity="0.4">
<path d="M172.464 221.781C172.464 221.781 169.839 222.646 170.186 223.07C170.534 223.495 180.708 223.108 185.181 222.545L185.159 222.347L173.296 222.899C173.296 222.899 172.984 221.783 172.464 221.781Z" fill="white"/>
</g>
<path d="M185.299 222.336C185.299 222.34 185.247 222.348 185.147 222.359C185.015 222.372 184.871 222.386 184.708 222.402C184.268 222.438 183.728 222.481 183.091 222.533C181.725 222.634 179.835 222.749 177.747 222.83C175.657 222.91 173.764 222.942 172.395 222.947C171.755 222.945 171.213 222.943 170.772 222.941C170.609 222.938 170.464 222.935 170.331 222.932C170.231 222.929 170.177 222.925 170.177 222.922C170.177 222.918 170.231 222.914 170.331 222.91C170.463 222.907 170.608 222.903 170.772 222.899C171.212 222.892 171.754 222.882 172.393 222.871C173.762 222.846 175.654 222.803 177.742 222.722C179.829 222.641 181.718 222.538 183.085 222.457C183.723 222.419 184.264 222.386 184.704 222.36C184.867 222.351 185.012 222.344 185.144 222.337C185.246 222.333 185.299 222.332 185.299 222.336Z" fill="#404145"/>
<path d="M173.303 223.037C173.271 223.042 173.231 222.656 172.972 222.275C172.719 221.889 172.378 221.704 172.396 221.676C172.401 221.649 172.79 221.803 173.062 222.216C173.338 222.625 173.33 223.042 173.303 223.037Z" fill="#404145"/>
<path d="M175.882 221.603C175.858 221.62 175.726 221.471 175.588 221.272C175.45 221.072 175.359 220.896 175.383 220.879C175.408 220.862 175.539 221.011 175.677 221.21C175.814 221.411 175.906 221.586 175.882 221.603Z" fill="#404145"/>
<path d="M176.589 221.194C176.569 221.217 176.425 221.129 176.267 220.997C176.108 220.865 175.995 220.739 176.013 220.716C176.033 220.693 176.177 220.781 176.336 220.913C176.494 221.046 176.608 221.171 176.589 221.194Z" fill="#404145"/>
<path d="M177.013 220.336C177.015 220.365 176.807 220.4 176.55 220.413C176.293 220.425 176.084 220.411 176.082 220.381C176.081 220.352 176.288 220.318 176.545 220.305C176.802 220.292 177.012 220.306 177.013 220.336Z" fill="#404145"/>
<path d="M177.147 219.737C177.158 219.763 176.935 219.874 176.634 219.907C176.333 219.943 176.091 219.884 176.095 219.856C176.099 219.825 176.336 219.833 176.622 219.8C176.908 219.768 177.136 219.708 177.147 219.737Z" fill="#404145"/>
<path d="M175.55 220.838C175.551 220.849 175.332 220.885 174.977 220.856C174.8 220.841 174.59 220.807 174.363 220.744C174.25 220.709 174.132 220.684 174.008 220.614C173.95 220.578 173.885 220.528 173.859 220.441C173.832 220.357 173.874 220.258 173.937 220.209C174.474 219.905 175.033 220.192 175.248 220.467C175.365 220.608 175.421 220.746 175.449 220.842C175.475 220.939 175.476 220.995 175.47 220.996C175.45 221.004 175.422 220.772 175.19 220.518C175.076 220.393 174.905 220.274 174.689 220.218C174.485 220.166 174.196 220.16 174.008 220.29C173.92 220.361 173.96 220.467 174.063 220.523C174.16 220.581 174.283 220.613 174.39 220.649C174.61 220.715 174.813 220.756 174.985 220.78C175.331 220.828 175.549 220.82 175.55 220.838Z" fill="#404145"/>
<path d="M175.403 220.871C175.395 220.878 175.305 220.735 175.321 220.476C175.331 220.349 175.371 220.197 175.462 220.052C175.558 219.921 175.681 219.741 175.928 219.742C176.061 219.754 176.132 219.903 176.114 220C176.108 220.101 176.066 220.189 176.026 220.259C175.947 220.405 175.855 220.525 175.769 220.616C175.596 220.798 175.457 220.871 175.45 220.86C175.44 220.847 175.561 220.753 175.711 220.566C175.786 220.472 175.867 220.354 175.938 220.214C176.012 220.09 176.058 219.87 175.913 219.85C175.769 219.841 175.628 219.989 175.545 220.107C175.46 220.234 175.415 220.37 175.397 220.485C175.362 220.72 175.422 220.866 175.403 220.871Z" fill="#404145"/>
<path d="M185.025 219.905C185.024 219.925 184.768 219.89 184.367 219.953C183.97 220.013 183.422 220.197 182.954 220.599C182.486 221.002 182.222 221.518 182.104 221.902C181.982 222.289 181.979 222.546 181.959 222.545C181.952 222.545 181.947 222.481 181.952 222.365C181.956 222.249 181.977 222.082 182.031 221.881C182.132 221.481 182.395 220.938 182.883 220.518C183.371 220.098 183.946 219.919 184.357 219.877C184.564 219.855 184.732 219.858 184.847 219.871C184.963 219.883 185.025 219.898 185.025 219.905Z" fill="#404145"/>
<path d="M183.96 216.231C183.99 216.23 184.056 217.048 184.107 218.059C184.158 219.07 184.176 219.89 184.146 219.892C184.116 219.893 184.05 219.075 183.999 218.064C183.948 217.053 183.931 216.233 183.96 216.231Z" fill="#404145"/>
<path d="M180.793 221.77C180.798 221.797 180.221 221.915 179.497 221.948C178.773 221.984 178.188 221.922 178.19 221.893C178.191 221.862 178.775 221.875 179.492 221.84C180.209 221.807 180.788 221.739 180.793 221.77Z" fill="#404145"/>
<path d="M182.54 221.701C182.562 221.722 182.496 221.827 182.442 221.962C182.386 222.097 182.36 222.218 182.329 222.217C182.3 222.218 182.278 222.078 182.342 221.922C182.405 221.765 182.519 221.68 182.54 221.701Z" fill="#404145"/>
<path d="M183.167 220.857C183.188 220.877 183.134 220.972 183.046 221.069C182.957 221.166 182.868 221.228 182.846 221.208C182.824 221.187 182.877 221.093 182.966 220.996C183.055 220.899 183.144 220.836 183.167 220.857Z" fill="#404145"/>
<path d="M184.094 220.447C184.089 220.478 183.97 220.481 183.841 220.532C183.711 220.58 183.62 220.656 183.597 220.637C183.572 220.621 183.642 220.492 183.803 220.431C183.963 220.369 184.102 220.419 184.094 220.447Z" fill="#404145"/>
<path d="M184.758 220.245C184.77 220.272 184.721 220.32 184.648 220.351C184.575 220.383 184.506 220.386 184.494 220.359C184.483 220.331 184.532 220.284 184.605 220.252C184.678 220.221 184.746 220.218 184.758 220.245Z" fill="#404145"/>
<g opacity="0.3">
<path d="M185.003 219.666L176.096 219.856L176.069 218.783L185.053 219.1L185.003 219.666Z" fill="#404145"/>
</g>
<path d="M209.683 188.397L181.508 188.012C181.508 188.012 173.664 188.762 173.664 198.951L174.658 219.062H186.661L185.842 199.79C186.516 199.798 195.605 200.093 195.605 200.093L209.683 188.397Z" fill="#404145"/>
<path d="M174.658 219.062C174.649 219.062 174.636 218.942 174.62 218.714C174.605 218.457 174.587 218.126 174.564 217.715C174.512 216.815 174.44 215.568 174.352 214.042C174.168 210.941 173.816 206.663 173.583 201.925C173.499 199.558 173.319 197.289 173.601 195.225C173.677 194.712 173.763 194.216 173.91 193.738C174.06 193.265 174.26 192.826 174.484 192.42C174.948 191.615 175.523 190.956 176.118 190.444C176.714 189.93 177.329 189.564 177.886 189.287C178.454 189.031 178.959 188.851 179.383 188.743C179.591 188.693 179.778 188.648 179.947 188.607C180.105 188.583 180.245 188.562 180.366 188.543C180.594 188.51 180.713 188.497 180.714 188.506C180.716 188.515 180.599 188.546 180.376 188.596C180.257 188.622 180.12 188.652 179.965 188.686C179.8 188.733 179.616 188.786 179.412 188.845C178.997 188.967 178.504 189.159 177.953 189.423C177.412 189.708 176.817 190.077 176.244 190.588C175.671 191.097 175.121 191.745 174.679 192.529C174.466 192.925 174.277 193.351 174.137 193.807C174.001 194.261 173.918 194.757 173.847 195.259C173.583 197.28 173.768 199.546 173.852 201.912C174.084 206.644 174.406 210.925 174.542 214.031C174.616 215.584 174.651 216.841 174.668 217.711C174.67 218.123 174.672 218.455 174.673 218.712C174.672 218.941 174.667 219.061 174.658 219.062Z" fill="#404145"/>
<path d="M228.43 220.686L223.68 221.001L223.033 212.107L229.977 211.573L230.053 212.122C230.367 214.566 231.481 224.573 231.103 226.25C230.681 228.119 228.43 220.686 228.43 220.686Z" fill="#3887FE"/>
<g opacity="0.4">
<path d="M229.662 224.309C229.662 224.309 230.619 226.902 231.03 226.539C231.443 226.177 230.698 216.023 229.977 211.572L229.78 211.601L230.749 223.438C230.749 223.438 229.646 223.789 229.662 224.309Z" fill="white"/>
</g>
<path d="M229.764 211.462C229.768 211.461 229.777 211.514 229.792 211.614C229.81 211.745 229.829 211.889 229.851 212.051C229.902 212.489 229.965 213.027 230.039 213.663C230.188 215.024 230.369 216.908 230.524 218.993C230.678 221.078 230.777 222.968 230.83 224.337C230.85 224.976 230.867 225.518 230.881 225.958C230.883 226.122 230.886 226.267 230.888 226.399C230.888 226.5 230.886 226.553 230.882 226.553C230.879 226.553 230.873 226.501 230.866 226.4C230.857 226.268 230.849 226.123 230.839 225.96C230.816 225.52 230.787 224.979 230.753 224.341C230.681 222.973 230.57 221.085 230.416 219.001C230.261 216.917 230.092 215.033 229.963 213.67C229.902 213.034 229.851 212.495 229.809 212.056C229.794 211.892 229.782 211.748 229.771 211.616C229.763 211.515 229.761 211.462 229.764 211.462Z" fill="#404145"/>
<path d="M230.887 223.426C230.894 223.458 230.51 223.512 230.138 223.784C229.762 224.05 229.588 224.397 229.56 224.381C229.533 224.376 229.672 223.983 230.075 223.696C230.475 223.406 230.892 223.399 230.887 223.426Z" fill="#404145"/>
<path d="M229.364 220.899C229.382 220.923 229.238 221.06 229.043 221.204C228.848 221.349 228.676 221.447 228.658 221.423C228.64 221.399 228.784 221.262 228.978 221.117C229.174 220.973 229.346 220.875 229.364 220.899Z" fill="#404145"/>
<path d="M228.93 220.207C228.953 220.225 228.87 220.372 228.744 220.535C228.617 220.699 228.496 220.816 228.472 220.798C228.449 220.78 228.532 220.633 228.658 220.469C228.785 220.306 228.906 220.189 228.93 220.207Z" fill="#404145"/>
<path d="M228.057 219.813C228.087 219.811 228.129 220.016 228.15 220.273C228.172 220.529 228.165 220.739 228.136 220.741C228.106 220.744 228.065 220.538 228.043 220.282C228.021 220.026 228.027 219.816 228.057 219.813Z" fill="#404145"/>
<path d="M227.454 219.7C227.48 219.688 227.598 219.907 227.642 220.207C227.688 220.507 227.638 220.751 227.61 220.747C227.579 220.744 227.579 220.507 227.535 220.222C227.494 219.938 227.425 219.712 227.454 219.7Z" fill="#404145"/>
<path d="M228.61 221.258C228.622 221.256 228.665 221.473 228.648 221.83C228.64 222.007 228.613 222.219 228.559 222.448C228.527 222.562 228.506 222.681 228.441 222.807C228.407 222.866 228.359 222.933 228.273 222.961C228.19 222.991 228.09 222.952 228.039 222.892C227.716 222.366 227.983 221.796 228.25 221.573C228.387 221.451 228.523 221.389 228.618 221.359C228.714 221.328 228.77 221.326 228.772 221.333C228.78 221.352 228.549 221.388 228.303 221.628C228.182 221.748 228.069 221.922 228.022 222.14C227.976 222.346 227.982 222.635 228.118 222.818C228.192 222.903 228.296 222.86 228.349 222.755C228.402 222.656 228.43 222.532 228.462 222.424C228.521 222.203 228.554 221.998 228.572 221.824C228.608 221.477 228.593 221.259 228.61 221.258Z" fill="#404145"/>
<path d="M228.649 221.404C228.656 221.412 228.516 221.507 228.257 221.499C228.13 221.494 227.977 221.459 227.828 221.374C227.694 221.282 227.509 221.165 227.502 220.919C227.509 220.786 227.655 220.71 227.753 220.724C227.854 220.727 227.943 220.765 228.016 220.802C228.164 220.877 228.287 220.964 228.381 221.047C228.57 221.213 228.647 221.35 228.637 221.356C228.624 221.367 228.526 221.25 228.333 221.106C228.237 221.034 228.116 220.958 227.973 220.892C227.847 220.822 227.626 220.784 227.61 220.93C227.607 221.074 227.76 221.209 227.881 221.288C228.011 221.369 228.148 221.409 228.264 221.423C228.499 221.449 228.643 221.385 228.649 221.404Z" fill="#404145"/>
<path d="M227.344 211.822C227.365 211.822 227.339 212.078 227.416 212.477C227.489 212.872 227.693 213.413 228.111 213.867C228.531 214.32 229.055 214.566 229.443 214.67C229.834 214.778 230.091 214.772 230.09 214.793C230.09 214.799 230.027 214.807 229.911 214.806C229.795 214.805 229.627 214.79 229.424 214.744C229.021 214.657 228.47 214.413 228.032 213.94C227.596 213.468 227.396 212.898 227.34 212.489C227.31 212.284 227.308 212.115 227.317 212C227.325 211.884 227.338 211.821 227.344 211.822Z" fill="#404145"/>
<path d="M223.711 213.015C223.708 212.986 224.524 212.891 225.532 212.804C226.541 212.717 227.36 212.671 227.362 212.701C227.365 212.73 226.55 212.825 225.541 212.912C224.533 212.999 223.714 213.045 223.711 213.015Z" fill="#404145"/>
<path d="M229.358 215.985C229.385 215.979 229.523 216.552 229.582 217.273C229.642 217.996 229.601 218.583 229.573 218.582C229.542 218.581 229.534 217.998 229.474 217.282C229.416 216.567 229.326 215.991 229.358 215.985Z" fill="#404145"/>
<path d="M229.227 214.242C229.247 214.219 229.353 214.281 229.491 214.33C229.628 214.382 229.749 214.404 229.75 214.434C229.752 214.463 229.612 214.49 229.454 214.432C229.295 214.374 229.207 214.263 229.227 214.242Z" fill="#404145"/>
<path d="M228.361 213.645C228.381 213.623 228.477 213.673 228.578 213.758C228.677 213.844 228.743 213.931 228.724 213.954C228.704 213.977 228.608 213.926 228.507 213.841C228.408 213.756 228.342 213.668 228.361 213.645Z" fill="#404145"/>
<path d="M227.919 212.733C227.95 212.737 227.957 212.855 228.012 212.982C228.065 213.111 228.145 213.199 228.126 213.224C228.111 213.249 227.979 213.183 227.913 213.025C227.846 212.866 227.891 212.726 227.919 212.733Z" fill="#404145"/>
<path d="M227.693 212.077C227.72 212.064 227.77 212.111 227.804 212.183C227.837 212.255 227.843 212.324 227.817 212.336C227.79 212.349 227.74 212.301 227.706 212.229C227.672 212.158 227.666 212.089 227.693 212.077Z" fill="#404145"/>
<g opacity="0.3">
<path d="M227.107 211.851L227.61 220.747L226.539 220.812V211.822L227.107 211.851Z" fill="#404145"/>
</g>
<path d="M199.296 211.891L199.302 211.899C199.302 211.899 223.307 198.791 226.027 194.525C228.832 190.126 226.831 185.996 226.831 185.996L206.629 188.692L192.263 203.083C189.131 205.565 183.488 210.747 183.488 215.857C183.488 224.605 194.797 223.175 202.915 223.194C214.015 223.219 226.468 223.271 226.468 223.271L226.5 211.346L199.296 211.891Z" fill="#404145"/>
<path d="M193.595 214.385C193.62 214.444 194.944 213.925 196.551 213.225C198.159 212.525 199.441 211.91 199.415 211.851C199.39 211.793 198.066 212.312 196.458 213.012C194.851 213.711 193.569 214.326 193.595 214.385Z" fill="#404145"/>
<path d="M195.482 211.462C195.48 211.526 196.42 211.609 197.581 211.647C198.743 211.685 199.686 211.663 199.688 211.599C199.69 211.535 198.751 211.452 197.588 211.415C196.428 211.376 195.484 211.397 195.482 211.462Z" fill="#404145"/>
<path d="M205.043 190.705C205.049 190.712 204.971 190.798 204.817 190.955C204.64 191.13 204.413 191.355 204.132 191.634C203.505 192.238 202.639 193.072 201.579 194.092C199.384 196.17 196.391 199.001 193.086 202.128C191.429 203.699 189.814 205.162 188.415 206.552C187.022 207.946 185.875 209.313 185.106 210.586C184.317 211.849 183.934 213.007 183.741 213.812C183.698 214.011 183.659 214.191 183.624 214.353C183.603 214.504 183.584 214.638 183.568 214.755C183.535 214.972 183.514 215.087 183.504 215.086C183.495 215.086 183.498 214.97 183.514 214.749C183.523 214.63 183.533 214.495 183.545 214.341C183.567 214.181 183.603 213.997 183.638 213.79C183.801 212.969 184.162 211.781 184.942 210.488C185.701 209.184 186.846 207.789 188.237 206.376C189.636 204.968 191.243 203.503 192.9 201.931C196.227 198.826 199.238 196.015 201.447 193.953C202.532 192.959 203.418 192.146 204.059 191.557C204.355 191.294 204.593 191.082 204.779 190.916C204.946 190.771 205.037 190.698 205.043 190.705Z" fill="#404145"/>
<path d="M197.833 164.657C195.685 165.816 193.006 164.86 192.077 162.604C191.572 161.377 191.165 160.376 191.165 160.376C191.165 160.376 188.064 161.475 186.485 158.635C185.598 157.038 184.346 154.311 183.42 152.228C182.637 150.466 182.826 148.425 183.922 146.838C186.464 143.628 188.48 144.167 192.522 144.823L193.122 144.921L199.628 159.349C200.515 161.315 199.731 163.632 197.833 164.657Z" fill="#FFBE9D"/>
<path d="M185.403 153.633C185.49 153.387 185.361 153.118 185.115 153.031C184.869 152.944 184.6 153.073 184.513 153.319C184.426 153.565 184.555 153.834 184.801 153.921C185.047 154.008 185.317 153.879 185.403 153.633Z" fill="#404145"/>
<path d="M184.123 153.158C184.195 153.183 184.359 152.816 184.752 152.601C185.142 152.381 185.541 152.436 185.557 152.361C185.566 152.328 185.473 152.262 185.297 152.234C185.124 152.206 184.865 152.229 184.621 152.364C184.377 152.5 184.221 152.708 184.153 152.87C184.083 153.034 184.089 153.148 184.123 153.158Z" fill="#404145"/>
<path d="M188.821 151.315C188.69 151.54 188.767 151.829 188.993 151.959C189.219 152.09 189.507 152.013 189.638 151.787C189.768 151.562 189.691 151.273 189.466 151.142C189.241 151.012 188.952 151.089 188.821 151.315Z" fill="#404145"/>
<path d="M188.428 151.208C188.5 151.233 188.663 150.866 189.057 150.651C189.447 150.431 189.845 150.486 189.862 150.411C189.871 150.378 189.778 150.312 189.602 150.284C189.429 150.256 189.169 150.279 188.926 150.414C188.682 150.55 188.526 150.758 188.458 150.92C188.388 151.084 188.395 151.198 188.428 151.208Z" fill="#404145"/>
<path d="M188.763 155.379C188.749 155.347 188.479 155.429 188.053 155.588C187.944 155.633 187.851 155.653 187.814 155.602C187.762 155.549 187.742 155.418 187.728 155.267C187.689 154.952 187.649 154.633 187.608 154.298C187.423 152.926 187.216 151.821 187.147 151.83C187.077 151.84 187.171 152.96 187.356 154.333C187.404 154.666 187.45 154.984 187.496 155.298C187.523 155.438 187.526 155.615 187.671 155.757C187.745 155.827 187.86 155.844 187.937 155.826C188.017 155.809 188.075 155.778 188.125 155.754C188.532 155.553 188.777 155.412 188.763 155.379Z" fill="#404145"/>
<path d="M191.138 160.338C191.138 160.338 193.025 159.509 194.295 157.265C194.295 157.265 194.524 159.799 191.531 161.082L191.138 160.338Z" fill="#FFBE9D"/>
<path d="M194.422 148.122C194.47 148.073 196.709 146.743 197.376 149.19C197.952 151.306 195.56 151.67 195.531 151.604C195.501 151.537 194.422 148.122 194.422 148.122Z" fill="#FFBE9D"/>
<path d="M195.962 150.361C195.969 150.351 196.006 150.372 196.076 150.378C196.143 150.383 196.25 150.365 196.341 150.287C196.525 150.129 196.58 149.724 196.455 149.356C196.393 149.17 196.289 149.009 196.171 148.888C196.054 148.763 195.921 148.695 195.806 148.716C195.69 148.73 195.638 148.823 195.634 148.889C195.628 148.955 195.656 148.991 195.646 148.998C195.643 149.005 195.591 148.98 195.576 148.891C195.57 148.848 195.575 148.791 195.609 148.735C195.643 148.678 195.706 148.631 195.784 148.612C195.944 148.565 196.138 148.656 196.268 148.789C196.407 148.92 196.528 149.099 196.598 149.308C196.735 149.72 196.667 150.178 196.406 150.37C196.278 150.46 196.143 150.461 196.065 150.436C195.984 150.408 195.956 150.367 195.962 150.361Z" fill="#FFBE9D"/>
<path d="M193.384 164.307C193.384 164.307 198.975 154.926 207.618 162.821C213.257 167.972 222.461 178.589 225.748 182.749C226.486 183.682 227.639 185.098 226.831 185.971C224.367 188.638 217.649 194.606 205.213 190.153L193.429 173.726C191.413 170.915 191.395 167.137 193.384 164.307Z" fill="#3887FE"/>
<path d="M200.552 159.842L198.975 157.265L190.925 163.67L192.429 166.089L200.552 159.842Z" fill="#3887FE"/>
<g opacity="0.3">
<path d="M200.207 160.174C200.207 160.174 193.869 165.656 193.777 165.565C193.685 165.475 191.246 163.712 191.246 163.712L193.48 164.965L200.207 160.174Z" fill="#404145"/>
</g>
<path d="M200.617 159.812C200.608 159.798 200.465 159.877 200.213 160.032C199.962 160.188 199.605 160.422 199.17 160.721C198.299 161.318 197.128 162.187 195.838 163.144C194.959 163.794 194.132 164.392 193.424 164.881L193.527 164.877C192.775 164.47 192.147 164.136 191.704 163.908C191.261 163.681 191.003 163.561 190.993 163.579C190.984 163.598 191.223 163.754 191.649 164.011C192.076 164.269 192.69 164.628 193.432 165.052L193.483 165.082L193.535 165.048C194.257 164.573 195.097 163.983 195.976 163.331C197.237 162.383 198.376 161.525 199.266 160.855C199.655 160.564 199.987 160.315 200.265 160.107C200.5 159.93 200.626 159.825 200.617 159.812Z" fill="#404145"/>
<path d="M166.249 184.42L164.719 183.797C164.719 183.797 163.734 183.57 162.128 182.803C161.711 182.604 161.333 182.332 161.007 182.005C160.612 181.608 160.107 181.06 159.925 180.674C159.699 180.197 159.01 180.243 158.919 180.714C158.829 181.185 159.419 182.516 160.724 183.608C162.028 184.7 159.352 184.662 158.376 184.666C157.4 184.669 154.382 184.822 154.145 185.123C153.798 185.564 154.207 186.018 155.181 185.991C156.168 185.965 159.083 186.092 159.061 186.607C159.038 187.114 154.071 187.066 154.071 187.066C154.071 187.066 153.01 186.883 152.964 187.478C152.88 188.551 158.165 188.214 158.667 188.17C159.016 188.139 159.012 188.699 158.635 188.712C158.248 188.726 153.681 188.548 153.586 189.64C153.513 190.477 157.935 189.403 158.862 189.966C159.789 190.529 155.425 190.439 155.388 191.242C155.374 191.541 155.405 191.766 157.918 191.456C160.492 191.138 167.325 189.142 167.325 189.142L166.173 184.356" fill="#FFBE9D"/>
<path d="M196.12 167.566C196.12 167.566 187.899 178.902 185.993 179.345C184.088 179.788 162.898 183.117 162.898 183.117L163.957 190.034C163.957 190.034 190.261 189.298 192.813 186.974C195.364 184.649 203.057 172.829 203.057 172.829L196.12 167.566Z" fill="#FFBE9D"/>
<path d="M190.333 186.774C190.324 186.784 190.389 186.867 190.551 186.964C190.713 187.056 190.983 187.157 191.329 187.13C191.669 187.109 192.089 186.913 192.342 186.52C192.601 186.145 192.691 185.558 192.411 185.078C192.277 184.842 192.06 184.65 191.805 184.571C191.554 184.494 191.284 184.513 191.067 184.628C190.608 184.87 190.54 185.443 190.757 185.743C190.991 186.061 191.35 186.042 191.519 185.971C191.705 185.894 191.748 185.778 191.738 185.775C191.723 185.76 191.657 185.845 191.492 185.885C191.341 185.924 191.044 185.897 190.896 185.654C190.747 185.424 190.825 184.978 191.164 184.819C191.329 184.737 191.542 184.725 191.736 184.788C191.928 184.85 192.099 185 192.21 185.193C192.439 185.585 192.375 186.072 192.162 186.403C191.953 186.746 191.612 186.925 191.31 186.965C190.685 187.045 190.347 186.732 190.333 186.774Z" fill="#FFBE9D"/>
<path d="M205.505 171.017L197.698 184.408L188.706 176.96C188.706 176.96 194.933 166.761 197.879 163.597L205.505 171.017Z" fill="#3887FE"/>
<path d="M183.133 196.581C183.145 196.514 184.172 196.882 184.954 197.915C185.748 198.94 185.836 200.027 185.768 200.021C185.686 200.042 185.487 199.041 184.739 198.08C184.006 197.107 183.092 196.654 183.133 196.581Z" fill="#404145"/>
<path d="M192.447 149.339C192.54 149.559 192.777 149.686 193.009 149.737C193.242 149.789 193.485 149.783 193.719 149.827C194.088 149.898 194.432 150.097 194.675 150.383C194.781 150.508 194.871 150.65 195.002 150.748C195.133 150.846 195.326 150.889 195.458 150.793C195.668 150.642 195.572 150.315 195.456 150.084C194.971 149.116 194.486 148.148 194.001 147.18L191.245 147.779L192.43 149.158" fill="#404145"/>
<path d="M183.444 146.048C183.763 145.666 184.238 145.356 184.611 145.686C184.983 146.015 185.144 146.52 185.258 147.004C185.372 147.488 185.462 147.995 185.742 148.407C186.095 148.925 186.744 149.225 187.367 149.158C187.991 149.091 188.561 148.66 188.796 148.079C189.17 148.642 189.556 149.217 190.098 149.624C190.639 150.03 191.375 150.243 192.005 149.995C192.635 149.747 193.041 148.939 192.715 148.346C193.077 148.62 193.511 148.828 193.965 148.826C194.42 148.824 194.891 148.574 195.059 148.151C195.227 147.729 194.995 147.164 194.552 147.063C195.059 147.395 195.776 147.398 196.254 147.027C196.733 146.655 196.9 145.916 196.584 145.4C196.268 144.883 195.486 144.706 195.006 145.075C195.346 144.868 195.703 144.644 195.888 144.291C196.073 143.939 196.004 143.42 195.642 143.252C195.208 143.051 194.745 143.452 194.274 143.539C193.506 143.68 192.877 142.988 192.256 142.516C191.132 141.662 189.611 141.432 188.229 141.713C186.847 141.994 185.593 142.744 184.533 143.674C183.837 144.283 183.163 145.168 183.444 146.048Z" fill="#404145"/>
<path d="M185.076 151.653C185.081 151.879 184.859 152.069 184.603 152.175C184.343 152.274 184.052 152.29 183.9 152.122C183.749 151.959 183.897 151.582 184.302 151.421C184.708 151.259 185.074 151.431 185.076 151.653Z" fill="#404145"/>
<path d="M189.196 149.679C189.152 149.903 188.875 150.042 188.599 150.174C188.317 150.291 188.028 150.405 187.832 150.288C187.742 150.225 187.71 150.085 187.778 149.911C187.843 149.739 188.018 149.544 188.268 149.433C188.518 149.321 188.78 149.321 188.952 149.387C189.127 149.452 189.209 149.57 189.196 149.679Z" fill="#404145"/>
<path d="M190.39 154.471C190.458 154.443 190.632 154.972 190.371 155.562C190.114 156.156 189.608 156.386 189.582 156.318C189.538 156.252 189.907 155.962 190.122 155.454C190.35 154.951 190.313 154.483 190.39 154.471Z" fill="#404145"/>
<path d="M196.389 146.162C196.392 146.169 196.353 146.196 196.27 146.235C196.186 146.269 196.054 146.312 195.875 146.318C195.54 146.331 194.935 146.192 194.616 145.572L194.758 145.601C194.369 145.972 193.757 146.266 193.043 146.284C192.341 146.306 191.515 146.057 190.944 145.413L191.175 145.322C191.196 145.679 190.976 146.02 190.685 146.206C190.395 146.398 190.037 146.494 189.675 146.449C189.067 146.357 188.617 145.962 188.261 145.584C187.901 145.197 187.614 144.791 187.282 144.471C186.956 144.147 186.584 143.91 186.194 143.842C185.805 143.77 185.422 143.85 185.103 143.976C184.458 144.239 184.049 144.675 183.768 144.95C183.49 145.236 183.339 145.401 183.324 145.387C183.311 145.376 183.433 145.191 183.69 144.879C183.952 144.58 184.343 144.109 185.029 143.8C185.367 143.653 185.784 143.55 186.232 143.621C186.682 143.688 187.107 143.954 187.455 144.291C187.812 144.626 188.108 145.036 188.454 145.402C188.795 145.764 189.215 146.109 189.709 146.18C190.281 146.259 190.941 145.853 190.912 145.332L190.891 144.95L191.143 145.241C191.643 145.816 192.39 146.059 193.038 146.052C193.697 146.05 194.264 145.796 194.636 145.469L194.728 145.389L194.779 145.498C195.025 146.037 195.564 146.207 195.876 146.221C196.208 146.235 196.38 146.138 196.389 146.162Z" fill="#404145"/>
<path d="M206.811 168.949C206.785 168.95 206.788 168.639 206.69 168.093C206.59 167.552 206.372 166.766 205.841 165.934C205.319 165.11 204.47 164.229 203.27 163.731C202.085 163.232 200.578 163.11 199.162 163.588C198.457 163.826 197.827 164.21 197.271 164.648C196.714 165.084 196.234 165.577 195.815 166.077C194.977 167.082 194.37 168.108 193.841 168.952C193.319 169.803 192.893 170.492 192.578 170.954C192.424 171.188 192.294 171.363 192.208 171.482C192.12 171.601 192.071 171.66 192.063 171.655C192.046 171.643 192.204 171.378 192.489 170.898C192.792 170.376 193.193 169.687 193.676 168.854C194.186 167.996 194.778 166.954 195.623 165.918C196.468 164.901 197.582 163.848 199.075 163.331C200.56 162.83 202.133 162.966 203.368 163.501C204.619 164.036 205.486 164.97 206.003 165.833C206.529 166.706 206.724 167.521 206.794 168.077C206.827 168.357 206.837 168.576 206.83 168.724C206.827 168.872 206.82 168.949 206.811 168.949Z" fill="#404145"/>
<path d="M204.516 173.846C204.493 173.851 204.556 173.632 204.307 173.423C204.188 173.318 204.012 173.249 203.782 173.225C203.558 173.193 203.27 173.208 202.97 173.079C202.356 172.826 201.956 172.111 201.751 171.347C201.643 170.963 201.559 170.559 201.415 170.17C201.274 169.781 201.058 169.407 200.713 169.163C200.369 168.914 199.947 168.803 199.536 168.754C199.123 168.704 198.716 168.721 198.321 168.732C197.538 168.762 196.778 168.73 196.22 168.421C195.668 168.122 195.375 167.661 195.3 167.324C195.256 167.155 195.266 167.018 195.274 166.929C195.292 166.84 195.306 166.795 195.315 166.797C195.342 166.799 195.296 166.989 195.401 167.294C195.499 167.595 195.791 167.998 196.308 168.25C196.82 168.509 197.532 168.527 198.311 168.482C199.078 168.452 200.043 168.377 200.871 168.943C201.275 169.23 201.519 169.665 201.664 170.079C201.813 170.496 201.893 170.906 201.991 171.283C202.176 172.022 202.532 172.671 203.047 172.904C203.294 173.026 203.565 173.029 203.805 173.076C204.044 173.113 204.259 173.214 204.378 173.346C204.504 173.474 204.552 173.617 204.55 173.711C204.55 173.805 204.523 173.848 204.516 173.846Z" fill="#FAFAFA"/>
<path d="M201.412 178.295C201.384 178.303 201.37 178.12 201.189 177.88C201.016 177.638 200.649 177.374 200.129 177.222C199.617 177.051 198.943 177.069 198.212 176.831C197.851 176.713 197.471 176.487 197.224 176.129C196.977 175.78 196.843 175.377 196.619 175.048C196.162 174.383 195.337 174.159 194.645 173.989C193.935 173.823 193.26 173.644 192.793 173.286C192.326 172.934 192.103 172.484 192.055 172.166C192.006 171.842 192.086 171.669 192.097 171.675C192.122 171.677 192.082 171.852 192.158 172.143C192.233 172.43 192.463 172.827 192.904 173.131C193.344 173.438 193.984 173.593 194.702 173.746C195.061 173.826 195.448 173.923 195.827 174.091C196.204 174.258 196.586 174.514 196.842 174.896C197.094 175.27 197.224 175.67 197.441 175.977C197.65 176.284 197.963 176.479 198.295 176.596C198.962 176.831 199.647 176.837 200.189 177.041C200.731 177.225 201.117 177.538 201.277 177.822C201.362 177.96 201.396 178.084 201.411 178.166C201.42 178.251 201.421 178.294 201.412 178.295Z" fill="#FAFAFA"/>
<path d="M215.765 171.248C215.773 171.249 215.772 171.324 215.747 171.465C215.719 171.604 215.658 171.81 215.522 172.048C215.258 172.529 214.653 173.091 213.771 173.497C213.334 173.703 212.84 173.884 212.331 174.109C211.825 174.335 211.299 174.614 210.873 175.056C209.986 175.928 209.554 177.28 208.933 178.603C208.62 179.266 208.25 179.911 207.726 180.4C207.595 180.521 207.466 180.642 207.316 180.735C207.173 180.837 207.029 180.934 206.871 181.006C206.564 181.158 206.243 181.259 205.929 181.331C204.665 181.599 203.515 181.532 202.615 181.817C201.706 182.064 201.123 182.627 200.873 183.078C200.614 183.536 200.638 183.853 200.605 183.846C200.598 183.846 200.588 183.771 200.601 183.628C200.614 183.486 200.657 183.274 200.78 183.029C201.012 182.538 201.613 181.917 202.559 181.634C203.491 181.315 204.665 181.361 205.871 181.088C206.172 181.015 206.472 180.917 206.757 180.774C206.902 180.707 207.034 180.616 207.165 180.52C207.303 180.434 207.422 180.321 207.543 180.207C208.027 179.752 208.382 179.137 208.688 178.486C209.3 177.19 209.744 175.803 210.697 174.878C211.159 174.411 211.723 174.124 212.241 173.903C212.765 173.682 213.259 173.513 213.691 173.322C214.558 172.95 215.153 172.434 215.432 171.992C215.718 171.55 215.736 171.24 215.765 171.248Z" fill="#FAFAFA"/>
<path d="M221.004 177.682C221.004 177.682 220.994 178.014 220.674 178.493C220.365 178.976 219.709 179.531 218.775 179.932C217.849 180.356 216.644 180.551 215.5 181.168C214.929 181.475 214.421 181.935 214.082 182.55C213.731 183.16 213.508 183.872 213.204 184.583C212.599 186.027 211.507 187.147 210.341 187.815C209.168 188.496 207.926 188.72 206.916 188.692C205.898 188.667 205.097 188.432 204.578 188.214C204.316 188.109 204.121 188.007 203.993 187.932C203.865 187.858 203.8 187.814 203.804 187.806C203.816 187.785 204.09 187.931 204.615 188.115C205.137 188.3 205.928 188.5 206.918 188.5C207.903 188.503 209.093 188.266 210.216 187.6C211.334 186.942 212.375 185.865 212.956 184.475C213.253 183.783 213.48 183.06 213.852 182.417C214.214 181.766 214.78 181.26 215.38 180.948C216.588 180.318 217.795 180.147 218.701 179.755C219.621 179.386 220.266 178.878 220.588 178.432C220.922 177.991 220.973 177.67 221.004 177.682Z" fill="#FAFAFA"/>
<path d="M225.723 182.766C225.751 182.821 224.797 183.061 223.63 184.035C223.058 184.523 222.446 185.2 221.982 186.08C221.745 186.516 221.577 187.012 221.359 187.528C221.143 188.035 220.841 188.587 220.316 188.938C219.796 189.287 219.194 189.4 218.645 189.463C218.09 189.525 217.562 189.543 217.072 189.625C216.086 189.78 215.23 190.089 214.55 190.419C213.187 191.09 212.517 191.789 212.482 191.744C212.472 191.734 212.627 191.552 212.953 191.269C213.278 190.987 213.78 190.61 214.464 190.247C215.147 189.888 216.019 189.552 217.032 189.379C217.539 189.288 218.076 189.264 218.614 189.2C219.15 189.135 219.706 189.022 220.164 188.714C220.623 188.409 220.901 187.915 221.115 187.422C221.33 186.926 221.509 186.414 221.762 185.962C222.256 185.055 222.904 184.369 223.509 183.886C224.12 183.406 224.683 183.119 225.083 182.959C225.284 182.881 225.441 182.826 225.552 182.798C225.662 182.768 225.72 182.756 225.723 182.766Z" fill="#FAFAFA"/>
<path d="M204.843 173.137C204.823 173.088 205.416 173.021 206.032 172.388C206.337 172.079 206.633 171.643 206.863 171.114C207.095 170.585 207.252 169.958 207.42 169.297C207.588 168.635 207.765 167.996 208.037 167.45C208.308 166.906 208.657 166.47 209.014 166.176C209.37 165.881 209.723 165.73 209.973 165.673C210.224 165.616 210.367 165.63 210.368 165.643C210.385 165.694 209.786 165.718 209.14 166.32C208.821 166.614 208.507 167.037 208.262 167.559C208.016 168.08 207.85 168.704 207.682 169.364C207.514 170.025 207.347 170.665 207.091 171.217C206.836 171.767 206.506 172.215 206.165 172.526C205.823 172.837 205.48 173.008 205.235 173.081C204.989 173.154 204.845 173.15 204.843 173.137Z" fill="#FAFAFA"/>
<path d="M203.355 163.799C203.286 163.787 203.456 163.014 204.099 162.317C204.736 161.614 205.491 161.377 205.509 161.444C205.544 161.517 204.888 161.846 204.298 162.5C203.7 163.145 203.431 163.827 203.355 163.799Z" fill="#FAFAFA"/>
<path d="M199.706 158.453C199.736 158.476 199.422 158.941 198.891 159.676C198.617 160.038 198.327 160.487 197.912 160.947C197.701 161.17 197.445 161.392 197.121 161.534C196.796 161.678 196.429 161.706 196.08 161.704C195.729 161.703 195.396 161.682 195.09 161.722C194.785 161.762 194.5 161.865 194.252 162.005C193.752 162.283 193.422 162.711 193.251 163.109C192.91 163.927 193.093 164.514 193.039 164.512C193.024 164.516 192.965 164.383 192.934 164.125C192.905 163.869 192.909 163.48 193.074 163.037C193.234 162.597 193.582 162.108 194.128 161.789C194.397 161.628 194.713 161.508 195.054 161.46C195.395 161.411 195.741 161.433 196.08 161.433C196.419 161.435 196.741 161.409 197.017 161.29C197.294 161.172 197.529 160.98 197.732 160.774C198.131 160.353 198.448 159.905 198.738 159.56C199.309 158.855 199.676 158.431 199.706 158.453Z" fill="#FAFAFA"/>
<g opacity="0.2">
<path d="M206.612 170.63L202.665 186.62L199.213 181.809L206.612 170.63Z" fill="#404145"/>
</g>
<path d="M223.733 223.267C223.658 223.267 223.598 220.61 223.598 217.332C223.598 214.054 223.658 211.397 223.733 211.397C223.808 211.397 223.868 214.054 223.868 217.332C223.868 220.61 223.807 223.267 223.733 223.267Z" fill="#404145"/>
<path d="M47.9202 193.798C49.4859 193.867 50.9487 194.729 51.9721 195.917C52.9949 197.105 53.6158 198.592 54.0079 200.109C54.7665 203.045 54.2554 206.498 53.3948 209.406C50.2332 208.245 48.3066 204.846 47.4377 203.061C46.0638 200.239 45.2953 194.304 47.9202 193.798Z" fill="#1DBF73"/>
<path d="M57.9277 212.996C56.9392 211.551 56.933 209.552 57.7374 207.997C58.5419 206.442 60.0712 205.329 61.7492 204.829C62.5251 204.598 63.4241 204.506 64.0934 204.961C64.7189 205.387 64.9841 206.214 64.8963 206.965C64.8089 207.717 64.4215 208.402 63.9665 209.008C62.4065 211.082 60.5158 212.804 57.9277 212.996Z" fill="#1DBF73"/>
<path d="M58.1923 222.788C58.1767 222.79 58.1309 222.572 58.0555 222.178C57.9744 221.742 57.8699 221.18 57.7435 220.505C57.5053 219.099 57.1252 217.1 57.4445 214.895C57.7518 212.701 58.6426 210.83 59.5692 209.716C60.0253 209.153 60.461 208.755 60.7829 208.511C60.9384 208.382 61.0757 208.303 61.1625 208.243C61.2519 208.185 61.3003 208.158 61.305 208.165C61.3393 208.204 60.5593 208.676 59.6919 209.812C58.8137 210.93 57.965 212.769 57.6624 214.927C57.3483 217.086 57.6972 219.067 57.8969 220.481C58.004 221.191 58.0909 221.766 58.1397 222.165C58.1897 222.563 58.2068 222.785 58.1923 222.788Z" fill="white"/>
<path d="M48.9048 198.266C48.912 198.263 48.9547 198.346 49.0306 198.507C49.1133 198.69 49.2199 198.925 49.3514 199.216C49.6265 199.833 50.0129 200.731 50.4809 201.845C51.4174 204.071 52.668 207.166 53.9716 210.614C55.2748 214.063 56.3839 217.212 57.1546 219.501C57.5404 220.646 57.8441 221.575 58.0464 222.219C58.14 222.524 58.2154 222.771 58.2746 222.963C58.3246 223.133 58.3474 223.224 58.3402 223.227C58.3329 223.229 58.296 223.143 58.2325 222.977C58.1634 222.788 58.075 222.546 57.9652 222.246C57.7302 221.584 57.4052 220.67 57.0079 219.552C56.2004 217.276 55.0688 214.138 53.7662 210.691C52.4631 207.245 51.2364 204.144 50.3374 201.903C49.8959 200.801 49.5345 199.901 49.2729 199.248C49.157 198.951 49.0634 198.71 48.99 198.523C48.9276 198.358 48.898 198.268 48.9048 198.266Z" fill="white"/>
<path d="M54.4837 216.279C52.6408 213.08 49.1678 210.881 45.4882 210.582C44.5512 210.506 43.4223 210.654 42.9969 211.492C42.571 212.332 43.1222 213.334 43.7551 214.032C46.3878 216.933 50.8744 217.975 54.516 216.531" fill="#1DBF73"/>
<path d="M46.8943 213.104C46.8954 213.089 47.1039 213.099 47.4809 213.131C47.6696 213.145 47.901 213.164 48.1652 213.216C48.4288 213.267 48.7362 213.299 49.0622 213.393C49.3908 213.476 49.7533 213.56 50.1282 213.698C50.5109 213.815 50.903 213.982 51.3154 214.161C52.1292 214.539 52.9924 215.032 53.8124 215.67C54.6262 216.316 55.3126 217.036 55.8695 217.741C56.1373 218.102 56.3926 218.444 56.5913 218.792C56.8112 219.126 56.9735 219.461 57.1264 219.764C57.2902 220.061 57.3858 220.355 57.4924 220.602C57.6001 220.849 57.6666 221.071 57.7197 221.253C57.8289 221.615 57.8819 221.817 57.8674 221.821C57.8206 221.837 57.6022 221.026 56.9875 219.834C56.8279 219.54 56.6599 219.214 56.4368 218.889C56.2346 218.551 55.9777 218.218 55.7104 217.866C55.154 217.18 54.4764 216.477 53.6772 215.843C52.8717 215.216 52.0278 214.727 51.2311 214.344C50.8276 214.163 50.4438 213.992 50.0694 213.87C49.7023 213.725 49.3472 213.634 49.0248 213.542C47.7268 213.204 46.8886 213.152 46.8943 213.104Z" fill="white"/>
</svg>
