<svg width="281" height="281" viewBox="0 0 281 281" fill="none" xmlns="http://www.w3.org/2000/svg">
<path d="M229.612 58.1587C215.678 26.3899 182.235 14.4294 155.847 35.7503C145.547 44.073 139.114 57.3165 126.498 62.6286C114.663 67.6115 99.6642 66.1404 86.862 68.8402C59.604 74.5874 22.9195 96.283 25.7206 129.65C26.9487 144.278 36.8193 160.527 41.6913 174.211C47.2997 189.962 50.6686 209.659 65.4762 219.074C90.8912 235.235 121.546 222.023 144.464 208.987C156.777 201.984 163.566 197.677 176.83 200.078C189.115 202.301 200.174 210.157 212.176 200.858C221.186 193.876 221.929 179.721 229.494 171.412C238.018 162.05 246.662 161.371 251.089 147.297C256.458 130.226 248.549 119.557 243.197 104.3C237.874 89.1245 236.176 73.1258 229.612 58.1587Z" fill="white"/>
<path d="M123.593 245.601C171.401 245.601 210.157 243.187 210.157 240.21C210.157 237.232 171.401 234.818 123.593 234.818C75.7852 234.818 37.0293 237.232 37.0293 240.21C37.0293 243.187 75.7852 245.601 123.593 245.601Z" fill="white"/>
<path opacity="0.8" d="M123.593 245.601C171.401 245.601 210.157 243.187 210.157 240.21C210.157 237.232 171.401 234.818 123.593 234.818C75.7852 234.818 37.0293 237.232 37.0293 240.21C37.0293 243.187 75.7852 245.601 123.593 245.601Z" fill="white"/>
<path d="M188.645 240.163H101.601C95.8688 240.163 91.2212 235.515 91.2212 229.782V46.0235C91.2212 40.2903 95.8688 35.6427 101.601 35.6427H188.645C194.378 35.6427 199.026 40.2903 199.026 46.0235V229.782C199.026 235.515 194.378 240.163 188.645 240.163Z" fill="#404145" stroke="white"/>
<path d="M194.69 57.7096H95.5566V218.096H194.69V57.7096Z" fill="white" stroke="#1DBF73" stroke-width="0.5" stroke-miterlimit="10"/>
<path d="M159.962 92.6212C168.158 100.817 168.158 114.106 159.962 122.302C151.766 130.498 138.477 130.498 130.281 122.302C122.085 114.106 122.085 100.817 130.281 92.6212C138.477 84.425 151.766 84.425 159.962 92.6212Z" fill="#1DBF73" stroke="#1DBF73"/>
<path d="M173.331 207.507H116.916C116.66 207.507 116.452 207.299 116.452 207.043C116.452 206.786 116.66 206.578 116.916 206.578H173.331C173.587 206.578 173.795 206.786 173.795 207.043C173.795 207.299 173.587 207.507 173.331 207.507Z" fill="#1DBF73" stroke="#1DBF73"/>
<path d="M175.173 152.097H115.073C114.111 152.097 113.33 151.316 113.33 150.354V143.267C113.33 142.304 114.111 141.524 115.073 141.524H175.174C176.136 141.524 176.917 142.304 176.917 143.267V150.354C176.917 150.354 176.917 150.354 176.917 150.354C176.917 151.317 176.136 152.097 175.173 152.097Z" fill="#1DBF73" stroke="#1DBF73"/>
<path d="M175.173 173.75H115.073C114.111 173.75 113.33 172.97 113.33 172.007V164.92C113.33 163.957 114.111 163.177 115.073 163.177H175.174C176.136 163.177 176.917 163.957 176.917 164.92V172.006C176.917 172.007 176.917 172.007 176.917 172.007C176.917 172.97 176.136 173.75 175.173 173.75Z" fill="#1DBF73" stroke="#1DBF73"/>
<path d="M149 114.538V114.827L149.25 114.972L155.572 118.611C156.921 119.388 157.753 120.827 157.753 122.383V122.383V124.217C154.238 126.871 149.866 128.448 145.123 128.448C140.38 128.448 136.008 126.871 132.493 124.217V122.383C132.493 120.826 133.325 119.387 134.675 118.61L134.425 118.177L134.675 118.61L140.996 114.971L141.247 114.826V114.537V111.529V111.344L141.126 111.204C140.268 110.202 139.595 108.881 139.212 107.358L139.086 106.857L138.59 106.999L138.266 107.091C138.261 107.081 138.256 107.071 138.251 107.061C138.133 106.819 137.979 106.481 137.836 106.092C137.55 105.317 137.34 104.429 137.457 103.723L138.293 104.752L138.192 103.189C138.129 102.2 137.941 100.998 137.395 100.18C137.193 99.8767 137.037 99.4179 136.949 98.8606C136.862 98.3105 136.846 97.701 136.897 97.1246C136.948 96.5449 137.063 96.0236 137.223 95.6418C137.395 95.2298 137.562 95.1083 137.633 95.0882L137.633 95.0882C138.186 94.9302 138.876 94.847 139.447 94.8047C139.728 94.7838 139.973 94.7734 140.148 94.7682C140.235 94.7656 140.304 94.7643 140.351 94.7637L140.404 94.7631L140.417 94.763L140.42 94.763L140.421 94.763H140.421H140.421L140.769 94.763L140.889 94.4375L140.889 94.4373L140.889 94.4367L140.89 94.4364L140.89 94.4345L140.898 94.4155C140.905 94.3973 140.918 94.3681 140.935 94.3296C140.97 94.2525 141.026 94.1385 141.105 93.9999C141.264 93.7219 141.513 93.3493 141.876 92.9772C142.593 92.2405 143.76 91.4938 145.583 91.4938C147.464 91.4938 148.544 91.9801 149.297 92.639C149.934 93.1965 150.358 93.8859 150.831 94.6543C150.944 94.8385 151.061 95.0272 151.183 95.2197C151.774 96.1478 152.468 96.5127 152.938 96.7602C153.013 96.7994 153.082 96.8357 153.144 96.8707C153.37 96.9985 153.455 97.0807 153.502 97.1773C153.552 97.2813 153.6 97.4933 153.521 97.9665C153.354 98.9665 153.15 99.5696 152.998 99.9104C152.923 100.08 152.861 100.184 152.824 100.239C152.807 100.265 152.796 100.28 152.79 100.286L152.429 100.647L152.815 100.997C152.816 100.998 152.816 100.998 152.817 100.999C152.821 101.003 152.829 101.011 152.839 101.023C152.861 101.046 152.895 101.084 152.934 101.137C153.014 101.243 153.115 101.403 153.194 101.612C153.346 102.016 153.429 102.641 153.033 103.479L152.99 103.569L152.985 103.669C152.946 104.507 152.806 105.509 152.586 106.289C152.475 106.682 152.352 106.989 152.229 107.186C152.159 107.3 152.111 107.342 152.092 107.356C151.909 107.353 151.749 107.317 151.604 107.267L151.102 107.096L150.961 107.607C150.568 109.026 149.929 110.261 149.12 111.205L149 111.345V111.53V114.538Z" fill="white" stroke="white"/>
<path d="M121.784 169.473L120.96 170.799L120.959 170.799C120.954 170.809 120.952 170.813 120.952 170.814L120.952 170.814C120.952 170.815 120.951 170.816 120.951 170.82C120.951 170.825 120.952 170.828 120.952 170.829C120.952 170.829 120.952 170.829 120.952 170.829C120.952 170.829 120.953 170.83 120.954 170.832C120.956 170.834 120.96 170.84 120.968 170.847L121.784 169.473ZM121.784 169.473L121.038 170.824M121.784 169.473L121.038 170.824M121.038 170.824C121.023 170.849 121.012 170.864 121.004 170.872C121.002 170.871 121 170.871 120.999 170.87C120.997 170.869 120.986 170.864 120.968 170.847L121.038 170.824ZM120.332 168.458L119.573 168.484C119.551 168.483 119.538 168.481 119.531 168.479C119.531 168.478 119.53 168.477 119.53 168.477L119.529 168.476L119.529 168.475L119.529 168.475L119.528 168.472C119.528 168.47 119.527 168.464 119.527 168.456C119.527 168.45 119.527 168.447 119.528 168.446L119.528 168.444C119.528 168.444 119.529 168.442 119.53 168.44C119.531 168.438 119.533 168.436 119.536 168.432C119.538 168.432 119.539 168.431 119.542 168.431C119.549 168.43 119.559 168.429 119.573 168.428L120.332 168.458ZM123.779 170.827L122.972 169.379L123.827 170.773C123.84 170.796 123.84 170.806 123.84 170.811V170.811C123.84 170.817 123.839 170.82 123.839 170.821L123.838 170.822C123.838 170.823 123.838 170.824 123.835 170.828C123.833 170.831 123.828 170.837 123.819 170.845L124.168 171.204L123.819 170.845C123.811 170.853 123.805 170.859 123.799 170.863C123.795 170.856 123.79 170.848 123.785 170.837L123.785 170.837L123.779 170.827ZM120.987 166.049C120.993 166.056 121.002 166.069 121.013 166.088L121.82 167.545L120.948 166.138C120.935 166.115 120.935 166.105 120.935 166.102C120.935 166.102 120.935 166.102 120.935 166.102C120.935 166.096 120.935 166.093 120.935 166.092C120.935 166.092 120.935 166.092 120.935 166.092C120.935 166.092 120.935 166.092 120.935 166.092C120.935 166.093 120.935 166.092 120.937 166.089C120.939 166.087 120.943 166.082 120.95 166.075C120.97 166.056 120.981 166.051 120.984 166.05L120.984 166.05C120.985 166.05 120.985 166.049 120.987 166.049ZM125.26 168.484L124.491 168.458L125.261 168.428C125.277 168.429 125.288 168.43 125.295 168.431C125.295 168.432 125.295 168.432 125.295 168.433C125.295 168.433 125.298 168.439 125.298 168.456C125.298 168.473 125.295 168.479 125.295 168.48L125.295 168.48C125.295 168.48 125.295 168.481 125.295 168.481C125.295 168.481 125.295 168.481 125.295 168.481C125.288 168.482 125.276 168.483 125.26 168.484ZM123.863 166.132L123.042 167.448L123.782 166.105C123.811 166.061 123.831 166.045 123.837 166.04C123.837 166.04 123.837 166.04 123.837 166.04C123.838 166.04 123.838 166.04 123.839 166.04C123.841 166.042 123.845 166.046 123.851 166.052C123.865 166.066 123.869 166.075 123.87 166.078C123.871 166.081 123.874 166.087 123.874 166.101C123.873 166.104 123.871 166.114 123.863 166.132Z" fill="#263238" stroke="white"/>
<path d="M130.869 169.473L130.045 170.799L130.044 170.799C130.038 170.809 130.037 170.813 130.037 170.814L130.037 170.814C130.036 170.815 130.036 170.816 130.036 170.82C130.036 170.825 130.036 170.828 130.037 170.829C130.037 170.829 130.037 170.829 130.037 170.829C130.037 170.829 130.038 170.83 130.039 170.832C130.041 170.834 130.045 170.84 130.052 170.847L130.869 169.473ZM130.869 169.473L130.123 170.823M130.869 169.473L130.123 170.823M130.123 170.823C130.108 170.849 130.096 170.864 130.089 170.872C130.086 170.871 130.085 170.871 130.084 170.87C130.081 170.869 130.071 170.864 130.052 170.847L130.123 170.823ZM129.417 168.458L128.658 168.484C128.636 168.483 128.622 168.481 128.616 168.479C128.615 168.478 128.614 168.477 128.614 168.477L128.613 168.476L128.613 168.475L128.613 168.475L128.612 168.472C128.612 168.47 128.611 168.464 128.611 168.456C128.611 168.45 128.612 168.447 128.612 168.446L128.613 168.444C128.613 168.444 128.613 168.442 128.615 168.44C128.616 168.438 128.618 168.436 128.62 168.432C128.627 168.431 128.638 168.429 128.657 168.428L129.417 168.458ZM132.863 170.827L132.057 169.379L132.911 170.773C132.924 170.796 132.924 170.806 132.924 170.811V170.811C132.924 170.816 132.924 170.819 132.923 170.82L132.923 170.822C132.923 170.822 132.922 170.824 132.919 170.828C132.916 170.832 132.912 170.838 132.903 170.846L133.252 171.204L132.903 170.846C132.895 170.854 132.889 170.859 132.884 170.863C132.88 170.856 132.875 170.848 132.869 170.837L132.869 170.837L132.863 170.827ZM130.071 166.049C130.078 166.056 130.087 166.069 130.098 166.088L130.904 167.545L130.032 166.138C130.019 166.115 130.019 166.105 130.019 166.102C130.019 166.102 130.019 166.102 130.019 166.102C130.019 166.096 130.02 166.093 130.02 166.092C130.02 166.092 130.02 166.092 130.02 166.092C130.02 166.092 130.02 166.092 130.02 166.092C130.019 166.093 130.02 166.092 130.022 166.089C130.023 166.087 130.027 166.082 130.035 166.075C130.054 166.057 130.065 166.051 130.068 166.05C130.069 166.05 130.07 166.049 130.071 166.049ZM134.344 168.484L133.575 168.458L134.345 168.428C134.361 168.429 134.372 168.43 134.379 168.431C134.379 168.432 134.379 168.432 134.38 168.433C134.38 168.433 134.382 168.439 134.382 168.456C134.382 168.473 134.38 168.479 134.38 168.48L134.38 168.48C134.379 168.48 134.379 168.481 134.379 168.481C134.379 168.481 134.379 168.481 134.379 168.481C134.372 168.482 134.361 168.483 134.344 168.484ZM132.947 166.132L132.13 167.441L132.866 166.105C132.895 166.061 132.915 166.045 132.921 166.04C132.921 166.04 132.922 166.04 132.922 166.04C132.922 166.04 132.923 166.04 132.923 166.04C132.926 166.042 132.93 166.046 132.936 166.052C132.949 166.066 132.954 166.075 132.955 166.078C132.956 166.081 132.958 166.087 132.958 166.101C132.958 166.104 132.956 166.114 132.947 166.132Z" fill="#263238" stroke="white"/>
<path d="M139.952 169.473L139.129 170.798C139.129 170.798 139.129 170.798 139.128 170.798C139.123 170.807 139.121 170.812 139.121 170.814C139.12 170.815 139.12 170.816 139.12 170.82C139.12 170.825 139.12 170.828 139.121 170.829L139.952 169.473ZM139.952 169.473L139.206 170.825C139.191 170.85 139.18 170.864 139.173 170.872C139.17 170.871 139.169 170.871 139.168 170.87C139.166 170.869 139.155 170.864 139.137 170.847L139.952 169.473ZM141.214 167.44L141.95 166.106C141.979 166.061 141.999 166.045 142.005 166.04C142.006 166.04 142.006 166.04 142.006 166.04C142.006 166.04 142.007 166.04 142.007 166.04C142.009 166.042 142.014 166.046 142.02 166.052C142.033 166.066 142.037 166.075 142.038 166.078C142.039 166.08 142.042 166.087 142.042 166.101C142.041 166.104 142.039 166.114 142.031 166.132L141.214 167.44ZM142.659 168.458L143.429 168.428C143.445 168.429 143.456 168.43 143.463 168.431C143.463 168.432 143.464 168.432 143.464 168.433C143.464 168.433 143.466 168.439 143.466 168.456C143.466 168.473 143.464 168.48 143.464 168.48C143.463 168.48 143.463 168.481 143.463 168.481C143.456 168.482 143.445 168.483 143.428 168.484L142.659 168.458ZM141.135 169.369L141.995 170.773C142.008 170.796 142.008 170.806 142.008 170.811V170.811C142.008 170.816 142.008 170.819 142.007 170.82L142.007 170.822C142.007 170.822 142.006 170.824 142.003 170.828C142.001 170.832 141.996 170.838 141.987 170.846C141.979 170.854 141.973 170.859 141.968 170.863C141.963 170.856 141.958 170.848 141.952 170.837L141.952 170.836L141.947 170.827L141.135 169.369ZM139.182 166.088L139.993 167.554L139.116 166.138C139.103 166.116 139.103 166.106 139.103 166.102V166.102C139.103 166.096 139.104 166.093 139.104 166.093C139.104 166.092 139.104 166.092 139.104 166.093C139.104 166.093 139.104 166.092 139.106 166.089C139.108 166.086 139.112 166.081 139.12 166.074C139.138 166.056 139.149 166.051 139.152 166.05C139.153 166.05 139.154 166.049 139.155 166.049C139.161 166.056 139.171 166.069 139.182 166.088ZM137.741 168.428L138.5 168.458L137.741 168.484C137.719 168.483 137.706 168.481 137.699 168.479C137.699 168.478 137.698 168.477 137.698 168.477L137.697 168.476L137.697 168.475L137.697 168.475L137.696 168.472C137.696 168.47 137.695 168.465 137.695 168.456C137.695 168.45 137.695 168.447 137.696 168.446L137.696 168.444C137.696 168.444 137.697 168.442 137.698 168.44C137.699 168.438 137.701 168.436 137.704 168.432C137.706 168.432 137.707 168.431 137.71 168.431C137.716 168.43 137.727 168.429 137.741 168.428Z" fill="#263238" stroke="white"/>
<path d="M148.291 170.824L149.037 169.473L148.213 170.798C148.213 170.798 148.213 170.798 148.213 170.798C148.207 170.807 148.205 170.812 148.205 170.814C148.205 170.815 148.204 170.816 148.204 170.82C148.204 170.825 148.205 170.828 148.205 170.829L148.291 170.824ZM148.291 170.824C148.276 170.849 148.264 170.864 148.257 170.872C148.255 170.871 148.253 170.871 148.252 170.87L148.291 170.824ZM149.078 167.553L148.266 166.088C148.255 166.069 148.246 166.056 148.24 166.049C148.238 166.049 148.237 166.05 148.236 166.05C148.233 166.052 148.222 166.057 148.204 166.074C148.197 166.081 148.192 166.086 148.19 166.089L149.078 167.553ZM149.078 167.553L148.2 166.138C148.188 166.116 148.188 166.106 148.188 166.102V166.102C148.188 166.096 148.188 166.093 148.188 166.093C148.188 166.093 148.188 166.093 148.188 166.093L149.078 167.553ZM150.299 167.44L151.034 166.106C151.063 166.061 151.084 166.045 151.09 166.04C151.09 166.04 151.09 166.04 151.09 166.04C151.091 166.04 151.091 166.04 151.091 166.04C151.094 166.042 151.098 166.046 151.105 166.052C151.118 166.066 151.121 166.075 151.123 166.078C151.124 166.08 151.126 166.087 151.126 166.101C151.126 166.104 151.124 166.114 151.115 166.132L150.299 167.44ZM151.744 168.458L152.513 168.428C152.53 168.429 152.541 168.43 152.548 168.431C152.548 168.432 152.548 168.432 152.548 168.433C152.548 168.433 152.551 168.439 152.551 168.456C152.551 168.473 152.548 168.479 152.548 168.48L152.548 168.48C152.548 168.48 152.548 168.481 152.548 168.481C152.54 168.482 152.529 168.483 152.513 168.484L151.744 168.458ZM150.219 169.369L151.08 170.773C151.093 170.796 151.093 170.807 151.093 170.811V170.811C151.093 170.817 151.092 170.82 151.092 170.821L151.091 170.822C151.091 170.823 151.09 170.824 151.088 170.828C151.085 170.831 151.081 170.837 151.072 170.845L151.421 171.204L151.072 170.845C151.064 170.853 151.057 170.859 151.052 170.863C151.048 170.856 151.042 170.848 151.037 170.837L151.037 170.836L151.031 170.827L150.219 169.369ZM146.825 168.428L147.585 168.458L146.826 168.484C146.804 168.483 146.791 168.481 146.784 168.479C146.784 168.478 146.783 168.477 146.783 168.477L146.782 168.476L146.782 168.475L146.782 168.475L146.781 168.472C146.78 168.47 146.78 168.465 146.78 168.456C146.78 168.45 146.78 168.447 146.781 168.446L146.781 168.444C146.781 168.444 146.782 168.442 146.783 168.44C146.784 168.438 146.786 168.435 146.789 168.432C146.791 168.432 146.792 168.431 146.795 168.431C146.801 168.43 146.811 168.429 146.825 168.428Z" fill="#263238" stroke="white"/>
<path d="M158.162 167.554L157.351 166.088C157.34 166.069 157.33 166.056 157.324 166.049C157.323 166.049 157.322 166.05 157.321 166.05C157.318 166.052 157.307 166.057 157.289 166.074C157.281 166.081 157.277 166.086 157.275 166.089L158.162 167.554ZM158.162 167.554L157.285 166.138C157.272 166.116 157.272 166.106 157.272 166.102V166.102C157.272 166.096 157.273 166.093 157.273 166.093C157.273 166.093 157.273 166.093 157.273 166.093L158.162 167.554ZM158.121 169.473L157.298 170.798C157.298 170.798 157.297 170.798 157.297 170.798C157.292 170.807 157.29 170.812 157.29 170.814C157.289 170.815 157.289 170.816 157.289 170.82C157.289 170.825 157.289 170.828 157.29 170.829L158.121 169.473ZM158.121 169.473L157.375 170.824C157.36 170.849 157.349 170.864 157.342 170.872C157.339 170.871 157.338 170.871 157.337 170.87C157.334 170.869 157.324 170.864 157.306 170.847L158.121 169.473ZM159.383 167.44L160.119 166.105C160.148 166.061 160.168 166.045 160.174 166.04C160.174 166.04 160.175 166.04 160.175 166.04C160.175 166.04 160.176 166.04 160.176 166.04C160.178 166.042 160.183 166.046 160.19 166.053C160.203 166.067 160.206 166.075 160.207 166.077C160.208 166.08 160.211 166.086 160.211 166.101C160.21 166.104 160.208 166.114 160.2 166.132L159.383 167.44ZM160.828 168.458L161.598 168.428C161.614 168.429 161.625 168.43 161.632 168.431C161.632 168.432 161.633 168.432 161.633 168.433C161.633 168.433 161.635 168.439 161.635 168.456C161.635 168.473 161.633 168.48 161.633 168.48C161.632 168.48 161.632 168.481 161.632 168.481C161.625 168.482 161.614 168.483 161.597 168.484L160.828 168.458ZM159.303 169.369L160.164 170.773C160.177 170.796 160.177 170.806 160.177 170.811V170.811C160.177 170.816 160.177 170.819 160.176 170.82L160.176 170.822C160.176 170.822 160.175 170.824 160.172 170.828C160.17 170.832 160.165 170.838 160.156 170.846C160.148 170.854 160.142 170.859 160.137 170.863C160.132 170.856 160.127 170.848 160.121 170.837L160.121 170.836L160.116 170.827L159.303 169.369ZM155.909 168.428L156.669 168.458L155.91 168.484C155.888 168.483 155.875 168.481 155.868 168.479C155.867 168.478 155.867 168.477 155.867 168.477L155.866 168.476L155.866 168.475L155.865 168.475L155.865 168.472C155.864 168.47 155.864 168.465 155.864 168.456C155.864 168.45 155.864 168.447 155.865 168.446L155.865 168.444C155.865 168.444 155.866 168.442 155.867 168.44C155.868 168.438 155.87 168.436 155.873 168.432C155.874 168.432 155.876 168.431 155.879 168.431C155.885 168.43 155.896 168.429 155.909 168.428Z" fill="#263238" stroke="white"/>
<path d="M167.246 167.553L166.435 166.088C166.424 166.069 166.414 166.056 166.408 166.049C166.407 166.049 166.406 166.05 166.405 166.05C166.402 166.052 166.391 166.057 166.373 166.074C166.365 166.081 166.361 166.086 166.359 166.089L167.246 167.553ZM167.246 167.553L166.369 166.138C166.356 166.116 166.356 166.106 166.356 166.102V166.102C166.356 166.096 166.357 166.093 166.357 166.093C166.357 166.093 166.357 166.093 166.357 166.093L167.246 167.553ZM167.205 169.473L166.381 170.799L166.38 170.799C166.375 170.809 166.373 170.813 166.373 170.814L166.373 170.814C166.373 170.815 166.372 170.816 166.372 170.82C166.372 170.825 166.373 170.828 166.373 170.829L167.205 169.473ZM167.205 169.473L166.459 170.824C166.444 170.85 166.432 170.864 166.425 170.872C166.423 170.871 166.421 170.871 166.42 170.87L167.205 169.473ZM168.467 167.44L169.203 166.105C169.232 166.061 169.252 166.045 169.258 166.04C169.258 166.04 169.258 166.04 169.259 166.04C169.259 166.04 169.26 166.04 169.26 166.04C169.262 166.042 169.267 166.046 169.274 166.053C169.287 166.067 169.29 166.075 169.291 166.077C169.292 166.08 169.295 166.086 169.295 166.101C169.294 166.104 169.292 166.114 169.284 166.132L168.467 167.44ZM169.912 168.458L170.682 168.428C170.698 168.429 170.709 168.43 170.716 168.431C170.716 168.432 170.716 168.432 170.717 168.433C170.717 168.433 170.719 168.439 170.719 168.456C170.719 168.473 170.717 168.479 170.717 168.48L170.717 168.48C170.716 168.48 170.716 168.48 170.716 168.481C170.716 168.481 170.716 168.481 170.716 168.481C170.709 168.482 170.698 168.483 170.681 168.484L169.912 168.458ZM168.388 169.369L169.248 170.773C169.261 170.796 169.261 170.807 169.261 170.811V170.811C169.261 170.816 169.261 170.819 169.26 170.82L169.26 170.822C169.26 170.822 169.259 170.824 169.256 170.828C169.253 170.832 169.249 170.838 169.24 170.846C169.232 170.854 169.226 170.859 169.221 170.863C169.216 170.856 169.211 170.848 169.205 170.837L169.205 170.836L169.2 170.827L168.388 169.369ZM164.993 168.428L165.753 168.458L164.994 168.484C164.972 168.483 164.959 168.481 164.952 168.479C164.951 168.478 164.951 168.477 164.951 168.477L164.95 168.476L164.95 168.475L164.949 168.475L164.949 168.472C164.948 168.47 164.948 168.465 164.948 168.456C164.948 168.45 164.948 168.447 164.948 168.446L164.949 168.444C164.949 168.444 164.95 168.442 164.951 168.44C164.952 168.438 164.954 168.436 164.957 168.432C164.958 168.432 164.96 168.431 164.963 168.431C164.969 168.43 164.98 168.429 164.993 168.428Z" fill="#263238" stroke="white"/>
<path d="M95.8066 63.8839V58.1707H194.44V63.8839H95.8066Z" fill="#1DBF73" stroke="white" stroke-width="0.5"/>
<path d="M155.9 46.4844H134.346C133.535 46.4844 132.877 45.8264 132.877 45.015C132.877 44.2035 133.535 43.5455 134.346 43.5455H155.9C156.711 43.5455 157.369 44.2035 157.369 45.015C157.369 45.8264 156.711 46.4844 155.9 46.4844Z" fill="white" stroke="white" stroke-width="1.3374" stroke-miterlimit="10" stroke-linecap="round" stroke-linejoin="round"/>
<path d="M145.123 221.773C148.094 221.773 150.501 224.181 150.501 227.152C150.501 230.122 148.093 232.53 145.123 232.53C142.153 232.53 139.745 230.122 139.745 227.152C139.745 224.181 142.153 221.773 145.123 221.773Z" fill="#1DBF73" stroke="white"/>
<path d="M148.103 224.172H142.145V230.131H148.103V224.172Z" fill="#1DBF73"/>
<path d="M69.2007 120.245L50.761 114.226L49.1208 109.89L45.3705 109.773L38.5737 108.484L39.3941 109.89L47.9487 116.101L50.0577 117.155L69.3491 127.227L69.2007 120.245Z" fill="#FFBE9D" stroke="#263238" stroke-width="1.004" stroke-miterlimit="10"/>
<path d="M49.1212 109.89L47.3633 108.835L43.8477 110.124L44.4334 110.827L49.1212 109.89Z" fill="#FFBE9D" stroke="#263238" stroke-width="1.004" stroke-miterlimit="10" stroke-linejoin="round"/>
<path d="M69.2007 120.245L50.761 114.226L49.1208 109.89L45.3705 109.773L38.5737 108.484L39.3941 109.89L47.9487 116.101L50.0577 117.155L69.3491 127.227L69.2007 120.245Z" fill="#FFBE9D"/>
<mask id="mask0_1_7078" style="mask-type:luminance" maskUnits="userSpaceOnUse" x="38" y="108" width="32" height="20">
<path d="M69.2007 120.245L50.761 114.226L49.1208 109.89L45.3705 109.773L38.5737 108.484L39.3941 109.89L47.9487 116.101L50.0577 117.155L69.3491 127.227L69.2007 120.245Z" fill="white"/>
</mask>
<g mask="url(#mask0_1_7078)">
<path opacity="0.5" d="M69.2007 120.245L50.761 114.226L49.1208 109.89L45.3705 109.773L38.5737 108.484L39.3941 109.89L47.9487 116.101L50.0577 117.155L69.3491 127.227L69.2007 120.245Z" fill="#FFBE9D" stroke="#263238" stroke-width="1.004" stroke-miterlimit="10"/>
</g>
<path d="M69.2007 120.245L50.761 114.226L49.1208 109.89L45.3705 109.773L38.5737 108.484L39.3941 109.89L47.9487 116.101L50.0577 117.155L69.3491 127.227L69.2007 120.245Z" stroke="#263238" stroke-width="1.004" stroke-miterlimit="10"/>
<path d="M49.1212 109.89L47.3633 108.835L43.8477 110.124L44.4334 110.827L49.1212 109.89Z" fill="#FFBE9D"/>
<mask id="mask1_1_7078" style="mask-type:luminance" maskUnits="userSpaceOnUse" x="43" y="108" width="7" height="3">
<path d="M49.1212 109.89L47.3633 108.835L43.8477 110.124L44.4334 110.827L49.1212 109.89Z" fill="white"/>
</mask>
<g mask="url(#mask1_1_7078)">
<path opacity="0.5" d="M49.1212 109.89L47.3633 108.835L43.8477 110.124L44.4334 110.827L49.1212 109.89Z" fill="#3887FE" stroke="#263238" stroke-width="1.004" stroke-miterlimit="10" stroke-linejoin="round"/>
</g>
<path d="M49.1212 109.89L47.3633 108.835L43.8477 110.124L44.4334 110.827L49.1212 109.89Z" stroke="#263238" stroke-width="1.004" stroke-miterlimit="10" stroke-linejoin="round"/>
<path d="M73.1157 81.1708C73.1157 81.1708 72.8307 83.6914 73.5413 85.3109C74.2519 86.931 78.2027 92.4106 78.2027 92.4106L70.8275 98.3236C70.8275 98.3236 67.7727 92.1462 67.1881 91.1668C66.6035 90.1868 65.9085 85.8782 67.8052 82.8054C69.7025 79.7322 72.437 78.9185 73.1157 81.1708Z" fill="#FFBE9D"/>
<mask id="mask2_1_7078" style="mask-type:luminance" maskUnits="userSpaceOnUse" x="66" y="79" width="13" height="20">
<path d="M73.1157 81.1708C73.1157 81.1708 72.8307 83.6914 73.5413 85.3109C74.2519 86.931 78.2027 92.4106 78.2027 92.4106L70.8275 98.3236C70.8275 98.3236 67.7727 92.1462 67.1881 91.1668C66.6035 90.1868 65.9085 85.8782 67.8052 82.8054C69.7025 79.7322 72.437 78.9185 73.1157 81.1708Z" fill="white"/>
</mask>
<g mask="url(#mask2_1_7078)">
<path opacity="0.5" d="M69.3275 89.2718L72.5279 95.901L70.8278 98.3236L67.6128 92.5864L69.3275 89.2718Z" fill="#3887FE"/>
</g>
<path d="M73.1157 81.1708C73.1157 81.1708 72.8307 83.6914 73.5413 85.3109C74.2519 86.931 78.2027 92.4106 78.2027 92.4106L70.8275 98.3236C70.8275 98.3236 67.7727 92.1462 67.1881 91.1668C66.6035 90.1868 65.9085 85.8782 67.8052 82.8054C69.7025 79.7322 72.437 78.9185 73.1157 81.1708Z" stroke="#263238" stroke-width="1.004" stroke-miterlimit="10"/>
<path d="M75.397 76.5603C74.944 73.7682 71.7374 68.0612 66.6465 68.2841C63.3414 68.4286 61.7991 69.0966 60.3616 69.9058C59.6291 70.318 57.6568 71.6939 57.1175 72.3385C54.6266 75.3194 53.7715 76.1403 54.2363 78.4229C54.1327 79.1195 54.4015 80.4131 54.6591 81.0991C55.4224 83.1342 55.9404 84.4619 56.599 85.429C56.3968 86.3771 55.8738 88.8725 55.8452 89.4442C55.8189 89.9729 57.5168 89.6173 58.3854 89.4011C59.9881 92.9823 62.9214 95.4687 63.837 95.7549C65.4257 96.251 67.9429 93.6375 69.2729 91.612C70.6029 89.5865 69.5999 87.3028 69.6038 86.3973C69.6078 85.4918 72.6021 83.4976 73.7058 82.8665C74.8102 82.2359 75.8501 79.3525 75.397 76.5603Z" fill="#FFBE9D"/>
<mask id="mask3_1_7078" style="mask-type:luminance" maskUnits="userSpaceOnUse" x="54" y="68" width="22" height="28">
<path d="M75.397 76.5603C74.944 73.7682 71.7374 68.0612 66.6465 68.2841C63.3414 68.4286 61.7991 69.0966 60.3616 69.9058C59.6291 70.318 57.6568 71.6939 57.1175 72.3385C54.6266 75.3194 53.7715 76.1403 54.2363 78.4229C54.1327 79.1195 54.4015 80.4131 54.6591 81.0991C55.4224 83.1342 55.9404 84.4619 56.599 85.429C56.3968 86.3771 55.8738 88.8725 55.8452 89.4442C55.8189 89.9729 57.5168 89.6173 58.3854 89.4011C59.9881 92.9823 62.9214 95.4687 63.837 95.7549C65.4257 96.251 67.9429 93.6375 69.2729 91.612C70.6029 89.5865 69.5999 87.3028 69.6038 86.3973C69.6078 85.4918 72.6021 83.4976 73.7058 82.8665C74.8102 82.2359 75.8501 79.3525 75.397 76.5603Z" fill="white"/>
</mask>
<g mask="url(#mask3_1_7078)">
<path opacity="0.5" d="M54.2361 78.4234C54.1325 79.1201 54.4013 80.4137 54.6589 81.0997C55.4222 83.1347 55.9402 84.4625 56.5988 85.4296C56.3966 86.3777 55.8736 88.873 55.845 89.4448C55.8187 89.9734 57.5166 89.6178 58.3857 89.4017C59.9884 92.9829 62.9217 95.4693 63.8373 95.7554C65.426 96.2516 67.9432 93.6381 69.2732 91.6126C69.6356 91.061 69.8209 90.4909 69.9044 89.9342C69.8321 89.6699 69.7828 89.5058 69.7828 89.5058C69.7828 89.5058 69.0302 92.3921 67.5244 92.0152C66.0185 91.6389 63.76 88.6272 62.5051 87.6237C61.2501 86.6202 61.7524 85.2398 61.501 83.7339C61.2501 82.2281 57.4858 80.8477 57.2349 79.9696C56.984 79.0915 57.8621 75.4526 57.8621 75.4526C57.8621 75.4526 59.2856 73.5481 58.9916 74.3231C58.6976 75.0987 58.4899 76.707 59.368 78.4638C60.2466 80.2205 62.0033 80.095 62.0033 80.095L63.3837 73.319L60.4975 70.9351L57.1179 72.339C54.6264 75.3199 53.7719 76.1409 54.2361 78.4234Z" fill="#FFBE9D"/>
</g>
<path d="M75.397 76.5603C74.944 73.7682 71.7374 68.0612 66.6465 68.2841C63.3414 68.4286 61.7991 69.0966 60.3616 69.9058C59.6291 70.318 57.6568 71.6939 57.1175 72.3385C54.6266 75.3194 53.7715 76.1403 54.2363 78.4229C54.1327 79.1195 54.4015 80.4131 54.6591 81.0991C55.4224 83.1342 55.9404 84.4619 56.599 85.429C56.3968 86.3771 55.8738 88.8725 55.8452 89.4442C55.8189 89.9729 57.5168 89.6173 58.3854 89.4011C59.9881 92.9823 62.9214 95.4687 63.837 95.7549C65.4257 96.251 67.9429 93.6375 69.2729 91.612C70.6029 89.5865 69.5999 87.3028 69.6038 86.3973C69.6078 85.4918 72.6021 83.4976 73.7058 82.8665C74.8102 82.2359 75.8501 79.3525 75.397 76.5603Z" stroke="#263238" stroke-miterlimit="10"/>
<path d="M57.293 83.7362L57.8272 85.3389C57.8272 85.3389 59.029 85.7393 60.4984 84.1371" stroke="#263238" stroke-miterlimit="10" stroke-linecap="round"/>
<path d="M61.4331 91.215C61.4331 91.215 62.7687 91.0817 63.3029 89.2118" stroke="#263238" stroke-miterlimit="10" stroke-linecap="round"/>
<path d="M56.3579 82.4006C56.3579 82.4006 56.7583 81.1988 59.1624 81.1988" stroke="#263238" stroke-miterlimit="10" stroke-linecap="round"/>
<path d="M68.6737 66.0542C66.3581 65.6694 63.4025 65.6487 63.4025 65.6487C63.4025 65.6487 58.1312 62.6074 53.0626 65.8514C47.9941 69.0955 50.4273 74.7717 50.4273 76.1913C50.4273 77.6103 48.8055 77.6103 49.8191 79.4354C50.8327 81.2598 54.2364 80.2552 54.2364 80.2552C54.2364 80.2552 54.2442 78.1182 56.0687 76.6992C57.8932 75.2802 59.3481 74.975 59.9562 75.3804C59.9562 75.3804 59.5508 78.4212 60.1589 79.6381C60.1589 79.6381 62.1861 80.6517 62.7943 80.6517C63.4025 80.6517 62.3973 81.5113 64.4161 82.2734C65.288 82.6027 66.0115 82.3446 66.6348 82.0102C66.9299 80.7777 67.5834 78.9241 68.7919 79.3536C70.5699 79.9858 72.1849 84.3566 69.7842 85.8423C72.6744 86.3676 76.1749 81.2593 76.3777 76.5962C76.5809 71.9336 71.6737 66.5526 68.6737 66.0542Z" fill="#263238"/>
<path d="M60.0688 73.3846C60.0688 73.3846 61.5545 72.5843 63.3835 74.299C65.2124 76.0138 68.7556 78.2997 73.4417 77.0425" stroke="#FFBE9D" stroke-width="0.5" stroke-miterlimit="10" stroke-linecap="round" stroke-linejoin="round"/>
<path d="M59.8403 72.0126C59.8403 72.0126 60.8691 70.4126 62.5838 70.4126C64.2979 70.4126 68.2986 72.8128 71.499 72.8128" stroke="#FFBE9D" stroke-width="0.5" stroke-miterlimit="10" stroke-linecap="round" stroke-linejoin="round"/>
<path d="M58.6975 75.0987C58.6975 75.0987 56.7543 72.6986 54.9259 74.6418C53.0969 76.585 54.2365 78.4235 54.2365 78.4235" stroke="#FFBE9D" stroke-width="0.5" stroke-miterlimit="10" stroke-linecap="round" stroke-linejoin="round"/>
<path d="M50.9253 76.6992C50.9253 76.6992 52.64 75.3278 52.8685 72.8134C53.097 70.299 56.5259 68.1273 58.6975 70.1847" stroke="#FFBE9D" stroke-width="0.5" stroke-miterlimit="10" stroke-linecap="round" stroke-linejoin="round"/>
<path d="M54.4683 67.5555C54.4683 67.5555 57.8971 64.2409 60.7548 68.47" stroke="#FFBE9D" stroke-width="0.5" stroke-miterlimit="10" stroke-linecap="round" stroke-linejoin="round"/>
<path d="M82.4076 230.554C82.4076 230.554 84.5188 233.837 84.2841 235.949C84.0495 238.06 84.0495 238.06 84.0495 238.06C84.0495 238.06 76.3092 240.171 74.6672 240.171C73.0253 240.171 64.3492 239.356 64.3492 239.356L63.978 237.87C63.9214 237.643 64.0334 237.408 64.2451 237.309L71.9893 233.698L74.432 231.024L82.4076 230.554Z" fill="#FFBE9D" stroke="#263238" stroke-width="1.004" stroke-miterlimit="10"/>
<path d="M75.84 238.529C77.94 238.69 81.9317 237.405 84.2131 236.59C84.0502 238.056 84.0496 238.059 84.0496 238.059C84.0496 238.059 76.3093 240.17 74.6673 240.17C73.0254 240.17 64.3494 239.355 64.3494 239.355L64.0845 238.294C65.4307 238.296 73.0641 238.315 75.84 238.529Z" fill="#3887FE" stroke="#263238" stroke-width="1.004" stroke-miterlimit="10"/>
<path d="M71.9895 233.697L60.7167 238.599C60.7167 238.599 59.7512 241.013 60.7167 241.495C61.6821 241.978 82.6793 241.495 82.6793 241.495C82.6793 241.495 84.1331 237.681 81.8376 235.123C79.5411 232.566 71.9895 233.697 71.9895 233.697Z" fill="#FFBE9D" stroke="#263238" stroke-width="1.004" stroke-miterlimit="10"/>
<path d="M82.6791 241.495C82.6791 241.495 61.6819 241.978 60.7165 241.495C60.2517 241.263 60.236 240.583 60.343 239.94H83.0482C82.9177 240.86 82.6791 241.495 82.6791 241.495Z" fill="#3887FE" stroke="#263238" stroke-width="1.004" stroke-miterlimit="10"/>
<path d="M66.6609 148.455C66.6609 148.455 63.7125 161.51 62.5976 169.673C61.4826 177.837 60.828 194.197 61.0626 196.073C61.2972 197.95 73.0253 229.381 73.0253 229.381L74.198 232.196L82.4076 230.554C82.4076 230.554 78.6544 218.591 77.2472 212.023C75.8399 205.456 72.7907 194.666 72.7907 192.789C72.7907 190.913 80.0942 155.085 80.5937 152.729C81.0938 150.373 83.4766 146.768 83.4766 146.768L67.7574 146.447L66.6609 148.455Z" fill="#3887FE" stroke="#263238" stroke-width="1.004" stroke-miterlimit="10"/>
<path d="M66.6605 148.455C66.6605 148.455 64.9351 160.378 65.6441 168.67C66.3531 176.962 67.8975 194.603 67.8975 197.227C67.8975 199.851 72.1362 215.543 72.3955 220.466C72.7701 227.587 72.2392 231.116 72.2392 231.116L71.9889 233.697C71.9889 233.697 76.9365 234.399 78.0173 234.708C79.8328 235.229 81.8371 235.123 81.8371 235.123C81.8371 235.123 83.6397 227.212 83.6397 220.465C83.6397 213.719 82.1406 199.85 81.3907 194.229C80.6409 188.606 82.9957 166.915 84.3257 162.854C85.6557 158.792 88.5733 150.231 86.6116 145.855C84.6499 141.479 66.6605 148.455 66.6605 148.455Z" fill="#3887FE" stroke="#263238" stroke-width="1.004" stroke-miterlimit="10"/>
<path d="M88.7689 143.664L88.588 148.995C88.588 148.995 85.3944 149.627 81.0941 150.373C77.5443 150.989 68.6296 150.212 65.6264 149.921C65.0647 149.867 64.6475 149.378 64.6816 148.814L64.9745 143.998L88.7689 143.664Z" fill="#263238"/>
<path d="M76.2894 90.5189C76.2894 90.5189 71.2628 95.9694 69.3499 99.3585C67.4369 102.748 66.7005 107.938 66.0201 112.023C65.3397 116.108 67.2331 125.708 66.6949 130.116L64.974 143.998C64.974 143.998 64.605 144.944 65.8398 145.971C67.0746 146.998 73.1259 147.38 78.5792 147.653C80.5745 147.754 86.5295 146.469 87.5006 146.409C88.6771 146.335 88.7191 144.842 88.769 143.664C89.0025 138.135 90.0015 123.404 90.6522 116.983C91.9783 103.897 84.5886 91.2648 76.2894 90.5189Z" fill="#FFBE9D" stroke="#263238" stroke-width="1.004" stroke-miterlimit="10"/>
<path d="M90.0102 124.427C90.2353 121.52 90.4587 118.886 90.6514 116.983C90.709 116.415 90.7443 115.848 90.7695 115.283L77.3799 117.539L65.882 113.602C65.8204 115.557 66.0422 118.121 66.2835 120.726L77.567 123.886L90.0102 124.427Z" fill="#3887FE"/>
<path d="M75.7888 91.0705C75.0289 91.9172 73.5175 93.6336 72.0771 95.4609L80.5533 104.1L83.3533 102.98L75.7888 91.0705Z" fill="#3887FE"/>
<path d="M76.2892 90.5189C76.2892 90.5189 71.2626 95.9694 69.3496 99.3585C68.8098 100.315 68.3657 101.418 67.9883 102.597L78.1254 90.8868C77.52 90.7037 76.908 90.5743 76.2892 90.5189Z" fill="#263238"/>
<path d="M66.3843 109.818L77.3804 113.433L90.7398 111.902C90.5186 108.454 89.738 105.148 88.548 102.209L77.754 106.526L68.1281 102.165C67.3172 104.542 66.8088 107.281 66.3843 109.818Z" fill="#3887FE"/>
<path d="M85.3203 138.134C79.7421 139.074 74.0172 138.607 68.6653 136.774L65.9829 135.855L65.1479 142.593L68.2044 143.448C74.0161 145.076 80.091 145.544 86.0835 144.828L88.5537 144.533C88.678 144.267 88.7553 143.974 88.7687 143.663C88.832 142.167 88.9519 139.993 89.1047 137.496L85.3203 138.134Z" fill="#3887FE"/>
<path d="M86.814 128.988C81.2358 129.928 75.5109 129.46 70.159 127.627L66.7447 126.458C66.8136 127.86 66.8164 129.121 66.6948 130.116L66.2944 133.349L69.6981 134.302C75.5098 135.929 81.5847 136.398 87.5772 135.681L89.2315 135.484C89.3743 133.254 89.5372 130.857 89.7075 128.5L86.814 128.988Z" fill="#3887FE"/>
<path d="M34.275 105.306L45.104 114.013L45.5707 113.433L34.7417 104.726L34.275 105.306Z" fill="#263238"/>
<path d="M81.5031 96.5607C81.5031 96.5607 85.4718 99.2666 85.5625 105.659C85.6017 108.435 85.3133 111.073 84.6699 115.661C84.0265 120.249 80.0236 135.178 76.9145 136.992C73.8059 138.806 68.9647 135.38 68.9647 135.38L45.5881 119.863L39.941 115.272L37.1685 109.983L38.0029 108.331L44.9138 113.637L41.2027 110.207L41.9307 109.278L43.2719 110.215L47.1981 111.68L48.0565 117.299L49.265 118.129L71.6012 126.264C71.6012 126.264 71.324 114.232 71.5301 111.928C71.7367 109.623 72.0223 103.841 74.4885 99.6486" fill="#FFBE9D"/>
<mask id="mask4_1_7078" style="mask-type:luminance" maskUnits="userSpaceOnUse" x="37" y="96" width="49" height="42">
<path d="M81.5031 96.5607C81.5031 96.5607 85.4718 99.2666 85.5625 105.659C85.6017 108.435 85.3133 111.073 84.6699 115.661C84.0265 120.249 80.0236 135.178 76.9145 136.992C73.8059 138.806 68.9647 135.38 68.9647 135.38L45.5881 119.863L39.941 115.272L37.1685 109.983L38.0029 108.331L44.9138 113.637L41.2027 110.207L41.9307 109.278L43.2719 110.215L47.1981 111.68L48.0565 117.299L49.265 118.129L71.6012 126.264C71.6012 126.264 71.324 114.232 71.5301 111.928C71.7367 109.623 72.0223 103.841 74.4885 99.6486" fill="white"/>
</mask>
<g mask="url(#mask4_1_7078)">
<path opacity="0.5" d="M71.4605 117.169C71.488 121.324 71.6017 126.264 71.6017 126.264L49.2655 118.129L48.057 117.299L47.1985 111.68L43.2724 110.216L41.9312 109.279L41.2032 110.207L44.9143 113.637L38.0033 108.332L37.1689 109.984L39.9415 115.273L45.5891 119.863L47.0132 120.809L77.9 130.762L71.4605 117.169Z" fill="#FFBE9D"/>
</g>
<path d="M81.5031 96.5607C81.5031 96.5607 85.4718 99.2666 85.5625 105.659C85.6017 108.435 85.3133 111.073 84.6699 115.661C84.0265 120.249 80.0236 135.178 76.9145 136.992C73.8059 138.806 68.9647 135.38 68.9647 135.38L45.5881 119.863L39.941 115.272L37.1685 109.983L38.0029 108.331L44.9138 113.637L41.2027 110.207L41.9307 109.278L43.2719 110.215L47.1981 111.68L48.0565 117.299L49.265 118.129L71.6012 126.264C71.6012 126.264 71.324 114.232 71.5301 111.928C71.7367 109.623 72.0223 103.841 74.4885 99.6486" stroke="#263238" stroke-width="1.004" stroke-miterlimit="10"/>
<path d="M71.6022 126.264L80.1399 132.416L82.3514 128.499C82.3514 128.499 83.8768 127.294 84.1053 126.39C84.3338 125.486 84.042 124.006 84.2705 123.102C84.499 122.199 85.6408 121.34 85.7511 119.148C85.8614 116.956 85.7707 115.121 85.7707 115.121C85.7707 115.121 87.6176 107.523 87.4177 104.217C87.2178 100.911 84.0319 95.0745 81.475 94.9457C78.918 94.8174 75.6022 95.1999 73.0262 99.0986C70.4497 102.997 70.9766 114.377 70.5746 115.089C70.1725 115.802 70.7286 119.309 70.7286 119.309C70.7286 119.309 69.9703 119.82 69.9244 120.734C69.8785 121.647 70.8641 123.894 70.8641 123.894L71.6022 126.264Z" fill="#FFBE9D" stroke="#263238" stroke-width="1.004" stroke-miterlimit="10"/>
<path d="M70.789 112.17C70.7291 113.753 70.691 114.88 70.5734 115.089C70.2128 115.728 70.6221 118.608 70.7106 119.196C76.8202 121.092 82.1503 120.868 85.5607 120.338C85.6548 119.986 85.7281 119.601 85.7511 119.148C85.8614 116.956 85.7707 115.12 85.7707 115.12C85.7707 115.12 85.9348 114.444 86.1599 113.41C79.8308 113.897 73.9334 112.878 70.789 112.17Z" fill="#3887FE"/>
<path d="M72.6723 99.7242C71.871 101.332 71.4263 103.748 71.1665 106.197C77.5908 108.627 83.3258 108.621 87.1338 108.139C87.346 106.656 87.4787 105.233 87.4171 104.216C87.3639 103.337 87.0974 102.277 86.6897 101.194C80.7167 101.387 75.3603 100.361 72.6723 99.7242Z" fill="#3887FE"/>
<path d="M70.8813 123.951L71.6021 126.264L80.1398 132.416L82.3513 128.499C82.3513 128.499 83.8767 127.294 84.1052 126.39C84.1421 126.244 84.1623 126.079 84.1763 125.908C79.003 125.877 74.187 124.864 70.8813 123.951Z" fill="#263238"/>
<path d="M77.0589 234.633C77.0589 234.633 77.2454 229.783 78.1783 222.694C79.1113 215.605 76.8724 205.531 76.4994 203.852C76.1265 202.173 76.6859 198.442 76.313 197.136C75.94 195.83 74.1222 190.24 75.1952 183.756C76.2682 177.272 77.13 160.131 77.13 160.131C77.13 160.131 74.4381 157.941 73.6474 155.1C72.8561 152.258 73.462 151.354 73.462 151.354" stroke="#263238" stroke-width="1.004" stroke-miterlimit="10"/>
<path d="M78.306 151.598L77.27 157.336" stroke="#263238" stroke-width="1.004" stroke-miterlimit="10"/>
</svg>
