<svg width="301" height="301" viewBox="0 0 301 301" fill="none" xmlns="http://www.w3.org/2000/svg">
<path opacity="0.12" d="M275.465 211.916H44.1645C36.8484 211.916 30.8623 216.102 30.8623 221.219C30.8623 224.762 33.7337 227.858 37.9281 229.428H17.5602C10.2442 229.428 4.25806 233.614 4.25806 238.731C4.25806 243.848 10.2442 248.034 17.5602 248.034H24.6573C22.6752 249.66 21.4725 251.763 21.4725 254.053V257.775C21.4725 262.891 27.4583 267.078 34.7746 267.078H262.632C269.948 267.078 275.934 262.891 275.934 257.775V254.053C275.934 248.937 269.948 244.75 262.632 244.75L247.139 244.957C248.319 244.957 250.235 244.306 251.521 242.997C253.775 240.702 253.875 237.208 252.772 234.317C252.058 232.442 250.913 230.956 248.078 230.397L275.464 230.522C282.78 230.522 288.766 226.336 288.766 221.219C288.767 216.102 282.781 211.916 275.465 211.916Z" fill="#606060"/>
<path d="M174.636 72.2444L171.668 69.443L171.621 65.8444L170.853 65.4671L170.35 66.3933L169.456 63.4176L167.356 62.0206L164.219 63.2128L162.42 66.1767L163.934 69.1658L167.272 71.3428L171.169 75.3532L174.636 72.2444Z" fill="#EACDB0"/>
<path d="M174.35 68.8682L169.01 75.192L183.333 96.9471L188.664 98.6666L211.369 80.5599L205.297 68.1618L188.363 82.554L174.35 68.8682Z" fill="#FFBE9D"/>
<path d="M246.401 239.676L247.194 243.313L240.911 248.493L236.58 245.627L239.325 241.218L245.608 236.039L246.401 239.676Z" fill="#3A3029"/>
<path d="M224.428 127.84L231.439 144.007L232.1 189.495L246.516 238.423L239.813 241.396L210.395 184.583L207.047 166.589L205.716 128.691L224.428 127.84Z" fill="#8C9498"/>
<path d="M190.482 131.463L189.931 179.135L198.914 240.599H205.822L210.185 183.885L219.637 127.171L190.482 131.463Z" fill="#8C9498"/>
<path d="M205.782 239.777V243.512L198.312 247.247L194.578 243.512L198.312 239.777H205.782Z" fill="#3A3029"/>
<path d="M204.085 66.9128L222.433 66.2332C222.433 66.2332 233.41 75.8642 239.083 100.891C244.859 126.375 238.016 163.061 238.016 163.061C238.016 163.061 188.789 156.501 180.718 155.487L193.032 105.171L204.085 66.9128Z" fill="#FBBC04"/>
<path d="M210.66 68.7874C212.803 68.5778 214.946 68.3685 217.089 68.1588C217.112 66.442 216.997 64.7233 216.747 63.0249C218.534 62.3995 220.598 61.4607 220.912 59.5941C221.011 59.0062 220.91 58.4051 220.809 57.8174C220.393 55.3882 219.977 52.9588 219.56 50.5297C219.416 49.6896 219.263 48.8246 218.807 48.1043C218.007 46.8404 216.452 46.2858 214.979 46.0278C211.219 45.3698 207.119 46.1791 204.2 48.6382C203.423 49.2928 202.72 50.08 202.377 51.0361C201.847 52.5102 202.24 54.1377 202.635 55.6532C203.001 57.0521 203.366 58.4511 203.731 59.85C204.151 61.4591 204.759 63.2882 206.308 63.8933C207.13 64.2147 208.101 64.1225 208.846 64.5973C210.158 65.4345 209.979 67.3874 210.66 68.7874Z" fill="#EACDB0"/>
<path d="M189.726 44.5083C189.685 42.8428 189.919 41.158 190.252 39.6393C190.823 37.0297 193.902 35.857 196.567 35.6719C202.323 35.2725 207.877 32.6631 213.498 34.6773C216.711 35.8286 221.026 36.1048 223.934 37.7281C225.148 38.4059 226.116 39.4639 226.87 40.6321C229.483 44.6797 229.49 50.2556 226.887 54.3096C226.303 55.2193 225.605 56.0503 224.871 56.8439C223.352 58.4864 221.536 60.5155 219.449 61.1222C219.401 59.2559 221.109 53.3735 219.678 51.842C217.407 49.4118 212.263 50.2516 209.441 50.8452C206.362 51.493 203.616 53.6687 200.564 54.1302C198.368 54.4623 195.567 53.3818 193.702 52.2444C190.778 50.4623 189.802 47.5174 189.726 44.5083Z" fill="#3A3029"/>
<path d="M209.146 69.1813L189.856 146.338L188.275 156.457L212.308 159.62C212.308 159.62 211.359 122.672 211.676 117.745C211.992 112.819 215.556 102.164 216.103 90.684C216.419 84.0433 218.528 72.1158 217.051 68.2326L209.146 69.1813Z" fill="white"/>
<path d="M191.867 110.37L187.567 111.729L184.068 109.84L183.291 110.378L183.915 111.362L180.562 110.625L178.085 111.901L177.549 115.57L179.443 118.9L183.143 119.045L187.038 116.994L193.004 115.388L191.867 110.37Z" fill="#EACDB0"/>
<path d="M188.211 110.668C194.888 109.102 201.566 107.536 208.244 105.97C210.041 105.549 211.905 105.458 213.703 105.023C216.331 104.387 217.051 104.166 217.42 101.659C218.49 94.3949 217.13 86.858 218.227 79.7021C220.864 79.4401 223.41 78.815 226.103 78.8505C230.499 78.9086 230.118 81.9326 230.365 85.3019C230.658 89.2979 230.833 93.3067 230.86 97.3134C230.883 100.634 231.979 115.035 227.102 116.089C223.606 116.855 188.38 118.73 188.395 119.453C188.389 119.162 188.211 110.668 188.211 110.668Z" fill="#FFBE9D"/>
<path d="M114.356 79.004L116.827 76.6749L116.868 73.6808L117.507 73.3671L117.925 74.138L118.67 71.6628L120.418 70.5013L123.027 71.4949L124.523 73.9618L123.262 76.4481L120.484 78.2575L117.239 81.5923L114.356 79.004Z" fill="#EACDB0"/>
<path d="M115.137 75.3503L101.301 91.7489L81.2281 73.3695L77.38 89.0842L102.417 106.072L119.724 80.1273L115.137 75.3503Z" fill="#8AAD9F"/>
<path d="M54.7725 239.52L54.473 242.477L59.8458 246.164L62.9816 243.572L60.4452 240.25L55.0722 236.562L54.7725 239.52Z" fill="#514943"/>
<path d="M54.9067 149.1L53.9966 158.082L62.0538 188.941L54.5723 238.528L60.0795 240.426L74.6014 192.013L76.9059 177.929L76.822 148.114L54.9067 149.1Z" fill="#CAB5A1"/>
<path d="M97.2636 159.11L85.6797 242.202H80.4142L79.4666 188.941L69.8834 151.557L97.2636 159.11Z" fill="#CAB5A1"/>
<path d="M80.4447 241.545V244.53L86.1385 247.514L88.9856 244.53L86.1385 241.545H80.4447Z" fill="#514943"/>
<path d="M82.9693 74.6251C82.8626 74.4439 82.7516 74.2653 82.6353 74.0893C78.5008 67.8324 69.1407 71.7671 63.0105 71.7674C61.3332 89.4292 56.6955 106.262 53.7 123.603C50.5188 142.02 46.9369 160.368 42.9578 178.63C42.7324 179.664 58.7551 179.142 60.2664 179.168C75.6811 179.428 95.8591 179.375 110.733 174.714C101.24 149.23 97.7749 121.811 90.2998 95.6644C88.6514 89.8987 86.8655 84.2145 84.7575 78.6468C84.238 77.273 83.7123 75.8882 82.9693 74.6251Z" fill="#8AAD9F"/>
<path d="M77.3333 47.7519C81.2351 48.8193 84.3071 52.4302 84.7349 56.4527C86.8672 54.466 87.956 51.416 87.5632 48.5283C87.1707 45.6406 85.3071 42.992 82.7218 41.6468C80.3028 42.9305 78.4271 45.2021 77.6239 47.8203L77.3333 47.7519Z" fill="#9E6652"/>
<path d="M85.2704 52.9802C83.2543 42.3358 69.9554 44.1751 66.1404 52.7949C63.9709 57.6968 66.2436 64.6358 70.5835 68.0465C70.6765 68.9888 70.799 71.5888 71.5193 72.2187C72.2995 72.9011 74.7575 72.2508 75.7204 72.0278C75.9875 71.9661 76.2666 71.8893 76.4602 71.6952C76.7024 71.4524 76.7434 70.8019 76.7479 70.081C77.4549 70.0329 78.1789 69.8952 78.9161 69.6532C82.0091 68.6377 84.2495 65.7741 85.176 62.6529C86.1024 59.5318 85.8762 56.1789 85.2704 52.9802Z" fill="#EACDB0"/>
<path d="M65.223 79.1064C66.0524 79.161 66.8818 79.2155 67.7112 79.2698C69.6152 79.3949 71.6893 79.4749 73.2457 78.3709C73.5567 78.1503 73.8569 77.8489 73.8866 77.4687C73.9091 77.1792 73.77 76.9048 73.6404 76.6447C71.723 72.7968 71.1714 68.285 72.1056 64.0885C73.3577 58.4631 77.2029 55.0516 80.9064 50.9829C81.9233 49.8658 82.9754 48.6711 83.2864 47.1931C83.6299 45.558 82.9762 43.8321 81.8979 42.5562C80.2385 40.5925 78.2692 39.6155 75.7634 39.5556C67.2767 39.3529 58.4243 46.1257 55.454 53.9005C54.5176 56.3516 54.0374 58.9508 53.6388 61.5441C52.7885 67.073 52.2864 72.6554 52.1364 78.2471C56.4984 78.5334 60.8607 78.8198 65.223 79.1064Z" fill="#9E6652"/>
<path d="M140.513 136.141H77.8607V92.0853L109.187 74.661L140.513 92.0853V136.141Z" fill="#1DBF73"/>
<path d="M156.29 90.6345C151.273 87.8495 146.255 85.0642 141.237 82.2789C133.123 77.7749 125.009 73.2711 116.895 68.7671C114.935 67.6789 112.995 66.5326 111.005 65.4979C109.745 64.8425 108.468 64.8866 107.254 65.5698C106.479 66.0064 105.717 66.4682 104.948 66.9171C97.5359 71.2487 90.1236 75.5805 82.711 79.912C76.6974 83.4262 70.6177 86.8484 64.6616 90.4596C64.5629 90.5195 64.4621 90.5762 64.3624 90.6345C62.8546 91.5155 62.3196 93.5538 63.2017 95.0618C64.0867 96.5749 66.1145 97.1075 67.6289 96.2225C72.5067 93.3719 77.3846 90.5217 82.2624 87.6711C90.0001 83.1495 97.738 78.6278 105.476 74.1059C106.727 73.3749 107.978 72.6439 109.229 71.9128C113.777 74.4377 118.326 76.9626 122.875 79.4874C131.052 84.0267 139.23 88.5658 147.408 93.1051C149.28 94.1441 151.152 95.1832 153.024 96.2225C154.552 97.0706 156.555 96.5931 157.451 95.0618C158.321 93.5746 157.823 91.4856 156.29 90.6345Z" fill="#2E4661"/>
<path d="M102.059 105.401H86.7827V134.83H102.059V105.401Z" fill="#FFFFF1"/>
<path d="M120.683 105.401H112.373V112.487H120.683V105.401Z" fill="#FFFFF1"/>
<path d="M131.56 105.401H123.25V112.487H131.56V105.401Z" fill="#FFFFF1"/>
<path d="M120.683 115.099H112.373V122.185H120.683V115.099Z" fill="#FFFFF1"/>
<path d="M131.56 115.099H123.25V122.185H131.56V115.099Z" fill="#FFFFF1"/>
<path d="M69.5409 112.271L72.8879 113.898L75.9724 112.777L76.5419 113.31L75.9141 114.038L78.7409 113.84L80.6099 115.18L80.6056 118.24L78.6585 120.731L75.6206 120.404L72.6869 118.26L68.0088 116.231L69.5409 112.271Z" fill="#EACDB0"/>
<path d="M60.8051 107.218C59.465 106.017 58.6441 104.459 58.7992 102.349C58.942 100.406 59.6556 98.5594 60.2487 96.7035C62.1318 90.8126 62.8484 84.5513 62.3455 78.3874C61.8447 72.254 53.8735 78.7866 52.6415 81.3538C51.2759 84.1989 51.1011 87.4773 50.4457 90.5227C49.5658 94.612 48.8489 98.7364 48.2976 102.883C47.9487 105.506 46.4538 111.61 49.0083 113.489C49.6992 113.997 50.5366 114.257 51.3564 114.508C52.6444 114.902 68.1013 119.043 68.4546 118.3C68.4554 118.298 71.5674 111.743 71.5674 111.743C68.3872 110.624 63.5259 109.656 60.8051 107.218Z" fill="#8AAD9F"/>
</svg>
