<svg width="44" height="44" viewBox="0 0 44 44" fill="none" xmlns="http://www.w3.org/2000/svg">
<rect y="0.000518799" width="44" height="44" rx="8" fill="#1DBF73" fill-opacity="0.06"/>
<path d="M31.97 28.3305C31.97 28.6905 31.89 29.0605 31.72 29.4205C31.55 29.7805 31.33 30.1205 31.04 30.4405C30.55 30.9805 30.01 31.3705 29.4 31.6205C28.8 31.8705 28.15 32.0005 27.45 32.0005C26.43 32.0005 25.34 31.7605 24.19 31.2705C23.04 30.7805 21.89 30.1205 20.75 29.2905C19.6 28.4505 18.51 27.5205 17.47 26.4905C16.44 25.4505 15.51 24.3605 14.68 23.2205C13.86 22.0805 13.2 20.9405 12.72 19.8105C12.24 18.6705 12 17.5805 12 16.5405C12 15.8605 12.12 15.2105 12.36 14.6105C12.6 14.0005 12.98 13.4405 13.51 12.9405C14.15 12.3105 14.85 12.0005 15.59 12.0005C15.87 12.0005 16.15 12.0605 16.4 12.1805C16.66 12.3005 16.89 12.4805 17.07 12.7405L19.39 16.0105C19.57 16.2605 19.7 16.4905 19.79 16.7105C19.88 16.9205 19.93 17.1305 19.93 17.3205C19.93 17.5605 19.86 17.8005 19.72 18.0305C19.59 18.2605 19.4 18.5005 19.16 18.7405L18.4 19.5305C18.29 19.6405 18.24 19.7705 18.24 19.9305C18.24 20.0105 18.25 20.0805 18.27 20.1605C18.3 20.2405 18.33 20.3005 18.35 20.3605C18.53 20.6905 18.84 21.1205 19.28 21.6405C19.73 22.1605 20.21 22.6905 20.73 23.2205C21.27 23.7505 21.79 24.2405 22.32 24.6905C22.84 25.1305 23.27 25.4305 23.61 25.6105C23.66 25.6305 23.72 25.6605 23.79 25.6905C23.87 25.7205 23.95 25.7305 24.04 25.7305C24.21 25.7305 24.34 25.6705 24.45 25.5605L25.21 24.8105C25.46 24.5605 25.7 24.3705 25.93 24.2505C26.16 24.1105 26.39 24.0405 26.64 24.0405C26.83 24.0405 27.03 24.0805 27.25 24.1705C27.47 24.2605 27.7 24.3905 27.95 24.5605L31.26 26.9105C31.52 27.0905 31.7 27.3005 31.81 27.5505C31.91 27.8005 31.97 28.0505 31.97 28.3305Z" stroke="#1DBF73" stroke-width="1.5" stroke-miterlimit="10"/>
</svg>
