<svg width="261" height="260" viewBox="0 0 261 260" fill="none" xmlns="http://www.w3.org/2000/svg">
<g clip-path="url(#clip0_1_6742)">
<path d="M260.5 198.847H0.5V198.977H260.5V198.847Z" fill="#EBEBEB"/>
<path d="M234.448 207.217H223.175V207.347H234.448V207.217Z" fill="#EBEBEB"/>
<path d="M179.727 204.519H161.99V204.649H179.727V204.519Z" fill="#EBEBEB"/>
<path d="M229.878 202.388H206.725V202.518H229.878V202.388Z" fill="#EBEBEB"/>
<path d="M90.468 205.01H84.6763V205.14H90.468V205.01Z" fill="#EBEBEB"/>
<path d="M80.0463 205.01H60.084V205.14H80.0463V205.01Z" fill="#EBEBEB"/>
<path d="M49.3809 202.815H34.9795V202.945H49.3809V202.815Z" fill="#EBEBEB"/>
<path d="M130.5 222.332C186.183 222.332 231.322 219.696 231.322 216.444C231.322 213.192 186.183 210.556 130.5 210.556C74.8174 210.556 29.6777 213.192 29.6777 216.444C29.6777 219.696 74.8174 222.332 130.5 222.332Z" fill="#F5F7F9"/>
<path d="M135.915 190.058H69.5766C67.3848 190.058 65.5165 188.281 65.4036 186.089L59.4663 70.8828C59.3534 68.691 61.0388 66.9141 63.2306 66.9141H129.569C131.761 66.9141 133.629 68.691 133.742 70.8828L139.679 186.089C139.792 188.281 138.107 190.058 135.915 190.058Z" fill="#1DBF73"/>
<path opacity="0.8" d="M135.915 190.058H69.5766C67.3848 190.058 65.5165 188.281 65.4036 186.089L59.4663 70.8828C59.3534 68.691 61.0388 66.9141 63.2306 66.9141H129.569C131.761 66.9141 133.629 68.691 133.742 70.8828L139.679 186.089C139.792 188.281 138.107 190.058 135.915 190.058Z" fill="white"/>
<path d="M123.021 63.1566H115.684V63.6766H123.021V63.1566Z" fill="#1DBF73"/>
<path d="M113.142 63.1566H110.455V63.6766H113.142V63.1566Z" fill="#1DBF73"/>
<path d="M138.767 182.751H75.3215C73.2254 182.751 71.4382 181.052 71.3305 178.955L65.6521 68.7721C65.544 66.676 67.156 64.9766 69.2521 64.9766H132.698C134.794 64.9766 136.582 66.676 136.689 68.7721L142.368 178.955C142.475 181.052 140.863 182.751 138.767 182.751Z" fill="#1DBF73"/>
<path d="M138.767 180.216H75.3214C74.582 180.216 73.9002 179.566 73.8618 178.825L68.1834 68.6416C68.1631 68.2396 68.3253 67.9796 68.4652 67.8324C68.6041 67.6858 68.8536 67.5116 69.2525 67.5116H132.698C133.438 67.5116 134.12 68.1616 134.158 68.9026L139.837 179.086C139.857 179.488 139.695 179.748 139.555 179.896C139.415 180.042 139.165 180.216 138.767 180.216ZM69.2514 67.6416C68.8989 67.6416 68.68 67.794 68.5588 67.9219C68.4366 68.0508 68.2947 68.2791 68.3129 68.6348L73.9913 178.818C74.0261 179.493 74.6475 180.086 75.3209 180.086H138.767C139.119 180.086 139.338 179.934 139.459 179.806C139.581 179.677 139.724 179.448 139.706 179.092L134.027 68.9088C133.992 68.2334 133.371 67.6411 132.697 67.6411H69.2514V67.6416Z" fill="white"/>
<path opacity="0.3" d="M116.581 107.664C123.796 100.26 123.325 88.1003 115.53 80.5041C107.734 72.9078 95.566 72.752 88.3512 80.156C81.1364 87.56 81.607 99.7201 89.4025 107.316C97.1979 114.913 109.366 115.068 116.581 107.664Z" fill="white"/>
<path d="M118.006 93.9193C118.144 96.603 117.593 99.1224 116.509 101.321C114.137 106.164 109.174 109.458 103.267 109.458C97.3591 109.458 92.0566 106.164 89.1857 101.321C87.8753 99.1224 87.0646 96.603 86.9263 93.9193C86.4838 85.3356 93.0815 78.3796 101.665 78.3796C110.248 78.3796 117.563 85.3356 118.006 93.9193Z" fill="white"/>
<path d="M116.509 101.321C114.138 106.164 109.175 109.458 103.267 109.458C97.3594 109.458 92.057 106.164 89.186 101.321C92.9633 98.7074 97.5794 97.1818 102.634 97.1818C107.689 97.1818 112.463 98.708 116.509 101.321Z" fill="#1DBF73"/>
<path d="M107.279 93.5519C109.88 90.8835 109.71 86.5011 106.9 83.7635C104.091 81.0258 99.7056 80.9696 97.1055 83.638C94.5053 86.3063 94.675 90.6887 97.4844 93.4264C100.294 96.164 104.679 96.2202 107.279 93.5519Z" fill="#1DBF73"/>
<path d="M129.674 139.891H79.9968C79.1097 139.891 78.3536 139.172 78.3079 138.285L77.9314 130.985C77.8856 130.098 78.5679 129.379 79.455 129.379H129.133C130.02 129.379 130.776 130.098 130.822 130.985L131.198 138.285C131.243 139.172 130.562 139.891 129.674 139.891Z" fill="white"/>
<path opacity="0.3" d="M114.462 125.37H93.7141C92.827 125.37 92.0709 124.651 92.0251 123.764L91.945 122.214C91.8993 121.327 92.5815 120.608 93.4686 120.608H114.216C115.103 120.608 115.859 121.327 115.905 122.214L115.985 123.764C116.03 124.651 115.349 125.37 114.462 125.37Z" fill="#404145"/>
<path opacity="0.3" d="M122.177 174.88H91.1011C89.5905 174.88 88.3024 173.655 88.2249 172.144L88.0403 168.561C87.9623 167.05 89.124 165.825 90.6346 165.825H121.71C123.221 165.825 124.509 167.05 124.586 168.561L124.771 172.144C124.849 173.655 123.687 174.88 122.177 174.88Z" fill="#404145"/>
<path d="M130.581 157.486H80.9035C80.0164 157.486 79.2603 156.766 79.2146 155.879L78.8386 148.58C78.7928 147.692 79.4751 146.973 80.3622 146.973H130.04C130.927 146.973 131.683 147.692 131.729 148.58L132.105 155.879C132.15 156.766 131.468 157.486 130.581 157.486Z" fill="white"/>
<path d="M86.3145 134.635C86.365 135.617 85.6099 136.413 84.6282 136.413C83.6464 136.413 82.8092 135.617 82.7582 134.635C82.7078 133.653 83.4629 132.857 84.4446 132.857C85.4264 132.857 86.2636 133.653 86.3145 134.635Z" fill="#404145"/>
<path d="M91.7779 134.635C91.8283 135.617 91.0733 136.413 90.0915 136.413C89.1098 136.413 88.2726 135.617 88.2216 134.635C88.1712 133.653 88.9262 132.857 89.908 132.857C90.8897 132.857 91.7275 133.653 91.7779 134.635Z" fill="#404145"/>
<path d="M97.2418 134.635C97.2922 135.617 96.5372 136.413 95.5554 136.413C94.5736 136.413 93.7365 135.617 93.6855 134.635C93.6351 133.653 94.3901 132.857 95.3719 132.857C96.3536 132.857 97.1913 133.653 97.2418 134.635Z" fill="#404145"/>
<path d="M102.705 134.635C102.756 135.617 102.001 136.413 101.019 136.413C100.037 136.413 99.1998 135.617 99.1489 134.635C99.0984 133.653 99.8535 132.857 100.835 132.857C101.818 132.857 102.655 133.653 102.705 134.635Z" fill="#404145"/>
<path d="M87.2208 152.229C87.2712 153.212 86.5162 154.007 85.5344 154.007C84.5527 154.007 83.7155 153.211 83.6645 152.229C83.6141 151.248 84.3691 150.452 85.3509 150.452C86.3326 150.452 87.1703 151.247 87.2208 152.229Z" fill="#404145"/>
<path d="M92.6846 152.229C92.7351 153.212 91.98 154.007 90.9983 154.007C90.016 154.007 89.1793 153.211 89.1284 152.229C89.0779 151.248 89.833 150.452 90.8147 150.452C91.7965 150.452 92.6337 151.247 92.6846 152.229Z" fill="#404145"/>
<path d="M98.1485 152.229C98.1989 153.212 97.4439 154.007 96.4621 154.007C95.4804 154.007 94.6432 153.211 94.5922 152.229C94.5418 151.248 95.2968 150.452 96.2786 150.452C97.2609 150.451 98.0981 151.247 98.1485 152.229Z" fill="#404145"/>
<path d="M103.612 152.229C103.662 153.212 102.907 154.007 101.926 154.007C100.944 154.007 100.107 153.211 100.056 152.229C100.005 151.248 100.76 150.452 101.742 150.452C102.724 150.451 103.561 151.247 103.612 152.229Z" fill="#404145"/>
<path d="M109.076 152.229C109.126 153.212 108.371 154.007 107.389 154.007C106.408 154.007 105.57 153.211 105.519 152.229C105.469 151.248 106.224 150.452 107.206 150.452C108.188 150.452 109.025 151.247 109.076 152.229Z" fill="#404145"/>
<path d="M114.54 152.229C114.591 153.212 113.836 154.007 112.854 154.007C111.871 154.007 111.035 153.211 110.984 152.229C110.933 151.248 111.688 150.452 112.67 150.452C113.652 150.452 114.489 151.247 114.54 152.229Z" fill="#404145"/>
<path d="M173.676 91.8445C173.806 92.0374 173.873 92.1435 173.958 92.2823L174.191 92.6713C174.342 92.9287 174.474 93.1856 174.607 93.4424C174.867 93.9567 175.113 94.471 175.333 94.9915C175.778 96.031 176.144 97.0934 176.46 98.1625C177.101 100.299 177.492 102.489 177.692 104.681L177.732 105.091C177.74 105.15 177.745 105.243 177.749 105.339L177.761 105.619C177.767 105.988 177.749 106.354 177.698 106.7C177.6 107.397 177.412 108.041 177.182 108.636C176.714 109.822 176.072 110.829 175.383 111.746C173.973 113.572 172.372 115.033 170.542 116.328L169.11 114.65C170.395 113.164 171.641 111.517 172.563 109.872C173.034 109.052 173.394 108.206 173.618 107.417C173.723 107.023 173.779 106.644 173.788 106.303C173.8 106.13 173.788 105.97 173.771 105.819L173.756 105.708C173.752 105.674 173.748 105.636 173.734 105.566L173.669 105.2C173.329 103.248 172.864 101.331 172.255 99.4781C171.956 98.5494 171.587 97.6518 171.212 96.7704C171.026 96.3279 170.821 95.8989 170.611 95.4798L170.288 94.8688L170.128 94.5792L169.996 94.3524L173.676 91.8445Z" fill="#FFBE9D"/>
<path d="M168.822 116.362L170.705 120.337L172.198 116.976C172.198 116.976 170.874 114.064 169.083 114.33L168.822 116.362Z" fill="#FFBE9D"/>
<path d="M172.054 120.535L173.549 118.083L172.198 116.976L170.705 120.338L172.054 120.535Z" fill="#FFBE9D"/>
<path d="M163.589 212.273C163.992 212.273 164.432 212.19 164.74 212.117C164.78 212.107 164.81 212.075 164.818 212.035C164.825 211.994 164.807 211.953 164.773 211.931C164.624 211.832 163.301 210.979 162.794 211.208C162.714 211.244 162.613 211.324 162.589 211.498C162.556 211.729 162.614 211.914 162.76 212.047C162.945 212.216 163.255 212.273 163.589 212.273ZM164.448 211.97C163.69 212.122 163.119 212.095 162.899 211.894C162.805 211.808 162.77 211.688 162.793 211.527C162.805 211.44 162.846 211.411 162.879 211.396C163.146 211.273 163.909 211.644 164.448 211.97Z" fill="#3887FE"/>
<path d="M164.716 212.119C164.734 212.119 164.752 212.115 164.768 212.105C164.8 212.087 164.819 212.053 164.819 212.016C164.819 211.963 164.814 210.709 164.34 210.29C164.214 210.178 164.067 210.132 163.903 210.152C163.645 210.183 163.574 210.346 163.556 210.44C163.457 210.931 164.249 211.87 164.665 212.106C164.681 212.115 164.699 212.119 164.716 212.119ZM163.975 210.354C164.06 210.354 164.134 210.384 164.203 210.445C164.485 210.695 164.583 211.399 164.607 211.816C164.193 211.486 163.699 210.78 163.759 210.48C163.768 210.432 163.796 210.373 163.928 210.357C163.944 210.355 163.96 210.354 163.975 210.354Z" fill="#3887FE"/>
<path d="M158.679 210.151C158.703 210.125 158.712 210.087 158.702 210.052C158.689 210.01 158.652 209.981 158.608 209.978C158.392 209.968 156.523 209.89 156.102 210.345C156.093 210.355 156.084 210.365 156.077 210.376C156.006 210.471 155.991 210.582 156.032 210.698C156.102 210.893 156.229 211.02 156.411 211.077C157.017 211.265 158.082 210.586 158.664 210.165C158.669 210.161 158.674 210.156 158.679 210.151ZM156.258 210.481C156.489 210.23 157.518 210.162 158.291 210.175C157.481 210.724 156.812 210.985 156.473 210.88C156.354 210.843 156.274 210.761 156.227 210.63C156.209 210.579 156.213 210.538 156.242 210.5C156.247 210.493 156.252 210.487 156.258 210.481Z" fill="#3887FE"/>
<path d="M158.678 210.151C158.684 210.146 158.688 210.14 158.692 210.133C158.71 210.101 158.711 210.063 158.693 210.031C158.669 209.987 158.087 208.964 157.399 208.778C157.189 208.722 156.989 208.747 156.805 208.855C156.558 209 156.544 209.168 156.575 209.282C156.708 209.764 158.034 210.188 158.604 210.185C158.632 210.184 158.659 210.172 158.678 210.151ZM156.811 209.109C156.832 209.086 156.864 209.06 156.91 209.033C157.046 208.954 157.188 208.935 157.345 208.978C157.797 209.099 158.222 209.678 158.411 209.967C157.796 209.896 156.853 209.516 156.774 209.227C156.769 209.21 156.758 209.167 156.811 209.109Z" fill="#3887FE"/>
<path d="M164.403 76.6116C163.897 79.196 162.759 84.8344 164.567 86.5592C164.567 86.5592 163.86 89.181 159.058 89.181C153.777 89.181 156.534 86.5597 156.534 86.5597C159.417 85.8712 159.342 83.733 158.84 81.7248L164.403 76.6116Z" fill="#FFBE9D"/>
<path d="M155.603 70.5162C155.634 70.5162 155.665 70.5089 155.695 70.4943C155.797 70.4434 155.838 70.3196 155.787 70.2172C155.276 69.1969 154.33 69.0784 154.29 69.0737C154.177 69.0602 154.075 69.1423 154.062 69.2557C154.049 69.3685 154.13 69.4704 154.242 69.484C154.274 69.4876 155.009 69.588 155.418 70.4023C155.454 70.4746 155.527 70.5162 155.603 70.5162Z" fill="#404145"/>
<path d="M154.028 72.775C154.028 72.775 153.251 74.203 152.51 74.8467C152.917 75.3334 153.724 75.2336 153.724 75.2336L154.028 72.775Z" fill="#FFBE9D"/>
<path d="M154.415 72.2145C154.372 72.5634 154.152 72.8229 153.924 72.7948C153.696 72.7667 153.546 72.461 153.589 72.1126C153.633 71.7636 153.852 71.5042 154.08 71.5322C154.308 71.5603 154.458 71.8656 154.415 72.2145Z" fill="#404145"/>
<path d="M154.178 71.564L153.371 71.2192C153.371 71.2192 153.72 71.9259 154.178 71.564Z" fill="#404145"/>
<path d="M163.268 209.163L159.026 210.154L156.449 200.398L160.69 199.407L163.268 209.163Z" fill="#FFBE9D"/>
<path d="M169.781 212.016H165.426L165.767 201.93H170.123L169.781 212.016Z" fill="#FFBE9D"/>
<path d="M165.08 211.512H169.973C170.151 211.512 170.296 211.636 170.321 211.81L170.878 215.681C170.936 216.082 170.591 216.462 170.18 216.456C168.474 216.427 167.652 216.326 165.5 216.326C164.176 216.326 162.242 216.464 160.414 216.464C158.625 216.464 158.488 214.655 159.249 214.492C162.663 213.758 163.202 212.746 164.352 211.78C164.56 211.606 164.82 211.512 165.08 211.512Z" fill="#404145"/>
<path d="M158.65 209.504L163.096 207.459C163.258 207.384 163.441 207.436 163.536 207.583L165.661 210.868C165.881 211.208 165.726 211.698 165.35 211.863C163.788 212.549 162.999 212.802 161.043 213.701C159.841 214.255 157.41 215.524 155.749 216.288C154.125 217.035 153.244 215.45 153.867 214.983C156.662 212.89 157.459 211.409 158.1 210.05C158.217 209.806 158.414 209.613 158.65 209.504Z" fill="#404145"/>
<path opacity="0.2" d="M156.451 200.4L157.831 205.627L162.022 204.438L160.694 199.409L156.451 200.4Z" fill="#404145"/>
<path opacity="0.2" d="M170.124 201.933H165.766L165.593 207.132H169.95L170.124 201.933Z" fill="#404145"/>
<path d="M172.079 87.5488C173.889 87.9455 175.821 94.4549 175.821 94.4549L170.705 99.8946C170.705 99.8946 166.46 93.781 167.325 91.533C168.225 89.1914 169.94 87.0802 172.079 87.5488Z" fill="#404145"/>
<path opacity="0.4" d="M169.211 91.6916C168.295 90.8544 167.677 91.104 167.255 91.7696C166.839 93.704 169.304 97.7548 170.297 99.2888C170.755 97.4584 171.28 93.5948 169.211 91.6916Z" fill="#404145"/>
<path d="M149.172 87.6751C149.172 87.6751 147.097 88.4057 151.253 113.964C158.273 113.964 165.528 113.964 168.943 113.964C168.646 106.764 168.638 102.325 172.079 87.5488C172.079 87.5488 168.372 86.7422 164.567 86.5592C161.59 86.4157 159.151 86.3205 156.534 86.5597C153.084 86.8743 149.172 87.6751 149.172 87.6751Z" fill="#404145"/>
<path opacity="0.4" d="M149.014 97.4844C149.129 98.7272 149.279 100.126 149.477 101.707C150.926 100.402 152.11 96.6914 151.677 94.5261C150.663 95.2796 149.727 96.4444 149.014 97.4844Z" fill="#404145"/>
<path d="M150.902 93.6099C149.94 96.0409 148.879 98.3512 147.687 100.658C146.496 102.963 145.225 105.227 143.535 107.416L143.203 107.825L143.036 108.029C142.98 108.098 142.934 108.159 142.842 108.253C142.521 108.608 142.172 108.912 141.815 109.167C141.099 109.677 140.359 110.002 139.641 110.252C138.204 110.736 136.814 110.907 135.46 110.989C132.742 111.099 130.171 110.847 127.578 110.289L127.866 108.102C129.061 108.108 130.315 108.081 131.523 108.005C132.738 107.942 133.94 107.812 135.094 107.606C136.244 107.413 137.357 107.12 138.286 106.716C138.744 106.511 139.142 106.265 139.435 106.016C139.583 105.892 139.698 105.764 139.791 105.643C139.81 105.626 139.857 105.557 139.896 105.501L140.018 105.33L140.261 104.988C141.543 103.093 142.668 100.89 143.742 98.6892C144.797 96.4777 145.815 94.185 146.77 91.9474L150.902 93.6099Z" fill="#FFBE9D"/>
<path d="M149.171 87.6751C147.007 88.2029 144.343 94.1465 144.343 94.1465L148.837 100.748C148.837 100.748 154.819 93.2168 154.108 90.9152C153.366 88.5186 151.798 87.0345 149.171 87.6751Z" fill="#404145"/>
<path d="M129.112 108.426L125.364 106.696L124.987 110.421C124.987 110.421 128.119 111.343 129.664 110.399L129.112 108.426Z" fill="#FFBE9D"/>
<path d="M123.119 106.319L122.761 109.157L124.987 110.422L125.364 106.696L123.119 106.319Z" fill="#FFBE9D"/>
<path d="M166.286 72.4677C165.493 76.7172 165.248 78.533 162.814 80.4632C159.151 83.3669 154.105 81.4637 153.612 77.063C153.169 73.1016 154.54 66.8179 158.942 65.6323C163.279 64.4644 167.078 68.2183 166.286 72.4677Z" fill="#FFBE9D"/>
<path d="M156.951 73.3632C156.708 75.53 156.615 81.1595 161.375 81.3363C167.209 81.5532 168.955 76.5695 168.435 74.5763C171.468 72.1063 171.907 67.8595 168.496 64.6095C165.085 61.3595 157.576 63.1764 155.478 66.3426C152.878 70.2676 156.951 73.3632 156.951 73.3632Z" fill="#404145"/>
<path d="M162.793 65.8726C162.511 63.5872 162.73 62.01 164.867 62.01C167.005 62.01 169.93 62.7864 171.002 64.9766C172.075 67.1668 172.161 70.59 169.171 70.2432C166.181 69.8968 163.13 68.6083 162.793 65.8726Z" fill="#3887FE"/>
<path d="M166.108 65.3234C165.598 62.5971 168.027 54.9255 173.953 54.4268C176.697 54.1954 177.968 57.1496 176.531 57.6363C179.124 57.6046 180.795 61.0418 178.37 61.5592C180.287 62.7838 179.809 65.3037 177.079 66.5387C175.067 67.4487 166.813 69.096 166.108 65.3234Z" fill="#404145"/>
<path d="M172.438 68.251C170.532 68.251 168.538 67.9708 167.303 67.144C166.553 66.6416 166.142 65.976 166.08 65.1648C166.075 65.0931 166.129 65.0307 166.2 65.0255C166.276 65.0198 166.334 65.0738 166.34 65.1451C166.395 65.8726 166.767 66.4721 167.448 66.9276C169.801 68.5032 175.239 67.9931 176.943 67.4367C178.409 66.9583 179.402 66.0312 179.599 64.9568C179.743 64.1685 179.434 63.4218 178.728 62.8534C178.673 62.8082 178.663 62.7266 178.709 62.6704C178.753 62.6142 178.836 62.6059 178.892 62.6506C179.664 63.2726 180.015 64.13 179.855 65.0036C179.641 66.1736 178.583 67.1757 177.025 67.6842C176.132 67.9754 174.328 68.251 172.438 68.251Z" fill="#404145"/>
<path d="M155.624 72.7891C155.102 73.5124 154.952 74.4115 155.067 75.1369C155.241 76.2273 156.304 76.3001 157.074 75.6007C157.766 74.9715 158.511 73.6455 157.944 72.7418C157.385 71.8505 156.222 71.9623 155.624 72.7891Z" fill="#FFBE9D"/>
<path d="M155.925 113.964C155.925 113.964 158.453 143.859 161.075 160.708C163.194 174.316 164.864 206.125 164.864 206.125H170.804C170.804 206.125 172.916 175.267 171.841 161.807C169.12 127.748 175.188 124.974 168.943 113.964H155.925Z" fill="#3887FE"/>
<path opacity="0.4" d="M163.402 125.263C161.005 127.712 159.179 130.64 157.791 133.728C158.483 140.447 159.304 147.904 160.178 154.435C162.882 147.607 165.196 137.103 163.402 125.263Z" fill="#404145"/>
<path d="M151.767 113.775C151.767 113.775 146.284 146.425 145.417 161.142C147.571 174.751 156.38 203.515 156.38 203.515L161.783 201.558C161.783 201.558 158.794 170.192 155.526 161.605C162.842 136.971 168.219 130.745 166.655 113.964C162.923 113.964 151.767 113.775 151.767 113.775Z" fill="#3887FE"/>
<path d="M155.655 204.952L162.956 202.97L162.543 200.06L154.726 202.173L155.655 204.952Z" fill="#404145"/>
<path d="M164.051 206.243H171.617L172.014 203.589L164.008 203.318L164.051 206.243Z" fill="#404145"/>
<path d="M169.208 112.925L170.006 114.509C170.068 114.631 169.922 114.757 169.718 114.757H151.166C151.006 114.757 150.874 114.679 150.864 114.578L150.705 112.995C150.694 112.885 150.832 112.792 151.006 112.792H168.92C169.052 112.793 169.168 112.846 169.208 112.925Z" fill="#3887FE"/>
<path opacity="0.5" d="M169.208 112.925L170.006 114.509C170.068 114.631 169.922 114.757 169.718 114.757H151.166C151.006 114.757 150.874 114.679 150.864 114.578L150.705 112.995C150.694 112.885 150.832 112.792 151.006 112.792H168.92C169.052 112.793 169.168 112.846 169.208 112.925Z" fill="#404145"/>
<path d="M166.802 114.928H167.282C167.378 114.928 167.451 114.879 167.444 114.819L167.219 112.761C167.212 112.701 167.129 112.652 167.033 112.652H166.553C166.458 112.652 166.385 112.702 166.392 112.761L166.617 114.819C166.623 114.879 166.707 114.928 166.802 114.928Z" fill="#3887FE"/>
<path d="M160.362 99.775C160.245 99.775 160.142 99.6965 160.111 99.5831C158.415 93.315 154.889 88.1598 153.207 87.3647C153.019 87.2758 152.863 87.2503 152.769 87.2924C152.636 87.3517 152.484 87.2929 152.424 87.1619C152.366 87.0308 152.424 86.8769 152.554 86.8182C152.797 86.7084 153.091 86.7344 153.429 86.8941C155.224 87.7427 158.781 92.8392 160.56 99.2534C161.835 99.2373 163.802 99.0782 164.277 99.0382C164.871 98.332 169.232 92.8819 167.6 86.9196C167.562 86.7812 167.644 86.6382 167.782 86.6003C167.92 86.5623 168.064 86.6434 168.102 86.7823C169.918 93.4185 164.652 99.4016 164.599 99.4614C164.554 99.5108 164.493 99.5415 164.427 99.5472C164.401 99.5498 161.808 99.775 160.362 99.775Z" fill="#3887FE"/>
<path d="M168.976 103.451C166.142 98.1375 164.982 97.7662 164.475 96.058C164.475 96.058 164.932 94.7684 166.092 93.4627C165.744 93.366 165.008 93.2188 164.546 93.1299C164.599 92.8975 164.652 92.6676 164.705 92.4472C164.322 92.3406 163.526 92.4503 163.12 92.5184L163.102 91.9942C163.102 91.9942 161.664 91.7056 161.087 91.8663C161.144 92.1081 161.203 92.3598 161.261 92.6151C160.755 92.7129 159.948 92.8741 159.567 92.9802C160.671 94.2235 161.069 95.551 161.155 95.8786C159.628 98.502 153.688 115.384 163.347 116.653C173.012 117.923 171.81 108.764 168.976 103.451Z" fill="#3887FE"/>
<path opacity="0.4" d="M168.976 103.451C166.142 98.1375 164.982 97.7662 164.475 96.058C164.475 96.058 164.932 94.7684 166.092 93.4627C165.744 93.366 165.008 93.2188 164.546 93.1299C164.599 92.8975 164.652 92.6676 164.705 92.4472C164.322 92.3406 163.526 92.4503 163.12 92.5184L163.102 91.9942C163.102 91.9942 161.664 91.7056 161.087 91.8663C161.144 92.1081 161.203 92.3598 161.261 92.6151C160.755 92.7129 159.948 92.8741 159.567 92.9802C160.671 94.2235 161.069 95.551 161.155 95.8786C159.628 98.502 153.688 115.384 163.347 116.653C173.012 117.923 171.81 108.764 168.976 103.451Z" fill="white"/>
<path d="M160.794 95.3758C160.722 95.5048 160.729 95.9936 160.718 96.1886C160.707 96.3836 161.227 96.5136 161.812 96.5676C162.397 96.6217 164.813 96.7195 164.737 96.4486C164.661 96.1776 164.856 95.8095 164.867 95.5817C164.878 95.354 163.903 95.3436 163.09 95.3758C162.277 95.408 160.957 95.083 160.794 95.3758Z" fill="#3887FE"/>
<path d="M155.173 114.928H155.653C155.749 114.928 155.821 114.879 155.815 114.819L155.589 112.761C155.583 112.701 155.5 112.652 155.404 112.652H154.924C154.828 112.652 154.755 112.702 154.762 112.761L154.987 114.819C154.994 114.879 155.077 114.928 155.173 114.928Z" fill="#3887FE"/>
</g>
<defs>
<clipPath id="clip0_1_6742">
<rect width="260" height="260" fill="white" transform="translate(0.5)"/>
</clipPath>
</defs>
</svg>
