<svg width="20" height="21" viewBox="0 0 20 21" fill="none" xmlns="http://www.w3.org/2000/svg">
<path d="M9.99997 13.5C6.8299 13.5 4.01077 15.0306 2.21597 17.406C1.82968 17.9172 1.63653 18.1728 1.64285 18.5183C1.64773 18.7852 1.81533 19.1219 2.02534 19.2867C2.29716 19.5 2.67384 19.5 3.4272 19.5H16.5727C17.3261 19.5 17.7028 19.5 17.9746 19.2867C18.1846 19.1219 18.3522 18.7852 18.3571 18.5183C18.3634 18.1728 18.1703 17.9172 17.784 17.406C15.9892 15.0306 13.17 13.5 9.99997 13.5Z" stroke="#1DBF73" stroke-width="1.5" stroke-linecap="round" stroke-linejoin="round"/>
<path d="M9.99997 10.5C12.4853 10.5 14.5 8.48528 14.5 6C14.5 3.51472 12.4853 1.5 9.99997 1.5C7.51469 1.5 5.49997 3.51472 5.49997 6C5.49997 8.48528 7.51469 10.5 9.99997 10.5Z" stroke="#1DBF73" stroke-width="1.5" stroke-linecap="round" stroke-linejoin="round"/>
</svg>
