<svg width="261" height="260" viewBox="0 0 261 260" fill="none" xmlns="http://www.w3.org/2000/svg">
<g clip-path="url(#clip0_1_6517)">
<path d="M130.5 230.145C186.183 230.145 231.323 227.51 231.323 224.259C231.323 221.008 186.183 218.372 130.5 218.372C74.8172 218.372 29.6772 221.008 29.6772 224.259C29.6772 227.51 74.8172 230.145 130.5 230.145Z" fill="#F5F7F9"/>
<path d="M124.466 177.596H24.0587C22.4207 177.593 21.0947 176.264 21.0947 174.626V33.4828C21.1088 31.8552 22.4311 30.5422 24.0587 30.5396H124.466C126.105 30.5396 127.435 31.8687 127.435 33.5088V174.626C127.435 176.266 126.105 177.596 124.466 177.596ZM24.0587 30.6436C22.4925 30.6467 21.2247 31.9166 21.2247 33.4828V174.626C21.2247 176.193 22.4925 177.462 24.0587 177.466H124.466C126.032 177.463 127.302 176.193 127.305 174.626V33.4828C127.302 31.916 126.032 30.6462 124.466 30.6436H24.0587Z" fill="#E6E6E6"/>
<path d="M236.947 177.596H136.535C134.896 177.593 133.568 176.265 133.565 174.626V33.4828C133.583 31.8542 134.906 30.5422 136.535 30.5396H236.947C238.572 30.5453 239.891 31.8573 239.905 33.4828V174.626C239.905 176.262 238.583 177.59 236.947 177.596ZM136.535 30.6436C134.968 30.6467 133.698 31.916 133.695 33.4828V174.626C133.698 176.193 134.968 177.462 136.535 177.466H236.947C238.513 177.463 239.783 176.193 239.786 174.626V33.4828C239.783 31.916 238.513 30.6462 236.947 30.6436H136.535Z" fill="#E6E6E6"/>
<path d="M45.189 203.949H23.7598V204.079H45.189V203.949Z" fill="#E0E0E0"/>
<path d="M88.869 202.909H67.3774V203.039H88.869V202.909Z" fill="#E0E0E0"/>
<path d="M116.835 202.909H111.635V203.039H116.835V202.909Z" fill="#E0E0E0"/>
<path d="M64.8605 207.35H40.8105V207.48H64.8605V207.35Z" fill="#E0E0E0"/>
<path d="M148.045 203.882H136.813V204.012H148.045V203.882Z" fill="#E0E0E0"/>
<path d="M167.196 203.882H152.673V204.012H167.196V203.882Z" fill="#E0E0E0"/>
<path d="M237.241 206.081H204.772V206.211H237.241V206.081Z" fill="#E0E0E0"/>
<path d="M260.5 198.847H0.5V198.977H260.5V198.847Z" fill="#EBEBEB"/>
<g opacity="0.8">
<path d="M140.58 157.314L148.866 170.071L176.196 142.741C176.436 142.5 176.105 142.126 175.838 142.336L149.792 162.751L144.873 154.82L140.58 157.314Z" fill="#FF0000"/>
</g>
<path opacity="0.1" d="M135.625 66.5366L116.001 139.935H122.602L142.01 66.5366H135.625Z" fill="white"/>
<path opacity="0.1" d="M145.814 66.5366L126.189 139.935H139.284L158.692 66.5366H145.814Z" fill="white"/>
<path d="M216.461 132.764L220.601 73.8457C220.738 71.8994 219.263 70.3222 217.307 70.3243L114.485 70.4137C112.529 70.4153 110.832 71.995 110.695 73.9414L106.556 132.859C106.419 134.806 107.894 136.383 109.85 136.381L212.672 136.291C214.628 136.289 216.325 134.71 216.461 132.764Z" fill="#263238"/>
<path d="M215.142 131.479L219.282 72.5608C219.418 70.6144 217.944 69.0373 215.987 69.0394L113.166 69.1288C111.21 69.1304 109.513 70.7101 109.376 72.6565L105.236 131.575C105.1 133.521 106.574 135.098 108.531 135.096L211.352 135.007C213.308 135.005 215.005 133.425 215.142 131.479Z" fill="#1DBF73"/>
<path opacity="0.6" d="M212.416 132.348C212.27 132.485 212.015 132.649 211.64 132.649L108.818 132.738C108.127 132.739 107.562 132.137 107.611 131.45L111.751 72.5327C111.777 72.1625 111.956 71.9228 112.103 71.786C112.25 71.6492 112.503 71.486 112.879 71.4849L215.701 71.396C216.393 71.3955 216.957 71.9971 216.909 72.684L212.769 131.602C212.742 131.972 212.562 132.212 212.416 132.348Z" fill="white"/>
<path d="M178.215 99.9591H142.124C141.479 99.9591 140.902 100.479 140.835 101.12L140.283 106.398C140.216 107.039 140.684 107.559 141.328 107.559H177.419C178.063 107.559 178.641 107.039 178.708 106.398L179.26 101.12C179.327 100.479 178.859 99.9591 178.215 99.9591Z" fill="white"/>
<path d="M146.416 121.516H140.784C140.14 121.516 139.563 122.036 139.496 122.677L138.943 127.955C138.876 128.596 139.344 129.116 139.989 129.116H145.621C146.265 129.116 146.842 128.596 146.909 127.955L147.462 122.677C147.529 122.036 147.061 121.516 146.416 121.516Z" fill="white"/>
<path d="M156.141 121.516H150.509C149.865 121.516 149.287 122.036 149.22 122.677L148.668 127.955C148.601 128.596 149.069 129.116 149.713 129.116H155.345C155.99 129.116 156.567 128.596 156.634 127.955L157.186 122.677C157.254 122.036 156.786 121.516 156.141 121.516Z" fill="white"/>
<path d="M165.866 121.516H160.233C159.589 121.516 159.012 122.036 158.945 122.677L158.393 127.955C158.326 128.596 158.794 129.116 159.438 129.116H165.07C165.714 129.116 166.291 128.596 166.359 127.955L166.911 122.677C166.978 122.036 166.51 121.516 165.866 121.516Z" fill="white"/>
<path d="M175.59 121.516H169.958C169.313 121.516 168.736 122.036 168.669 122.677L168.117 127.955C168.05 128.596 168.518 129.116 169.162 129.116H174.794C175.438 129.116 176.016 128.596 176.083 127.955L176.635 122.677C176.702 122.036 176.234 121.516 175.59 121.516Z" fill="white"/>
<path d="M146.651 117.921H169.227C170.325 117.921 171.307 117.035 171.422 115.943L171.693 113.352C171.807 112.26 171.01 111.375 169.913 111.375H147.336C146.238 111.375 145.256 112.26 145.142 113.352L144.871 115.943C144.756 117.035 145.553 117.921 146.651 117.921Z" stroke="#1DBF73" stroke-miterlimit="10" stroke-linecap="round" stroke-linejoin="round"/>
<path d="M179.515 88.9689H143.424C142.78 88.9689 142.203 89.4889 142.136 90.13L141.584 95.4075C141.516 96.0487 141.984 96.5687 142.629 96.5687H178.72C179.364 96.5687 179.941 96.0487 180.008 95.4075L180.561 90.13C180.628 89.4889 180.16 88.9689 179.515 88.9689Z" fill="white"/>
<path d="M146.512 103.759C146.587 103.049 146.068 102.474 145.355 102.474C144.642 102.474 144.003 103.049 143.929 103.759C143.855 104.469 144.373 105.045 145.086 105.045C145.8 105.045 146.438 104.469 146.512 103.759Z" fill="#263238"/>
<path d="M150.482 103.759C150.556 103.049 150.038 102.474 149.325 102.474C148.611 102.474 147.973 103.049 147.898 103.759C147.824 104.469 148.342 105.045 149.055 105.045C149.769 105.045 150.408 104.469 150.482 103.759Z" fill="#263238"/>
<path d="M154.451 103.759C154.526 103.049 154.007 102.474 153.294 102.474C152.58 102.474 151.942 103.049 151.867 103.759C151.793 104.469 152.311 105.045 153.025 105.045C153.738 105.045 154.377 104.469 154.451 103.759Z" fill="#263238"/>
<path d="M158.421 103.759C158.495 103.049 157.977 102.474 157.264 102.474C156.551 102.474 155.912 103.049 155.838 103.759C155.763 104.469 156.282 105.045 156.995 105.045C157.708 105.045 158.347 104.469 158.421 103.759Z" fill="#263238"/>
<path d="M162.468 103.759C162.543 103.049 162.024 102.474 161.311 102.474C160.598 102.474 159.959 103.049 159.885 103.759C159.811 104.469 160.329 105.045 161.043 105.045C161.755 105.045 162.394 104.469 162.468 103.759Z" fill="#263238"/>
<path d="M147.813 92.769C147.888 92.0592 147.369 91.4836 146.656 91.4836C145.942 91.4836 145.304 92.0592 145.229 92.769C145.155 93.4788 145.673 94.0545 146.386 94.0545C147.1 94.055 147.739 93.4794 147.813 92.769Z" fill="#263238"/>
<path d="M151.783 92.769C151.857 92.0592 151.339 91.4836 150.625 91.4836C149.912 91.4836 149.273 92.0592 149.199 92.769C149.125 93.4788 149.643 94.0545 150.356 94.0545C151.07 94.055 151.709 93.4794 151.783 92.769Z" fill="#263238"/>
<path d="M155.752 92.769C155.826 92.0592 155.308 91.4836 154.595 91.4836C153.882 91.4836 153.243 92.0592 153.169 92.769C153.094 93.4788 153.613 94.0545 154.326 94.0545C155.039 94.055 155.678 93.4794 155.752 92.769Z" fill="#263238"/>
<path d="M159.722 92.769C159.796 92.0592 159.278 91.4836 158.565 91.4836C157.851 91.4836 157.213 92.0592 157.138 92.769C157.064 93.4788 157.583 94.0545 158.296 94.0545C159.009 94.0545 159.647 93.4794 159.722 92.769Z" fill="#263238"/>
<path d="M163.691 92.769C163.765 92.0592 163.246 91.4836 162.534 91.4836C161.82 91.4836 161.182 92.0592 161.107 92.769C161.033 93.4788 161.551 94.0545 162.265 94.0545C162.978 94.055 163.616 93.4794 163.691 92.769Z" fill="#263238"/>
<path d="M167.66 92.769C167.735 92.0592 167.216 91.4836 166.503 91.4836C165.79 91.4836 165.151 92.0592 165.077 92.769C165.003 93.4788 165.52 94.0545 166.234 94.0545C166.947 94.055 167.586 93.4794 167.66 92.769Z" fill="#263238"/>
<path d="M164.289 77.3302L164.007 79.9958C163.982 80.236 163.766 80.4305 163.524 80.4305C163.283 80.4305 163.108 80.2355 163.133 79.9958L163.415 77.3302C163.506 76.4696 162.876 75.7687 162.011 75.7687H161.052C160.188 75.7687 159.41 76.4696 159.319 77.3302L159.075 79.806H158.201L158.445 77.3302C158.586 75.9897 159.798 74.8987 161.144 74.8987H162.103C163.449 74.8987 164.43 75.9892 164.289 77.3302Z" fill="#1DBF73"/>
<path d="M164.306 79.898L163.758 85.0912C163.723 85.4199 163.429 85.6856 163.098 85.6856H157.88C157.551 85.6856 157.311 85.4199 157.346 85.0912L157.894 79.898C157.916 79.6858 158.048 79.4992 158.227 79.3946C158.325 79.3369 158.437 79.3036 158.554 79.3036H163.772C163.885 79.3036 163.987 79.3348 164.071 79.3889C164.234 79.4929 164.329 79.6817 164.306 79.898Z" fill="#1DBF73"/>
<path d="M205.021 68.6962L192.313 68.7716" stroke="#263238" stroke-miterlimit="10" stroke-linecap="round" stroke-linejoin="round"/>
<path d="M211.947 68.6618L207.456 68.6816" stroke="#263238" stroke-miterlimit="10" stroke-linecap="round" stroke-linejoin="round"/>
<path d="M45.5597 52.3448H48.5113C45.5405 52.3448 43.3003 54.7529 43.5083 57.7242L49.7733 147.319C49.9808 150.29 52.5579 152.699 55.5287 152.699H52.5771C49.6064 152.699 47.0298 150.29 46.8218 147.319L40.5563 57.7236C40.3488 54.7529 42.5885 52.3448 45.5597 52.3448Z" fill="#1DBF73"/>
<path d="M45.5597 52.3448H48.5113C45.5405 52.3448 43.3003 54.7529 43.5083 57.7242L49.7733 147.319C49.9808 150.29 52.5579 152.699 55.5287 152.699H52.5771C49.6064 152.699 46.6138 150.29 46.4058 147.319L40.1403 57.7236C39.9328 54.7529 42.5885 52.3448 45.5597 52.3448Z" fill="#263238"/>
<path d="M53.4571 152.698H89.5955C92.5663 152.698 94.8064 150.29 94.5984 147.319L88.3335 57.7236C88.1255 54.7529 85.5489 52.3442 82.5781 52.3442H46.4397C43.4689 52.3442 41.2287 54.7524 41.4367 57.7236L47.7017 147.319C47.9097 150.289 50.4863 152.698 53.4571 152.698Z" fill="#1DBF73"/>
<g opacity="0.6">
<path d="M82.4809 54.0706C84.5437 54.0706 86.3398 55.7502 86.4838 57.8141L92.7488 147.409C92.8158 148.37 92.5096 149.267 91.8861 149.936C91.2647 150.604 90.3947 150.971 89.4379 150.971H53.2995C51.2367 150.971 49.4411 149.292 49.2965 147.228L43.0311 57.6337C42.964 56.6732 43.2703 55.7752 43.8937 55.106C44.5151 54.4388 45.3851 54.0712 46.3419 54.0712L82.4809 54.0706Z" fill="white"/>
</g>
<path d="M54.1514 96.4101H80.3287" stroke="white" stroke-miterlimit="10" stroke-linecap="round" stroke-linejoin="round"/>
<path d="M57.5283 100.281H78.033" stroke="white" stroke-miterlimit="10" stroke-linecap="round" stroke-linejoin="round"/>
<path d="M54.9322 78.5606L54.9681 79.5891H54.2973L54.2614 78.5522L53.0737 76.686H53.7861L54.6057 77.9756L55.3347 76.686H55.9935L54.9322 78.5606Z" fill="#1DBF73"/>
<path d="M56.0211 78.1378C55.9904 77.2751 56.6388 76.6366 57.5545 76.6366C58.4656 76.6366 59.1634 77.2715 59.1936 78.1378C59.2243 79.0046 58.5711 79.639 57.6601 79.639C56.7449 79.639 56.0517 79 56.0211 78.1378ZM58.5145 78.1378C58.4952 77.5861 58.0922 77.2091 57.5748 77.2091C57.0569 77.2091 56.6809 77.5866 56.7002 78.1378C56.7194 78.6895 57.1219 79.067 57.6398 79.067C58.1577 79.0665 58.5337 78.689 58.5145 78.1378Z" fill="#1DBF73"/>
<path d="M59.6831 78.312L59.6265 76.6865H60.2973L60.3529 78.2876C60.3721 78.8393 60.6207 79.067 61.0268 79.067C61.4366 79.067 61.6649 78.8388 61.6456 78.2876L61.59 76.6865H62.2525L62.3091 78.312C62.3393 79.1664 61.8671 79.639 61.0429 79.639C60.2187 79.639 59.7133 79.1664 59.6831 78.312Z" fill="#1DBF73"/>
<path d="M64.8664 79.5891L64.2788 78.7805H64.2455H63.6616L63.6902 79.5891H63.0194L62.918 76.686H64.1727C64.9475 76.686 65.4457 77.0884 65.4686 77.7395C65.4842 78.1747 65.2762 78.4945 64.9044 78.6562L65.5876 79.5891H64.8664ZM64.1545 77.2335H63.607L63.6423 78.2454H64.1894C64.5991 78.2454 64.7998 78.0546 64.7884 77.7395C64.7775 77.4202 64.5638 77.2335 64.1545 77.2335Z" fill="#1DBF73"/>
<path d="M67.0049 78.1378C66.9743 77.2626 67.6232 76.6366 68.526 76.6366C69.0272 76.6366 69.4521 76.8191 69.737 77.1508L69.32 77.5492C69.1177 77.325 68.8697 77.2091 68.5795 77.2091C68.0366 77.2091 67.6648 77.5902 67.6841 78.1378C67.7033 78.6854 68.1016 79.067 68.6445 79.067C68.9347 79.067 69.1749 78.9506 69.3611 78.7228L69.8057 79.1211C69.5441 79.457 69.1323 79.6396 68.6268 79.6396C67.7288 79.639 67.0356 79.0124 67.0049 78.1378Z" fill="#1DBF73"/>
<path d="M69.9815 78.1378C69.9508 77.2751 70.5998 76.6366 71.515 76.6366C72.426 76.6366 73.1239 77.2715 73.154 78.1378C73.1847 79.0046 72.5316 79.639 71.6205 79.639C70.7053 79.639 70.0122 79 69.9815 78.1378ZM72.4749 78.1378C72.4557 77.5861 72.0527 77.2091 71.5353 77.2091C71.0173 77.2091 70.6414 77.5866 70.6606 78.1378C70.6799 78.6895 71.0823 79.067 71.6003 79.067C72.1177 79.0665 72.4942 78.689 72.4749 78.1378Z" fill="#1DBF73"/>
<path d="M73.6118 76.686H74.929C75.8769 76.686 76.5472 77.2585 76.5784 78.1378C76.6096 79.0171 75.9789 79.5896 75.0304 79.5896H73.7132L73.6118 76.686ZM74.9779 79.0374C75.5535 79.0374 75.9185 78.6932 75.8988 78.1378C75.8795 77.5824 75.4906 77.2382 74.9144 77.2382H74.3013L74.3643 79.0379H74.9779V79.0374Z" fill="#1DBF73"/>
<path d="M79.3627 79.0499L79.3814 79.5891H77.1366L77.0352 76.686H79.2264L79.2452 77.2252H77.7205L77.7424 77.8554H79.0886L79.1074 78.378H77.7611L77.7845 79.0499H79.3627Z" fill="#1DBF73"/>
<path d="M59.976 90.3791L59.9968 91.546H54.5227L54.5066 90.6235L57.4067 87.8233C58.1159 87.1338 58.2361 86.6986 58.2283 86.2857C58.2168 85.6066 57.7426 85.214 56.8305 85.214C56.1093 85.214 55.5092 85.4578 55.1046 85.9882L54.126 85.2457C54.6855 84.4714 55.7068 84.0154 56.9267 84.0154C58.5392 84.0154 59.5933 84.8318 59.6161 86.1474C59.6286 86.8686 59.4388 87.5264 58.4264 88.4915L56.4759 90.3796L59.976 90.3791Z" fill="#263238"/>
<path d="M66.0256 89.3188C66.0474 90.5705 65.1224 91.6521 63.1276 91.6521C62.0772 91.6521 61.0216 91.3338 60.3228 90.793L60.8979 89.7213C61.4356 90.1664 62.2473 90.4535 63.085 90.4535C64.0714 90.4535 64.6476 90.0182 64.6351 89.3292C64.6237 88.6605 64.1276 88.2258 63.0034 88.2258H62.3242L62.3081 87.282L63.9591 85.2774H60.5859L60.5661 84.1214H65.6262L65.6418 85.0439L63.8759 87.1868C65.2804 87.3668 66.0058 88.2045 66.0256 89.3188Z" fill="#263238"/>
<path d="M72.954 89.414C72.9784 90.793 71.7944 91.6521 69.9484 91.6521C68.1024 91.6521 66.9105 90.793 66.8861 89.414C66.872 88.5971 67.2854 87.9928 68.0431 87.6429C67.4435 87.3137 67.105 86.7833 67.093 86.0834C67.0707 84.8104 68.1705 84.0148 69.8147 84.0148C71.4699 84.0148 72.6082 84.8104 72.6305 86.0834C72.6425 86.7833 72.3128 87.3137 71.7138 87.6429C72.4943 87.9928 72.9399 88.5971 72.954 89.414ZM71.5635 89.3719C71.5505 88.6397 70.9062 88.1837 69.8875 88.1837C68.8694 88.1837 68.2615 88.6397 68.2745 89.3719C68.2875 90.1248 68.911 90.5705 69.9291 90.5705C70.9478 90.57 71.5765 90.1243 71.5635 89.3719ZM68.4518 86.1468C68.4627 86.7833 69.0004 87.1863 69.8704 87.1863C70.7507 87.1863 71.2853 86.7833 71.2738 86.1468C71.2624 85.4786 70.6826 85.0964 69.834 85.0964C68.9848 85.097 68.4398 85.4786 68.4518 86.1468Z" fill="#263238"/>
<path d="M79.8705 89.414C79.8949 90.793 78.7109 91.6521 76.8649 91.6521C75.0189 91.6521 73.827 90.793 73.8026 89.414C73.7886 88.5971 74.2019 87.9928 74.9596 87.6429C74.36 87.3137 74.0215 86.7833 74.0095 86.0834C73.9872 84.8104 75.087 84.0148 76.7312 84.0148C78.3864 84.0148 79.5247 84.8104 79.547 86.0834C79.5595 86.7833 79.2293 87.3137 78.6303 87.6429C79.4108 87.9928 79.8559 88.5971 79.8705 89.414ZM78.48 89.3719C78.467 88.6397 77.8227 88.1837 76.804 88.1837C75.7859 88.1837 75.178 88.6397 75.191 89.3719C75.204 90.1248 75.8275 90.5705 76.8456 90.5705C77.8643 90.57 78.493 90.1243 78.48 89.3719ZM75.3678 86.1468C75.3792 86.7833 75.9164 87.1863 76.7863 87.1863C77.6667 87.1863 78.2013 86.7833 78.1898 86.1468C78.1784 85.4786 77.5986 85.0964 76.7494 85.0964C75.9013 85.097 75.3563 85.4786 75.3678 86.1468Z" fill="#263238"/>
<path d="M40.3936 65.3307L41.3155 77.8996" stroke="#1DBF73" stroke-miterlimit="10" stroke-linecap="round" stroke-linejoin="round"/>
<path d="M39.9736 59.605L40.217 62.9221" stroke="#1DBF73" stroke-miterlimit="10" stroke-linecap="round" stroke-linejoin="round"/>
<path d="M64.6523 47.1084V39.456" stroke="#1DBF73" stroke-miterlimit="10" stroke-linecap="round" stroke-linejoin="round"/>
<path d="M58.5946 48.7271L54.77 42.1044" stroke="#1DBF73" stroke-miterlimit="10" stroke-linecap="round" stroke-linejoin="round"/>
<path d="M74.5341 42.1044L70.7095 48.7302" stroke="#1DBF73" stroke-miterlimit="10" stroke-linecap="round" stroke-linejoin="round"/>
<path d="M163.724 182.915C161.096 193.444 160.029 204.362 160.568 215.201" stroke="#1DBF73" stroke-miterlimit="10"/>
<path d="M161.795 182.454L161.795 182.454C161.805 182.867 162.011 183.912 162.344 184.864C162.509 185.336 162.694 185.75 162.881 186.034C162.974 186.177 163.054 186.266 163.115 186.314C163.128 186.325 163.139 186.333 163.148 186.338C163.156 186.333 163.167 186.325 163.18 186.313C163.238 186.262 163.314 186.169 163.4 186.022C163.572 185.729 163.737 185.307 163.879 184.827C164.166 183.86 164.321 182.806 164.311 182.393C164.295 181.699 163.718 181.149 163.023 181.166L161.795 182.454ZM161.795 182.454C161.778 181.76 162.328 181.183 163.023 181.166L161.795 182.454ZM163.128 186.35C163.128 186.35 163.129 186.349 163.13 186.349L163.128 186.35ZM163.167 186.348C163.168 186.348 163.168 186.349 163.168 186.349L163.167 186.348Z" fill="white" stroke="#1DBF73"/>
<path d="M162.061 193.455L162.061 193.455C162.051 193.042 162.206 191.988 162.493 191.021C162.635 190.542 162.8 190.119 162.972 189.826C163.059 189.679 163.134 189.587 163.192 189.535C163.206 189.524 163.216 189.516 163.224 189.51C163.233 189.515 163.244 189.523 163.257 189.534C163.318 189.582 163.398 189.671 163.491 189.814C163.678 190.098 163.863 190.512 164.028 190.984C164.361 191.936 164.567 192.981 164.577 193.394C164.594 194.088 164.044 194.665 163.349 194.683C162.655 194.699 162.078 194.15 162.061 193.455ZM163.244 189.499C163.244 189.499 163.244 189.499 163.243 189.499L163.244 189.499ZM163.205 189.5C163.204 189.5 163.204 189.5 163.204 189.5L163.205 189.5Z" fill="white" stroke="#1DBF73"/>
<path d="M161.6 187.962C161.594 187.954 161.586 187.943 161.575 187.93C161.523 187.872 161.431 187.796 161.284 187.71C160.99 187.538 160.568 187.373 160.089 187.231C159.122 186.944 158.068 186.789 157.655 186.799L161.6 187.962ZM161.6 187.962C161.595 187.971 161.587 187.982 161.576 187.995C161.528 188.056 161.439 188.136 161.296 188.23C161.012 188.416 160.598 188.601 160.126 188.766C159.174 189.099 158.128 189.305 157.716 189.315C157.021 189.332 156.444 188.782 156.427 188.087L161.6 187.962ZM161.61 187.942C161.61 187.942 161.61 187.942 161.61 187.943L161.61 187.942ZM161.611 187.98C161.611 187.981 161.611 187.982 161.611 187.982L161.611 187.98ZM156.427 188.087C156.411 187.393 156.96 186.816 157.655 186.799L156.427 188.087Z" fill="white" stroke="#1DBF73"/>
<path d="M164.761 187.906C164.761 187.906 164.761 187.905 164.761 187.905L164.761 187.906ZM164.771 187.886C164.776 187.877 164.784 187.866 164.795 187.853C164.843 187.792 164.932 187.712 165.075 187.619C165.359 187.432 165.773 187.247 166.245 187.082C167.197 186.749 168.242 186.543 168.655 186.533C169.35 186.516 169.927 187.066 169.944 187.761C169.96 188.455 169.411 189.032 168.716 189.049C168.303 189.059 167.249 188.904 166.282 188.617C165.803 188.475 165.38 188.31 165.087 188.138C164.94 188.051 164.848 187.975 164.796 187.917C164.785 187.904 164.777 187.894 164.771 187.886ZM164.76 187.867C164.76 187.866 164.76 187.866 164.76 187.866L164.76 187.867Z" fill="white" stroke="#1DBF73"/>
<path d="M158.291 183.261L158.291 183.261C157.812 183.764 157.831 184.561 158.334 185.04L158.291 183.261ZM158.291 183.261C158.771 182.758 159.567 182.738 160.07 183.218C160.369 183.502 161.005 184.358 161.486 185.244C161.724 185.684 161.906 186.099 161.992 186.428C162.034 186.593 162.046 186.712 162.042 186.79C162.041 186.807 162.039 186.82 162.037 186.83M158.291 183.261L162.037 186.83M162.037 186.83C162.027 186.832 162.014 186.835 161.997 186.837C161.92 186.845 161.8 186.839 161.633 186.804C161.3 186.735 160.877 186.573 160.426 186.356C159.518 185.919 158.633 185.325 158.334 185.04L162.037 186.83ZM162.059 186.823C162.059 186.823 162.058 186.823 162.057 186.824L162.059 186.823ZM162.032 186.851C162.031 186.852 162.031 186.852 162.031 186.852L162.032 186.851Z" fill="white" stroke="#1DBF73"/>
<path d="M168.08 192.587L168.08 192.587C168.559 192.084 168.54 191.288 168.037 190.808C167.738 190.523 166.854 189.93 165.945 189.492C165.494 189.275 165.071 189.113 164.738 189.044C164.571 189.009 164.451 189.003 164.374 189.012C164.357 189.013 164.344 189.016 164.334 189.018C164.332 189.028 164.331 189.041 164.33 189.058C164.325 189.136 164.337 189.255 164.38 189.42C164.465 189.749 164.647 190.164 164.886 190.604C165.366 191.49 166.002 192.345 166.301 192.63L168.08 192.587ZM168.08 192.587C167.601 193.09 166.804 193.11 166.301 192.63L168.08 192.587ZM164.34 188.996C164.34 188.996 164.34 188.996 164.34 188.997L164.34 188.996ZM164.314 189.024C164.313 189.025 164.312 189.025 164.312 189.025L164.314 189.024Z" fill="white" stroke="#1DBF73"/>
<path d="M158.522 192.818L158.522 192.818C159.026 193.298 159.822 193.279 160.302 192.775M158.522 192.818L158.479 191.039C158.764 190.74 159.619 190.104 160.505 189.624C160.945 189.385 161.36 189.203 161.689 189.118C161.854 189.075 161.973 189.063 162.051 189.068C162.068 189.069 162.082 189.071 162.091 189.072C162.094 189.082 162.096 189.095 162.098 189.113C162.106 189.19 162.1 189.309 162.066 189.476C161.996 189.809 161.834 190.232 161.617 190.683C161.18 191.592 160.586 192.477 160.302 192.775M158.522 192.818C158.019 192.339 158 191.542 158.479 191.039L158.522 192.818ZM160.302 192.775L160.664 193.12L160.302 192.775ZM162.113 189.078C162.113 189.078 162.113 189.078 162.112 189.078L162.113 189.078ZM162.085 189.052C162.084 189.051 162.084 189.051 162.084 189.051L162.085 189.052Z" fill="white" stroke="#1DBF73"/>
<path d="M167.892 184.809L167.892 184.809C167.607 185.108 166.752 185.743 165.865 186.224C165.426 186.463 165.011 186.645 164.681 186.73C164.516 186.773 164.397 186.785 164.32 186.78C164.302 186.779 164.289 186.778 164.28 186.776C164.277 186.766 164.275 186.753 164.273 186.736C164.264 186.659 164.271 186.539 164.305 186.372C164.375 186.039 164.537 185.616 164.754 185.165C165.191 184.256 165.785 183.372 166.069 183.073C166.549 182.57 167.345 182.55 167.849 183.03L167.849 183.03C168.352 183.509 168.371 184.306 167.892 184.809ZM164.257 186.77C164.257 186.77 164.258 186.77 164.259 186.77L164.257 186.77ZM164.286 186.796C164.286 186.797 164.287 186.798 164.287 186.798L164.286 186.796Z" fill="white" stroke="#1DBF73"/>
<path d="M161.604 187.963L161.604 187.963C161.582 187.088 162.273 186.363 163.147 186.343L163.147 186.343C164.02 186.321 164.746 187.013 164.767 187.887C164.789 188.76 164.097 189.486 163.224 189.507L163.223 189.507C162.35 189.528 161.624 188.837 161.604 187.963Z" fill="white" stroke="#1DBF73"/>
<path d="M164.577 201.825C163.768 202.434 162.725 202.866 161.364 202.941C161.375 202.863 161.387 202.777 161.401 202.686C161.478 202.191 161.609 201.528 161.826 200.843C162.276 199.424 163.027 198.125 164.218 197.781C165.718 197.349 166.756 196.836 167.427 196.422C167.43 196.421 167.432 196.419 167.435 196.418C167.429 196.451 167.423 196.485 167.417 196.52C167.285 197.263 167.041 198.244 166.592 199.216C166.143 200.188 165.499 201.132 164.577 201.825Z" fill="white" stroke="#1DBF73"/>
<path opacity="0.5" d="M164.577 201.825C163.768 202.434 162.725 202.866 161.364 202.941C161.375 202.863 161.387 202.777 161.401 202.686C161.478 202.191 161.609 201.528 161.826 200.843C162.276 199.424 163.027 198.125 164.218 197.781C165.718 197.349 166.756 196.836 167.427 196.422C167.43 196.421 167.432 196.419 167.435 196.418C167.429 196.451 167.423 196.485 167.417 196.52C167.285 197.263 167.041 198.244 166.592 199.216C166.143 200.188 165.499 201.132 164.577 201.825Z" fill="white" stroke="#1DBF73"/>
<path d="M153.791 200.483C153.797 200.517 153.803 200.551 153.809 200.585C153.941 201.328 154.185 202.309 154.634 203.281C155.082 204.253 155.727 205.197 156.649 205.891C157.458 206.499 158.501 206.931 159.862 207.007C159.851 206.928 159.839 206.843 159.825 206.751C159.748 206.257 159.617 205.593 159.4 204.908C158.95 203.489 158.199 202.19 157.008 201.847L153.791 200.483ZM153.791 200.483C153.794 200.485 153.796 200.486 153.799 200.488C154.47 200.902 155.508 201.415 157.008 201.847L153.791 200.483Z" fill="white" stroke="#1DBF73"/>
<path opacity="0.5" d="M153.791 200.483C153.797 200.517 153.803 200.551 153.809 200.585C153.941 201.328 154.185 202.309 154.634 203.281C155.082 204.253 155.727 205.197 156.649 205.891C157.458 206.499 158.501 206.931 159.862 207.007C159.851 206.928 159.839 206.843 159.825 206.751C159.748 206.257 159.617 205.593 159.4 204.908C158.95 203.489 158.199 202.19 157.008 201.847L153.791 200.483ZM153.791 200.483C153.794 200.485 153.796 200.486 153.799 200.488C154.47 200.902 155.508 201.415 157.008 201.847L153.791 200.483Z" fill="white" stroke="#1DBF73"/>
<path d="M152.97 213.644L152.97 213.644L152.971 213.643C154.082 212.899 155.445 212.318 156.971 211.969H163.837C165.41 212.333 166.807 212.934 167.932 213.707L167.933 213.707C169.829 215.003 170.923 216.727 170.923 218.578C170.923 220.436 169.818 222.173 167.914 223.468C166.013 224.761 163.36 225.576 160.405 225.576C157.447 225.576 154.793 224.761 152.893 223.468C150.99 222.173 149.886 220.436 149.886 218.578C149.886 216.699 151.018 214.939 152.97 213.644Z" fill="white" stroke="#1DBF73"/>
<path opacity="0.8" d="M167.932 213.707L167.933 213.707C169.829 215.003 170.923 216.727 170.923 218.578C170.923 220.436 169.818 222.173 167.914 223.468C166.013 224.761 163.36 225.576 160.405 225.576C157.447 225.576 154.793 224.761 152.893 223.468C150.99 222.173 149.886 220.436 149.886 218.578C149.886 216.699 151.018 214.939 152.97 213.644L152.97 213.644L152.971 213.643C154.082 212.899 155.445 212.318 156.971 211.969H163.837C165.41 212.333 166.807 212.934 167.932 213.707Z" fill="white" stroke="#FBBC04"/>
<path d="M160.436 212.144C160.436 213.38 160.436 214.616 160.436 215.851" stroke="#1DBF73" stroke-miterlimit="10"/>
<path d="M153.062 212.695L152.793 211.854H168.014L167.744 212.695H153.062Z" fill="white" stroke="#FF0000"/>
<path d="M170.122 220.084C169.06 221.618 167.548 222.843 165.89 223.723C163.243 225.127 152.109 225.49 150.839 219.173C150.821 219.085 150.792 219 150.775 218.911C150.472 217.258 151.942 215.788 153.615 215.955C154.654 216.059 155.738 215.936 156.771 215.779C160.754 215.172 164.861 215.394 168.756 216.421C170.348 216.841 171.059 218.73 170.122 220.084Z" fill="#CCCCCC"/>
<path d="M90.2053 217.983C90.4003 217.914 90.5298 217.76 90.5906 217.526C90.6364 217.35 90.5703 217.235 90.5069 217.169C90.106 216.75 88.4794 217.047 88.2953 217.082C88.2527 217.091 88.2194 217.122 88.21 217.164C88.2007 217.206 88.2178 217.249 88.2527 217.274C88.5226 217.465 88.9167 217.717 89.3083 217.875C89.6338 218.006 89.9572 218.072 90.2053 217.983ZM90.3488 217.315C90.3753 217.342 90.4029 217.385 90.38 217.473C90.3379 217.637 90.2562 217.737 90.1309 217.783C89.8361 217.889 89.2719 217.69 88.5954 217.247C89.249 217.147 90.1382 217.092 90.3488 217.315Z" fill="#3887FE"/>
<path d="M88.3296 217.292C88.8272 217.23 89.9722 216.643 90.0726 216.135C90.0918 216.038 90.0887 215.855 89.85 215.724C89.6992 215.64 89.5375 215.626 89.3706 215.684C88.743 215.899 88.237 217.096 88.2152 217.147C88.2006 217.182 88.2058 217.222 88.2292 217.252C88.2412 217.267 88.2568 217.279 88.2739 217.286C88.2916 217.292 88.3103 217.294 88.3296 217.292ZM89.744 215.909C89.8656 215.976 89.8698 216.043 89.8594 216.093C89.798 216.403 89.0362 216.884 88.5017 217.038C88.6915 216.648 89.0669 216.013 89.4413 215.884C89.5323 215.853 89.6171 215.854 89.6992 215.887C89.7143 215.894 89.7294 215.901 89.744 215.909Z" fill="#3887FE"/>
<path d="M83.3926 215.197L87.6259 216.908L91.3205 207.126L87.0872 205.416L83.3926 215.197Z" fill="#FFBE9D"/>
<path d="M88.1625 216.561L83.4066 214.639C83.2334 214.569 83.0436 214.631 82.95 214.787L80.8627 218.271C80.6464 218.632 80.83 219.131 81.2319 219.286C82.9016 219.928 83.7409 220.155 85.8324 221C87.1188 221.52 88.944 222.411 90.7209 223.129C92.4587 223.832 93.3141 222.157 92.6397 221.701C89.6154 219.658 89.4953 218.479 88.7636 217.103C88.631 216.855 88.4157 216.663 88.1625 216.561Z" fill="#263238"/>
<path d="M91.2663 211.925L83.9141 208.954L84.5875 206.259L92.4759 209.145L91.2663 211.925Z" fill="#3887FE"/>
<path d="M98.6272 98.7142C97.1358 103.032 92.7194 113.203 89.3171 108.967C88.7097 108.21 88.1918 107.391 87.8309 106.491C86.3864 102.927 86.0312 97.1552 85.8482 95.8937L84.6891 91.937C84.6688 91.8689 84.6584 91.7977 84.6579 91.727L84.6392 89.4676C84.6392 88.5518 85.377 88.0074 86.3765 88.0911C86.3765 88.0911 87.9885 87.9029 87.9885 88.8659L88.3026 92.2568H88.2922C88.4544 93.4398 87.9833 95.083 88.261 96.1662C89.2973 100.238 90.7304 100.421 91.6306 104.623C92.8812 101.593 95.1265 96.344 95.1265 96.344C96.6387 96.5318 99.1191 97.2904 98.6272 98.7142Z" fill="#FFBE9D"/>
<path d="M93.2947 110.518C92.2786 112.085 89.9927 112.175 88.8908 110.668C88.2174 109.747 87.6839 108.731 87.452 107.967C86.1015 103.534 85.2643 100.786 85.1494 96.1548C86.0917 95.1761 87.6246 94.81 88.9069 95.265L91.1206 102.77C91.1206 102.77 95.6316 91.5637 97.4526 91.1607C99.6033 90.6896 100.498 92.6063 101.404 94.9666C102.056 96.6654 96.2327 105.985 93.2947 110.518Z" fill="#3887FE"/>
<path d="M111.51 79.9474C111 82.5484 109.854 88.2227 111.674 89.9584C111.674 89.9584 110.963 92.5969 106.13 92.5969C100.816 92.5969 103.59 89.9584 103.59 89.9584C106.491 89.2658 106.416 87.1135 105.911 85.0928L111.51 79.9474Z" fill="#FFBE9D"/>
<path d="M103.381 73.813C103.412 73.813 103.444 73.8057 103.473 73.7911C103.576 73.7396 103.617 73.6148 103.566 73.5124C103.051 72.4854 102.1 72.3663 102.06 72.3616C101.946 72.3476 101.843 72.4308 101.83 72.5447C101.817 72.658 101.899 72.761 102.012 72.774C102.044 72.7776 102.784 72.8785 103.194 73.698C103.231 73.7708 103.305 73.8124 103.381 73.813Z" fill="#263238"/>
<path d="M101.796 76.0859C101.796 76.0859 101.014 77.5232 100.268 78.1706C100.678 78.6604 101.49 78.56 101.49 78.56L101.796 76.0859Z" fill="#FFBE9D"/>
<path d="M102.214 75.3251C102.289 75.6709 102.167 75.9907 101.94 76.0396C101.715 76.0885 101.471 75.8482 101.396 75.5024C101.321 75.1566 101.443 74.8368 101.669 74.788C101.895 74.7391 102.139 74.9798 102.214 75.3251Z" fill="#263238"/>
<path d="M101.773 74.7859L100.891 74.7266C100.891 74.7266 101.457 75.2825 101.773 74.7859Z" fill="#263238"/>
<path d="M83.6888 87.907V87.9174C83.6888 87.9122 83.6836 87.9122 83.6836 87.907H83.6888Z" fill="#FFBE9D"/>
<path opacity="0.2" d="M98.4402 96.4943C99.3612 95.6514 99.9841 95.9031 100.408 96.5728C100.827 98.5197 98.3461 102.597 97.3467 104.14L98.4402 96.4943Z" fill="#404145"/>
<path d="M119.738 99.0584C119.618 101.201 119.415 103.9 119.088 107.295C118.744 110.878 118.256 115.23 117.585 120.519C110.518 120.519 103.118 120.41 99.6813 120.41C99.9688 113.385 100.075 106.268 96.9237 92.2875C96.7583 91.5528 97.2393 90.8258 97.9809 90.6937C99.4083 90.4394 101.773 90.076 104.18 89.9584C107.175 89.8128 109.629 89.7192 112.266 89.9584C115.734 90.2756 119.676 91.0816 119.676 91.0816C119.676 91.0816 120.112 92.3712 119.738 99.0584Z" fill="#3887FE"/>
<path opacity="0.2" d="M119.738 99.0584C119.618 101.201 119.415 103.9 119.088 107.295C117.185 105.09 115.385 97.4984 115.957 94.9036C117.361 95.8604 118.661 97.332 119.655 98.6476C119.686 98.7724 119.717 98.9071 119.738 99.0584Z" fill="#404145"/>
<path d="M138.088 108.576L141.709 106.54L142.386 110.247C142.386 110.247 139.317 111.423 137.692 110.599L138.088 108.576Z" fill="#FFBE9D"/>
<path d="M144.135 106.961L144.387 108.171C144.466 108.552 144.308 108.942 143.987 109.16L142.386 110.247L141.71 106.54L142.962 106.226C143.491 106.092 144.024 106.427 144.135 106.961Z" fill="#FFBE9D"/>
<path d="M116.25 95.3789C117.411 97.7408 121.667 106.657 123.538 108.718L123.904 109.102L124.087 109.294C124.15 109.358 124.2 109.415 124.3 109.503C124.651 109.833 125.024 110.11 125.403 110.337C126.162 110.792 126.931 111.058 127.671 111.252C129.152 111.622 130.559 111.682 131.924 111.656C134.66 111.549 137.219 111.09 139.776 110.322L139.311 108.151C138.112 108.253 136.853 108.327 135.634 108.347C134.41 108.381 133.194 108.347 132.02 108.233C130.85 108.131 129.71 107.927 128.746 107.596C128.27 107.427 127.851 107.212 127.537 106.985C127.38 106.873 127.253 106.754 127.15 106.641C127.129 106.624 127.077 106.559 127.033 106.506L126.897 106.344L126.626 106.021C125.189 104.222 121.398 95.5495 120.26 93.3816L116.25 95.3789Z" fill="#FFBE9D"/>
<path d="M138.031 112.265C135.08 113.856 131.484 114.207 128.282 113.213C125.236 112.265 122.525 110.057 120.955 107.278C119.076 104.515 114.079 96.7049 114.706 94.6847C115.45 92.2719 117.03 90.7754 119.673 91.4243C121.531 91.8746 125.073 100.888 126.785 104.494C127.459 105.499 128.747 107.09 130.186 107.582C132.73 108.461 134.603 108.079 137.267 107.702C137.754 107.996 137.718 108.445 137.963 108.953C138.466 109.978 138.55 111.25 138.031 112.265Z" fill="#3887FE"/>
<path d="M114.132 75.777C113.334 80.054 113.088 81.8808 110.637 83.8235C106.952 86.7459 101.873 84.8302 101.377 80.4014C100.93 76.415 102.311 70.0908 106.741 68.8974C111.106 67.7227 114.93 71.5005 114.132 75.777Z" fill="#FFBE9D"/>
<path d="M129.304 99.4448C128.487 100.376 128.23 100.914 127.096 101.419C125.963 101.923 123.488 101.484 122.703 100.522C122.958 101.271 124.447 102.617 125.227 102.721C123.5 103.73 121.072 103.303 119.788 101.764C119.912 102.674 120.77 103.49 121.639 103.797C111.674 104.055 115.87 99.3652 109.634 92.6973C102.726 85.3107 104.224 79.2064 104.224 79.2064C104.219 78.1508 103.985 76.3984 102.867 74.9736C101.868 73.6944 102.16 71.968 102.477 71.0008C102.94 69.5812 104.349 69.082 105.701 68.9988C105.939 67.5979 108.801 67.8558 109.167 68.0898C109.481 68.2906 109.561 68.2739 109.875 68.0727C110.578 67.6218 112.346 67.1512 114.239 68.6816C115.394 69.616 116.628 71.292 116.67 74.8592C116.713 78.5689 114.943 82.9696 121.075 88.6054C124.689 91.9266 122.961 99.0558 129.304 99.4448Z" fill="#263238"/>
<path d="M103.402 76.0999C102.877 76.8279 102.726 77.7327 102.842 78.4628C103.016 79.5605 104.086 79.6333 104.861 78.9298C105.558 78.2964 106.308 76.9621 105.737 76.0521C105.174 75.1556 104.004 75.2679 103.402 76.0999Z" fill="#FFBE9D"/>
<path d="M113.052 120.517C113.052 120.517 110.929 150.368 108.533 170.058C107.815 175.958 106.016 181.677 103.221 186.944L91.4756 209.074L85.4639 206.71C85.4639 206.71 89.6051 185.674 97.727 174.204C97.727 174.204 91.6649 139.921 99.599 120.412L113.052 120.517Z" fill="#263238"/>
<path opacity="0.2" d="M104.878 127.746C104.878 127.746 106.665 141.287 107.648 149.311C103.96 144.475 101.136 137.728 104.878 127.746Z" fill="#404145"/>
<path d="M128.233 220.787C128.372 220.635 128.413 220.439 128.356 220.205C128.312 220.029 128.199 219.957 128.111 219.928C127.558 219.743 126.262 220.755 126.116 220.871C126.082 220.897 126.068 220.941 126.08 220.982C126.091 221.023 126.126 221.054 126.17 221.059C126.499 221.103 126.967 221.145 127.388 221.104C127.739 221.07 128.056 220.979 128.233 220.787ZM128.042 220.13C128.078 220.141 128.123 220.167 128.145 220.255C128.185 220.419 128.161 220.546 128.072 220.643C127.862 220.873 127.268 220.957 126.46 220.877C126.99 220.488 127.749 220.03 128.042 220.13Z" fill="#3887FE"/>
<path d="M126.247 221.04C126.657 220.756 127.389 219.709 127.236 219.214C127.207 219.119 127.117 218.959 126.844 218.953C126.671 218.948 126.521 219.011 126.401 219.138C125.949 219.617 126.071 220.908 126.077 220.963C126.08 221.001 126.104 221.034 126.14 221.049C126.157 221.057 126.177 221.06 126.195 221.058C126.214 221.057 126.231 221.051 126.247 221.04ZM126.839 219.166C126.978 219.169 127.013 219.226 127.029 219.276C127.122 219.578 126.678 220.354 126.279 220.736C126.261 220.304 126.29 219.57 126.56 219.284C126.625 219.215 126.701 219.176 126.789 219.168C126.805 219.166 126.822 219.166 126.839 219.166Z" fill="#3887FE"/>
<path d="M120.888 221.464L125.443 221.024L124.053 210.68L119.498 211.118L120.888 221.464Z" fill="#FFBE9D"/>
<path d="M125.752 220.471L120.635 220.964C120.449 220.982 120.31 221.124 120.302 221.305L120.115 225.345C120.096 225.764 120.496 226.12 120.925 226.072C122.706 225.87 123.555 225.684 125.805 225.467C127.19 225.334 129.226 225.281 131.138 225.097C133.008 224.916 132.966 223.042 132.153 222.951C128.509 222.539 127.842 221.552 126.54 220.673C126.306 220.515 126.024 220.445 125.752 220.471Z" fill="#263238"/>
<path d="M117.557 120.509C117.557 120.509 123.384 156.135 124.507 177.238L124.716 215.04L120.002 215.96C120.002 215.96 113.171 191.843 112.386 177.904C110.3 140.917 98.2535 140.857 105.501 120.443L117.557 120.509Z" fill="#263238"/>
<path d="M126.282 215.195L118.475 216.264L117.685 213.267L126.028 212.181L126.282 215.195Z" fill="#3887FE"/>
<path d="M83.6992 87.944H83.6836L83.6888 87.918C83.6888 87.9284 83.694 87.9336 83.6992 87.944Z" fill="#FFBE9D"/>
<path d="M84.1997 82.2916H84.4981C84.1981 82.2916 83.9672 82.5349 83.9828 82.8355L84.4576 91.8908C84.4732 92.1908 84.7295 92.4347 85.0296 92.4347H84.7311C84.4311 92.4347 84.1747 92.1913 84.1591 91.8908L83.6843 82.8355C83.6687 82.5349 83.8996 82.2916 84.1997 82.2916Z" fill="#3887FE"/>
<path opacity="0.1" d="M84.1997 82.2916H84.4981C84.1981 82.2916 83.9672 82.5349 83.9828 82.8355L84.4576 91.8908C84.4732 92.1908 84.7295 92.4347 85.0296 92.4347H84.7311C84.4311 92.4347 84.1747 92.1913 84.1591 91.8908L83.6843 82.8355C83.6687 82.5349 83.8996 82.2916 84.1997 82.2916Z" fill="white"/>
<path d="M84.82 92.4347H88.4724C88.773 92.4347 89.0034 92.1913 88.9878 91.8908L88.513 82.8355C88.4974 82.5354 88.241 82.2916 87.941 82.2916H84.2885C83.9885 82.2916 83.7576 82.5349 83.7732 82.8355L84.248 91.8908C84.2636 92.1908 84.5199 92.4347 84.82 92.4347Z" fill="#3887FE"/>
<path opacity="0.4" d="M84.82 92.4347H88.4724C88.773 92.4347 89.0034 92.1913 88.9878 91.8908L88.513 82.8355C88.4974 82.5354 88.241 82.2916 87.941 82.2916H84.2885C83.9885 82.2916 83.7576 82.5349 83.7732 82.8355L84.248 91.8908C84.2636 92.1908 84.5199 92.4347 84.82 92.4347Z" fill="white"/>
<path d="M88.7598 91.702C88.765 91.7956 88.7338 91.884 88.6714 91.9516C88.609 92.014 88.5206 92.0504 88.427 92.0504H84.8858C84.683 92.0504 84.5114 91.884 84.501 91.6812L84.0382 82.8984C84.033 82.8048 84.0642 82.7164 84.1266 82.654C84.189 82.5864 84.2774 82.55 84.371 82.55H87.9122C88.115 82.55 88.2866 82.7164 88.297 82.9192L88.3282 83.5484L88.7598 91.702Z" fill="#263238"/>
<g opacity="0.1">
<path d="M88.3276 83.5484L87.1524 92.0504H85.7432L87.0744 82.55H87.9116C88.1144 82.55 88.286 82.7164 88.2964 82.9192L88.3276 83.5484Z" fill="white"/>
<path d="M85.2337 92.0504H84.916L86.2477 82.5505H86.566L85.2337 92.0504Z" fill="white"/>
</g>
<path d="M98.5306 121.525C95.8828 126.716 94.4419 132.518 94.354 138.345C103.205 145.203 111.426 137.172 121.544 138.529C121.191 133.959 119.639 125.503 117.795 121.307C111.109 121.589 104.847 120.922 98.5306 121.525Z" fill="#3887FE"/>
<path d="M99.4517 119.669C99.4517 119.669 98.7377 121.501 98.9421 121.501H117.494C117.654 121.501 117.786 121.423 117.796 121.322L117.955 119.739C117.966 119.629 117.828 119.536 117.654 119.536H99.7397C99.6076 119.537 99.4912 119.59 99.4517 119.669Z" fill="white"/>
<path d="M102.065 121.657H101.585C101.49 121.657 101.417 121.607 101.424 121.547L101.649 119.49C101.656 119.43 101.739 119.381 101.835 119.381H102.315C102.41 119.381 102.483 119.43 102.476 119.49L102.251 121.547C102.245 121.607 102.161 121.657 102.065 121.657Z" fill="#3887FE"/>
<path d="M113.694 121.657H113.214C113.119 121.657 113.046 121.607 113.053 121.547L113.278 119.49C113.285 119.43 113.368 119.381 113.463 119.381H113.943C114.039 119.381 114.112 119.43 114.105 119.49L113.88 121.547C113.874 121.607 113.79 121.657 113.694 121.657Z" fill="#3887FE"/>
</g>
<defs>
<clipPath id="clip0_1_6517">
<rect width="260" height="260" fill="white" transform="translate(0.5)"/>
</clipPath>
</defs>
</svg>
