<svg width="17" height="16" viewBox="0 0 17 16" fill="none" xmlns="http://www.w3.org/2000/svg">
<g clip-path="url(#clip0_1_2574)">
<path d="M7.26091 14.9712C8.10463 15.8214 8.88806 15.8149 9.73206 14.9712L10.7632 13.9463C10.8703 13.846 10.9641 13.8057 11.1046 13.8057H12.5512C13.7498 13.8057 14.3055 13.2566 14.3055 12.0514V10.6049C14.3055 10.4643 14.3458 10.3706 14.4461 10.2634L15.4641 9.23202C16.3212 8.3883 16.3143 7.60487 15.4641 6.76116L14.4461 5.72973C14.3458 5.62973 14.3055 5.52916 14.3055 5.39516V3.94202C14.3055 2.75002 13.7563 2.18773 12.5512 2.18773H11.1046C10.9641 2.18773 10.8703 2.15402 10.7632 2.05344L9.73177 1.02916C8.88806 0.178587 8.10463 0.185444 7.26091 1.02916L6.22949 2.05373C6.12949 2.15402 6.02891 2.18744 5.89491 2.18744H4.44177C3.2432 2.18744 2.68749 2.73659 2.68749 3.94173V5.39516C2.68749 5.52916 2.65377 5.62944 2.5532 5.73002L1.52891 6.76145C0.678343 7.60487 0.6852 8.3883 1.52891 9.2323L2.55349 10.2634C2.65377 10.3706 2.6872 10.4643 2.6872 10.6049V12.0514C2.6872 13.25 3.2432 13.8057 4.44149 13.8057H5.89491C6.02891 13.8057 6.1292 13.846 6.22977 13.9463L7.26091 14.9712ZM7.36806 11.3683C7.16063 11.3683 7.02663 11.3014 6.92606 11.1874L4.68949 8.70316C4.59564 8.59806 4.54332 8.46235 4.54234 8.32144C4.54234 8.00659 4.7832 7.7723 5.12491 7.7723C5.30549 7.7723 5.43949 7.83259 5.56006 7.95973L7.33434 9.92202L10.7832 5.06687C10.9172 4.87259 11.0512 4.79259 11.2855 4.79259C11.6135 4.79259 11.8481 5.03344 11.8481 5.3483C11.8481 5.46202 11.8012 5.59602 11.7275 5.70316L7.82349 11.1609C7.72291 11.288 7.5692 11.3683 7.36806 11.3683Z" fill="#1DBF73"/>
</g>
<defs>
<clipPath id="clip0_1_2574">
<rect width="16" height="16" fill="white" transform="translate(0.5)"/>
</clipPath>
</defs>
</svg>
