<svg width="261" height="260" viewBox="0 0 261 260" fill="none" xmlns="http://www.w3.org/2000/svg">
<path d="M210.498 235.629C210.498 235.703 174.39 235.764 129.858 235.764C85.311 235.764 49.21 235.703 49.21 235.629C49.21 235.554 85.3105 235.493 129.858 235.493C174.39 235.493 210.498 235.554 210.498 235.629Z" fill="#404145"/>
<path d="M175.313 171.971C167.28 166.358 165.458 155.941 165.776 146.577C165.829 145.014 165.656 143.366 166.4 141.994C167.144 140.623 168.879 139.686 170.278 140.344C171.439 140.891 171.945 142.241 172.594 143.358C173.458 144.843 174.746 146.073 176.26 146.859C177.256 147.375 178.487 147.691 179.47 147.149C180.818 146.405 180.977 144.543 180.967 142.988C180.949 140.09 180.932 137.192 180.913 134.295C180.903 132.741 180.899 131.154 181.382 129.678C181.866 128.203 182.934 126.832 184.413 126.418C185.892 126.004 187.721 126.856 188.033 128.378C188.163 129.012 188.034 129.669 188.077 130.314C188.121 130.96 188.421 131.674 189.034 131.854C189.655 132.036 190.277 131.595 190.741 131.14C192.346 129.571 193.435 127.548 194.453 125.538C195.47 123.527 196.458 121.468 197.914 119.756C199.37 118.043 201.384 116.687 203.61 116.561C205.836 116.435 208.209 117.809 208.771 119.995C209.336 122.187 208.057 124.41 206.665 126.184C204.601 128.817 202.159 131.145 199.44 133.072C198.95 133.42 198.419 133.796 198.231 134.371C197.894 135.408 198.876 136.437 199.899 136.778C201.058 137.164 202.315 137.044 203.527 137.186C204.739 137.329 206.053 137.864 206.511 139.009C207.148 140.598 205.819 142.264 204.511 143.354C201.893 145.539 198.903 147.265 195.713 148.433C194.57 148.852 193.366 149.219 192.444 150.022C191.522 150.826 190.965 152.223 191.522 153.318C192.08 154.414 193.51 154.765 194.708 154.542C195.905 154.32 196.978 153.67 198.12 153.239C200.256 152.433 203.015 152.58 204.384 154.426C205.283 155.64 205.362 157.33 204.907 158.777C204.453 160.223 203.53 161.47 202.551 162.619C199.126 166.636 194.743 169.87 189.787 171.589C184.831 173.307 180.239 173.772 175.313 171.971Z" fill="#1DBF73"/>
<path d="M206.525 117.862C206.529 117.866 206.478 117.916 206.375 118.01C206.26 118.113 206.107 118.249 205.913 118.422C205.506 118.782 204.905 119.313 204.151 120.017C202.64 121.422 200.518 123.535 198.213 126.426C197.056 127.867 195.854 129.498 194.595 131.273C193.339 133.051 192.009 134.959 190.686 137.017C189.363 139.074 188.039 141.279 186.851 143.661C186.252 144.849 185.717 146.093 185.172 147.361C184.629 148.629 184.079 149.915 183.522 151.216C181.313 156.429 179.37 161.469 177.982 166.177C176.586 170.88 175.755 175.239 175.391 178.933C175.018 182.628 175.095 185.644 175.246 187.714C175.327 188.748 175.406 189.552 175.479 190.094C175.509 190.354 175.533 190.558 175.551 190.712C175.566 190.851 175.571 190.924 175.566 190.925C175.561 190.925 175.546 190.855 175.522 190.717C175.497 190.564 175.464 190.36 175.422 190.102C175.33 189.562 175.233 188.759 175.134 187.723C174.95 185.652 174.842 182.625 175.19 178.914C175.529 175.204 176.343 170.823 177.73 166.101C179.108 161.375 181.049 156.32 183.26 151.103C183.817 149.801 184.369 148.514 184.912 147.246C185.456 145.981 185.997 144.727 186.601 143.533C187.8 141.139 189.134 138.929 190.467 136.872C191.798 134.812 193.138 132.906 194.403 131.133C195.672 129.362 196.886 127.734 198.056 126.297C200.388 123.413 202.54 121.315 204.076 119.935C204.843 119.241 205.455 118.724 205.875 118.378C206.078 118.214 206.236 118.085 206.355 117.988C206.465 117.901 206.522 117.858 206.525 117.862Z" fill="white"/>
<path d="M186.683 143.522C186.664 143.525 186.611 143.289 186.531 142.859C186.449 142.429 186.352 141.804 186.242 141.029C186.022 139.481 185.792 137.334 185.547 134.965C185.301 132.594 185.041 130.456 184.798 128.916C184.679 128.145 184.576 127.522 184.5 127.093C184.425 126.663 184.394 126.423 184.413 126.418C184.432 126.414 184.501 126.646 184.608 127.07C184.719 127.493 184.852 128.112 184.997 128.88C185.292 130.417 185.586 132.561 185.83 134.934C186.067 137.272 186.28 139.387 186.443 141.004C186.521 141.734 186.588 142.349 186.641 142.842C186.686 143.277 186.703 143.519 186.683 143.522Z" fill="white"/>
<path d="M206.671 139.787C206.671 139.806 206.387 139.84 205.873 139.882C205.361 139.928 204.618 139.99 203.703 140.096C201.872 140.294 199.354 140.655 196.591 141.176C193.83 141.701 191.35 142.283 189.569 142.756C188.676 142.986 187.959 143.192 187.463 143.331C186.967 143.472 186.689 143.541 186.683 143.522C186.676 143.503 186.943 143.398 187.429 143.223C187.917 143.051 188.628 142.815 189.516 142.559C191.288 142.034 193.769 141.419 196.539 140.891C199.309 140.37 201.842 140.038 203.684 139.893C204.604 139.813 205.351 139.781 205.867 139.771C206.384 139.762 206.669 139.766 206.671 139.787Z" fill="white"/>
<path d="M177.976 165.733C177.967 165.737 177.921 165.653 177.839 165.489C177.747 165.293 177.634 165.055 177.498 164.765C177.204 164.136 176.802 163.215 176.32 162.069C175.356 159.78 174.123 156.575 172.811 153.02C171.498 149.464 170.297 146.252 169.382 143.946C168.934 142.825 168.564 141.902 168.29 141.217C168.172 140.919 168.076 140.674 167.997 140.472C167.933 140.301 167.903 140.209 167.912 140.204C167.922 140.201 167.968 140.284 168.05 140.449C168.142 140.644 168.255 140.882 168.391 141.171C168.685 141.801 169.087 142.722 169.569 143.868C170.533 146.157 171.766 149.362 173.078 152.918C174.391 156.474 175.592 159.685 176.507 161.992C176.956 163.112 177.324 164.035 177.599 164.72C177.716 165.018 177.813 165.264 177.892 165.465C177.956 165.637 177.986 165.728 177.976 165.733Z" fill="white"/>
<path d="M204.537 157.172C204.54 157.182 204.449 157.219 204.273 157.281C204.066 157.351 203.811 157.436 203.502 157.54C202.79 157.77 201.828 158.082 200.658 158.461C198.256 159.24 194.952 160.354 191.302 161.589C187.651 162.826 184.334 163.91 181.915 164.639C180.706 165.004 179.725 165.29 179.043 165.473C178.728 165.555 178.468 165.623 178.257 165.68C178.076 165.724 177.979 165.742 177.977 165.733C177.974 165.723 178.065 165.686 178.241 165.623C178.447 165.554 178.703 165.469 179.012 165.366C179.724 165.135 180.686 164.823 181.856 164.444C184.257 163.665 187.562 162.551 191.212 161.315C194.862 160.079 198.179 158.994 200.598 158.265C201.807 157.9 202.788 157.615 203.47 157.431C203.786 157.349 204.045 157.28 204.257 157.225C204.438 157.181 204.534 157.163 204.537 157.172Z" fill="white"/>
<path d="M193.702 31.0331L191.022 31.9915L189.877 28.4924C187.763 22.0382 181.019 18.5848 174.85 20.7917C168.678 22.9996 165.378 30.0462 167.491 36.5004L168.637 39.9995L165.948 40.961C163.858 41.7088 162.726 44.1185 163.442 46.3061L170.897 69.0775C171.624 71.2984 173.932 72.4824 176.023 71.7347L203.777 61.8063C205.902 61.0466 207.034 58.6312 206.307 56.4108L198.852 33.6394C198.135 31.4517 195.825 30.2729 193.702 31.0331ZM172.548 34.6908C171.39 31.1538 173.197 27.2912 176.581 26.0807C179.962 24.8711 183.656 26.7655 184.814 30.3025L185.96 33.8021L173.693 38.1899L172.548 34.6908ZM188.152 54.8944L190.056 60.7096C190.136 60.9556 189.996 61.2067 189.758 61.292L187.095 62.2446C186.891 62.3174 186.63 62.2098 186.55 61.9638L184.646 56.1487C182.583 56.0613 180.668 54.6942 179.952 52.5066C179.031 49.6939 180.471 46.6186 183.171 45.653C185.868 44.6879 188.809 46.1959 189.729 49.0091C190.446 51.1967 189.734 53.504 188.152 54.8944Z" fill="#FBBC04"/>
<path d="M190.905 31.9286C190.931 31.9988 185.939 33.8677 179.758 36.1016C173.574 38.3366 168.543 40.091 168.517 40.0208C168.492 39.9506 173.482 38.0823 179.666 35.8473C185.847 33.6134 190.88 31.8584 190.905 31.9286Z" fill="white"/>
<path d="M196.799 32.8869C196.804 32.8854 196.824 32.9317 196.859 33.0232C196.898 33.1293 196.948 33.2634 197.01 33.4309C197.144 33.81 197.329 34.3372 197.565 35.007C198.043 36.399 198.723 38.3797 199.561 40.8196C200.395 43.2828 201.387 46.2063 202.487 49.4516C203.03 51.0807 203.623 52.7733 204.193 54.5611C204.456 55.4597 204.674 56.4201 204.583 57.4149C204.537 57.9084 204.402 58.405 204.162 58.8542C203.917 59.3004 203.576 59.693 203.179 60.0128C202.38 60.6519 201.444 61.0252 200.54 61.3601C199.633 61.6862 198.738 62.0075 197.86 62.3232C196.102 62.9518 194.407 63.5587 192.791 64.1375C189.563 65.2867 186.654 66.3225 184.204 67.1951C181.77 68.051 179.795 68.7457 178.407 69.234C177.736 69.4638 177.206 69.6453 176.827 69.7753C176.657 69.8304 176.521 69.8746 176.413 69.9095C176.319 69.9386 176.271 69.9511 176.269 69.9464C176.268 69.9422 176.314 69.9209 176.404 69.8835C176.51 69.8419 176.643 69.7893 176.808 69.7238C177.185 69.5824 177.708 69.3848 178.372 69.1347C179.753 68.6266 181.718 67.9043 184.14 67.0146C186.584 66.1264 189.486 65.0724 192.708 63.9029C194.321 63.3195 196.015 62.708 197.77 62.0736C198.648 61.7569 199.541 61.4345 200.448 61.1074C201.345 60.7751 202.255 60.4064 203.009 59.8022C203.383 59.5006 203.698 59.1366 203.925 58.7258C204.147 58.3119 204.271 57.8538 204.316 57.3894C204.403 56.455 204.197 55.5216 203.939 54.6365C203.379 52.8664 202.786 51.1587 202.251 49.5317C201.172 46.2801 200.199 43.3494 199.38 40.8809C198.577 38.4296 197.924 36.4396 197.466 35.0413C197.25 34.3648 197.081 33.8318 196.959 33.4491C196.907 33.278 196.866 33.1412 196.834 33.0325C196.806 32.9374 196.794 32.8885 196.799 32.8869Z" fill="white"/>
<path d="M182.158 25.7161C182.145 25.739 181.882 25.5763 181.371 25.3703C180.859 25.1748 180.083 24.9465 179.101 24.9153C178.125 24.8795 176.937 25.0303 175.752 25.5482C174.57 26.0599 173.407 26.9683 172.574 28.2043C171.724 29.4357 171.352 30.8605 171.352 32.1527C171.341 33.4506 171.616 34.6066 171.881 35.5551C172.155 36.5046 172.435 37.2581 172.62 37.7812C172.807 38.3043 172.907 38.595 172.889 38.6023C172.873 38.6085 172.739 38.3314 172.522 37.8197C172.307 37.307 171.998 36.5623 171.698 35.6102C171.407 34.6591 171.105 33.4886 171.102 32.1511C171.088 30.821 171.469 29.3265 172.349 28.052C173.213 26.7707 174.424 25.8363 175.653 25.3189C176.886 24.7963 178.111 24.6621 179.11 24.7235C180.117 24.7801 180.904 25.0438 181.413 25.2731C181.664 25.3963 181.857 25.4972 181.978 25.582C182.102 25.6626 182.163 25.7078 182.158 25.7161Z" fill="white"/>
<path d="M182.394 46.0638C182.391 46.057 182.481 46.0123 182.658 45.9327C182.833 45.8511 183.101 45.7466 183.46 45.6441C183.816 45.5323 184.273 45.4512 184.812 45.4195C185.349 45.393 185.982 45.4486 186.636 45.6915C187.964 46.1584 189.189 47.5167 189.79 49.3164C190.079 50.2253 190.105 51.2809 189.814 52.3017C189.504 53.3183 188.935 54.2933 188.114 55.1128L188.148 54.975C188.839 56.8704 189.591 58.9333 190.374 61.0793L190.421 61.2098L190.289 61.254C189.912 61.3804 189.508 61.5161 189.101 61.6524C188.224 61.9456 187.361 62.2348 186.513 62.5187L186.385 62.5613L186.343 62.4329C185.631 60.277 184.85 58.2443 184.283 56.3016L184.396 56.39C183.331 56.3187 182.374 55.872 181.613 55.2896C180.848 54.7015 180.262 53.9714 179.867 53.2034C179.478 52.4328 179.283 51.6148 179.315 50.8613C179.335 50.1083 179.508 49.4266 179.752 48.852C180.237 47.6929 180.96 46.9639 181.495 46.5661C182.041 46.1673 182.394 46.0638 182.394 46.0638C182.407 46.0872 182.064 46.2177 181.544 46.629C181.033 47.0398 180.344 47.7699 179.89 48.9087C179.438 50.0199 179.241 51.6174 180.051 53.1082C180.44 53.8451 181.012 54.5455 181.752 55.1066C182.489 55.662 183.408 56.0806 184.409 56.1419L184.497 56.1471L184.521 56.2303C185.095 58.1595 185.879 60.1839 186.598 62.3486L186.427 62.2634C187.274 61.9794 188.138 61.6893 189.014 61.3955C189.422 61.2592 189.826 61.1235 190.203 60.9972L190.119 61.1714C189.341 59.0232 188.594 56.9583 187.908 55.0619L187.88 54.9854L187.942 54.9241C188.72 54.155 189.286 53.2013 189.585 52.2341C189.869 51.2581 189.852 50.255 189.583 49.3793C189.014 47.6326 187.846 46.3045 186.579 45.8381C185.953 45.5937 185.341 45.5271 184.814 45.5412C184.287 45.5599 183.836 45.627 183.481 45.7247C182.767 45.9088 182.404 46.0867 182.394 46.0638Z" fill="white"/>
<path d="M166.324 196.206L114.386 195.965C108.139 195.937 103.097 190.851 103.124 184.604L103.675 54.3937C103.701 48.1433 108.79 43.0987 115.04 43.1278L166.978 43.3676C173.225 43.3967 178.266 48.4828 178.24 54.7291L177.689 184.939C177.663 191.19 172.574 196.235 166.324 196.206Z" fill="#455A64"/>
<path d="M166.905 47.8614L156.835 47.8151C155.484 47.8089 154.385 48.9487 154.379 50.36L154.371 52.1868C154.365 53.5986 153.265 54.7379 151.915 54.7317L132.286 54.6412C130.936 54.6349 129.846 53.4852 129.852 52.0734L129.859 50.2467C129.865 48.8349 128.775 47.6851 127.425 47.6789L123.883 47.6623L115.069 47.6217C110.693 47.6014 107.128 51.1343 107.109 55.5117L106.572 182.606C106.553 186.981 110.084 190.543 114.459 190.564L166.294 190.803C170.671 190.823 174.235 187.29 174.254 182.913L174.791 55.818C174.81 51.4437 171.279 47.8822 166.905 47.8614Z" fill="white"/>
<path d="M129.066 85.2117L115.693 85.1501L115.682 87.604L129.054 87.6655L129.066 85.2117Z" fill="#3887FE"/>
<path opacity="0.1" d="M129.066 85.2117L115.693 85.1501L115.682 87.604L129.054 87.6655L129.066 85.2117Z" fill="#404145"/>
<path d="M168.281 100.27C168.279 100.259 168.393 100.276 168.586 100.198C168.769 100.127 169.057 99.9052 169.09 99.498C169.089 98.6686 169.086 97.4633 169.083 95.9158C169.083 95.1363 169.083 94.2715 169.082 93.3251C169.083 93.088 169.083 92.8467 169.083 92.5997C169.089 92.347 169.089 92.1125 168.937 91.9185C168.8 91.7256 168.566 91.6023 168.322 91.6013C168.055 91.6008 167.784 91.6003 167.507 91.5997C165.295 91.5956 162.777 91.5904 159.997 91.5852C148.857 91.5436 133.483 91.4869 116.503 91.424C116.279 91.4224 116.06 91.5321 115.93 91.7136C115.786 91.8977 115.792 92.1145 115.795 92.3933C115.793 92.9211 115.79 93.4468 115.788 93.9715C115.783 95.0203 115.779 96.0619 115.775 97.0956C115.773 97.613 115.77 98.1278 115.767 98.6411C115.776 98.887 115.743 99.1814 115.789 99.3722C115.841 99.5807 115.999 99.7575 116.195 99.8407C116.298 99.8823 116.393 99.8969 116.517 99.8958L116.898 99.8979L117.656 99.9016C118.161 99.9042 118.664 99.9068 119.165 99.9094C123.17 99.9307 127.033 99.9515 130.713 99.9707C138.071 100.015 144.698 100.056 150.266 100.09C155.825 100.133 160.326 100.169 163.448 100.194C164.997 100.212 166.203 100.226 167.032 100.236C167.435 100.244 167.744 100.249 167.964 100.254C168.174 100.26 168.281 100.27 168.281 100.27C168.281 100.27 168.174 100.279 167.963 100.282C167.743 100.284 167.434 100.287 167.032 100.291C166.202 100.293 164.996 100.296 163.447 100.3C160.325 100.296 155.824 100.289 150.265 100.282C144.696 100.265 138.069 100.244 130.711 100.221C127.031 100.206 123.168 100.191 119.163 100.176C118.663 100.174 118.16 100.171 117.655 100.169L116.896 100.166L116.515 100.165C116.385 100.167 116.224 100.147 116.091 100.089C115.819 99.9744 115.602 99.731 115.529 99.4414C115.488 99.2942 115.497 99.1455 115.497 99.0254L115.498 98.6411C115.501 98.1278 115.503 97.6125 115.505 97.0956C115.509 96.0614 115.513 95.0198 115.517 93.9715C115.519 93.4473 115.521 92.9211 115.523 92.3933C115.528 92.2581 115.516 92.1395 115.537 91.9778C115.56 91.8259 115.619 91.6788 115.711 91.555C115.889 91.3039 116.196 91.1505 116.504 91.1541C133.483 91.2477 148.857 91.333 159.996 91.3943C162.778 91.4146 165.295 91.4328 167.507 91.4489C167.784 91.451 168.055 91.4531 168.322 91.4557C168.613 91.4583 168.89 91.6081 169.049 91.8369C169.228 92.061 169.226 92.3678 169.216 92.6007C169.214 92.8477 169.212 93.0895 169.21 93.3262C169.201 94.2726 169.194 95.1373 169.187 95.9163C169.168 97.4659 169.153 98.6728 169.143 99.5027C169.098 99.9364 168.786 100.159 168.594 100.224C168.393 100.296 168.281 100.27 168.281 100.27Z" fill="#E0E0E0"/>
<path d="M143.744 94.7007L119.282 94.5882L119.271 96.8819L143.734 96.9944L143.744 94.7007Z" fill="#3887FE"/>
<path opacity="0.2" d="M143.744 94.7007L119.282 94.5882L119.271 96.8819L143.734 96.9944L143.744 94.7007Z" fill="white"/>
<path d="M128.971 107.605L115.599 107.543L115.587 109.997L128.96 110.059L128.971 107.605Z" fill="#3887FE"/>
<path opacity="0.1" d="M128.971 107.605L115.599 107.543L115.587 109.997L128.96 110.059L128.971 107.605Z" fill="#404145"/>
<path d="M167.938 122.661C167.937 122.652 168.047 122.662 168.246 122.603C168.435 122.541 168.739 122.385 168.905 122.014C168.994 121.831 169.003 121.609 168.995 121.355C168.994 121.102 168.993 120.826 168.992 120.528C168.991 119.93 168.989 119.241 168.988 118.467C168.988 117.691 168.987 116.829 168.987 115.886C168.987 115.65 168.987 115.409 168.987 115.163C168.999 114.915 168.969 114.684 168.835 114.477C168.711 114.273 168.507 114.111 168.27 114.039C168.038 113.965 167.76 114.005 167.484 113.994C165.28 113.99 162.771 113.985 159.999 113.98C148.898 113.938 133.577 113.881 116.656 113.819C116.186 113.807 115.752 114.191 115.707 114.656C115.691 115.15 115.699 115.697 115.693 116.212C115.689 117.257 115.684 118.296 115.68 119.326C115.678 119.841 115.675 120.355 115.673 120.866C115.682 121.121 115.646 121.388 115.706 121.592C115.765 121.807 115.902 121.999 116.086 122.125C116.276 122.253 116.483 122.301 116.732 122.291L117.489 122.295C117.992 122.297 118.493 122.3 118.992 122.303C122.983 122.323 126.833 122.344 130.5 122.364C137.832 122.408 144.436 122.449 149.985 122.483C155.524 122.526 160.01 122.562 163.122 122.586C164.665 122.604 165.866 122.618 166.693 122.628C167.094 122.636 167.402 122.642 167.622 122.646C167.831 122.652 167.938 122.661 167.938 122.661C167.938 122.661 167.831 122.67 167.621 122.673C167.402 122.676 167.093 122.679 166.693 122.683C165.866 122.685 164.665 122.688 163.121 122.692C160.01 122.688 155.524 122.682 149.984 122.674C144.435 122.657 137.831 122.637 130.499 122.614C126.831 122.599 122.982 122.584 118.991 122.568C118.492 122.566 117.991 122.564 117.488 122.562L116.731 122.559C116.477 122.573 116.165 122.511 115.935 122.347C115.699 122.186 115.523 121.94 115.447 121.663C115.37 121.372 115.416 121.119 115.405 120.865C115.407 120.354 115.408 119.84 115.411 119.325C115.415 118.294 115.419 117.256 115.423 116.211C115.429 115.682 115.419 115.179 115.438 114.623C115.496 114.025 116.054 113.532 116.658 113.547C133.578 113.641 148.898 113.726 159.999 113.787C162.771 113.807 165.279 113.826 167.484 113.842C167.756 113.857 168.032 113.813 168.313 113.899C168.585 113.984 168.814 114.17 168.955 114.403C169.104 114.631 169.136 114.923 169.121 115.163C169.119 115.409 169.117 115.65 169.115 115.886C169.107 116.829 169.099 117.691 169.092 118.468C169.084 119.242 169.077 119.93 169.071 120.529C169.067 120.827 169.064 121.103 169.062 121.355C169.066 121.603 169.051 121.849 168.954 122.036C168.771 122.423 168.45 122.575 168.253 122.63C168.047 122.681 167.938 122.661 167.938 122.661Z" fill="#E0E0E0"/>
<path d="M143.651 117.094L119.188 116.981L119.177 119.275L143.64 119.387L143.651 117.094Z" fill="#3887FE"/>
<path opacity="0.2" d="M143.651 117.094L119.188 116.981L119.177 119.275L143.64 119.387L143.651 117.094Z" fill="white"/>
<path d="M64.182 87.7122C64.182 87.7174 64.0998 87.7263 63.9407 87.7393C63.7686 87.7517 63.5341 87.7689 63.233 87.7907C62.9205 87.7959 62.5404 87.8641 62.0921 87.9431C61.869 87.9883 61.6226 88.0065 61.3709 88.0809C61.1182 88.1511 60.8493 88.2255 60.5649 88.3045C59.4427 88.6586 58.0912 89.2213 56.7304 90.2067C55.3732 91.1843 54.0155 92.5825 52.9573 94.4067C52.4009 95.3032 51.9973 96.3385 51.6349 97.4269C51.3401 98.5345 51.079 99.7112 51.0593 100.951C51.0041 101.57 51.0665 102.198 51.0925 102.836C51.1092 103.156 51.1778 103.472 51.2189 103.794C51.2626 104.116 51.3099 104.439 51.4014 104.757C51.6645 106.05 52.1913 107.317 52.8574 108.531C54.1891 110.969 56.4272 113.069 59.191 114.286C60.5737 114.896 62.1025 115.225 63.6573 115.289C65.2137 115.388 66.808 115.138 68.3191 114.619L68.7762 114.451L68.8365 114.429L68.8911 114.456C71.1287 115.593 73.3231 116.706 75.4494 117.786L75.2544 117.952C74.5539 115.779 73.8753 113.672 73.2238 111.649L73.1988 111.571L73.2565 111.514C74.9096 109.859 76.0614 107.848 76.7 105.789C77.3401 103.724 77.4493 101.621 77.1997 99.6941C76.9501 97.7628 76.3188 96.0067 75.477 94.5289C74.6356 93.0469 73.5893 91.8431 72.5155 90.9029C71.4293 89.9695 70.3029 89.3372 69.2936 88.8531C68.2599 88.4205 67.3384 88.1433 66.5724 87.9956C66.1897 87.9301 65.8491 87.8724 65.5522 87.8219C65.2579 87.8011 65.0072 87.784 64.7998 87.7694C64.6063 87.7543 64.454 87.7429 64.3385 87.734C64.235 87.7231 64.182 87.7164 64.182 87.7122C64.182 87.7086 64.235 87.7075 64.339 87.7091C64.4545 87.7122 64.6074 87.7169 64.8018 87.7221C65.0104 87.7304 65.2631 87.7408 65.5595 87.7528C65.859 87.7975 66.2027 87.8485 66.5891 87.9062C67.3629 88.0414 68.2963 88.3071 69.3461 88.7325C70.3705 89.2093 71.5166 89.8385 72.6242 90.7745C73.7193 91.7167 74.7879 92.9299 75.6506 94.428C76.5133 95.922 77.1644 97.702 77.4264 99.6629C77.6885 101.619 77.5856 103.757 76.9408 105.861C76.2975 107.958 75.1296 110.01 73.4469 111.701L73.4796 111.566C74.1338 113.586 74.816 115.693 75.5196 117.866L75.6226 118.183L75.3246 118.032C73.1973 116.954 71.0029 115.842 68.7643 114.707L68.8792 114.712L68.4122 114.884C66.8673 115.415 65.2366 115.67 63.6459 115.569C62.0573 115.503 60.4942 115.164 59.0824 114.539C56.2593 113.293 53.9822 111.144 52.6317 108.657C51.9557 107.419 51.4248 106.126 51.1601 104.81C51.0686 104.487 51.0218 104.158 50.9781 103.83C50.9376 103.503 50.8695 103.181 50.8533 102.856C50.8289 102.207 50.7681 101.568 50.8268 100.941C50.8523 99.6806 51.1222 98.4856 51.4279 97.3629C51.8013 96.2595 52.2173 95.2117 52.7867 94.3053C53.8709 92.4619 55.2572 91.0553 56.6399 90.0782C58.0257 89.0933 59.398 88.5401 60.5347 88.1989C60.8223 88.1241 61.0948 88.0528 61.3506 87.9863C61.6049 87.9155 61.854 87.901 62.0791 87.8604C62.532 87.7892 62.9148 87.7299 63.2294 87.734C63.532 87.7236 63.7681 87.7164 63.9412 87.7101C64.1004 87.707 64.182 87.7075 64.182 87.7122Z" fill="#1DBF73"/>
<path d="M67.1476 99.8537H66.1867L64.0895 96.9308V95.0125C64.0895 95.0125 62.6044 94.921 62.7786 97.4331C62.9533 99.9452 62.7645 99.3056 62.7645 99.3056C62.7645 99.3056 59.6107 99.3176 59.3486 99.5916C59.1578 99.7908 59.072 102.924 59.0387 104.623C59.0221 105.478 59.5468 106.274 60.3424 106.476C60.4552 106.505 60.5696 106.522 60.6819 106.522C61.4687 106.522 65.4878 105.882 65.4878 105.882H67.1476V99.8537Z" fill="#FF0000"/>
<path d="M69.8984 99.327L69.3077 105.9H67.6619V99.4596L69.8984 99.327Z" fill="#FF0000"/>
<path d="M89.4981 233.138V228.689L81.526 228.635L81.46 235.356L81.954 235.393C84.153 235.535 93.1449 235.742 94.6181 235.286C96.2618 234.778 89.4981 233.138 89.4981 233.138Z" fill="#3887FE"/>
<path d="M94.8069 234.869C94.8069 234.944 91.8247 235.005 88.1472 235.005C84.4682 235.005 81.4871 234.944 81.4871 234.869C81.4871 234.794 84.4682 234.734 88.1472 234.734C91.8247 234.734 94.8069 234.795 94.8069 234.869Z" fill="#263238"/>
<path d="M89.6379 234.046C89.5724 234.011 89.6286 233.776 89.7996 233.544C89.9702 233.312 90.1787 233.188 90.2307 233.241C90.2843 233.294 90.1751 233.49 90.0175 233.705C89.86 233.919 89.705 234.082 89.6379 234.046Z" fill="#263238"/>
<path d="M90.1467 234.339C90.0775 234.313 90.1134 234.049 90.2699 233.772C90.4259 233.494 90.6334 233.328 90.6911 233.373C90.7509 233.42 90.6505 233.646 90.5055 233.905C90.3604 234.163 90.2179 234.367 90.1467 234.339Z" fill="#263238"/>
<path d="M83.889 234.849C83.8578 234.871 83.7392 234.754 83.5666 234.558C83.3929 234.364 83.1657 234.09 82.8672 233.858C82.5713 233.627 82.2453 233.511 82.0045 233.481C81.7622 233.448 81.6031 233.486 81.5895 233.447C81.5755 233.418 81.7237 233.307 82.0113 233.29C82.2941 233.27 82.694 233.378 83.0325 233.643C83.369 233.906 83.5843 234.219 83.721 234.446C83.8573 234.674 83.9186 234.828 83.889 234.849Z" fill="#263238"/>
<path d="M89.6625 233.21C89.7015 233.272 89.5647 233.427 89.3369 233.51C89.1097 233.594 88.9048 233.565 88.8944 233.492C88.8825 233.417 89.0442 233.33 89.2433 233.256C89.443 233.183 89.6229 233.145 89.6625 233.21Z" fill="#263238"/>
<path d="M89.5377 232.779C89.545 232.854 89.3323 232.918 89.0634 232.921C88.7941 232.925 88.5798 232.867 88.5856 232.792C88.5908 232.718 88.8029 232.654 89.0598 232.651C89.3162 232.647 89.5304 232.705 89.5377 232.779Z" fill="#263238"/>
<path d="M109.129 233.138L109.129 228.689L101.157 228.635L101.091 235.288L101.585 235.324C103.784 235.466 112.776 235.742 114.25 235.286C115.893 234.778 109.129 233.138 109.129 233.138Z" fill="#3887FE"/>
<path d="M114.438 234.879C114.438 234.954 111.456 235.015 107.778 235.015C104.099 235.015 101.118 234.954 101.118 234.879C101.118 234.804 104.099 234.744 107.778 234.744C111.456 234.744 114.438 234.804 114.438 234.879Z" fill="#263238"/>
<path d="M109.269 234.046C109.203 234.011 109.26 233.776 109.431 233.544C109.602 233.312 109.81 233.188 109.862 233.241C109.916 233.294 109.807 233.49 109.649 233.705C109.491 233.919 109.336 234.082 109.269 234.046Z" fill="#263238"/>
<path d="M109.778 234.339C109.709 234.313 109.744 234.049 109.901 233.772C110.057 233.494 110.264 233.328 110.322 233.373C110.382 233.42 110.282 233.646 110.137 233.905C109.991 234.163 109.848 234.367 109.778 234.339Z" fill="#263238"/>
<path d="M103.519 234.849C103.488 234.871 103.37 234.754 103.197 234.558C103.024 234.364 102.796 234.09 102.498 233.858C102.202 233.627 101.876 233.511 101.635 233.481C101.393 233.448 101.233 233.486 101.22 233.447C101.206 233.418 101.354 233.307 101.641 233.29C101.924 233.27 102.324 233.378 102.662 233.643C102.999 233.906 103.214 234.219 103.351 234.446C103.488 234.674 103.55 234.828 103.519 234.849Z" fill="#263238"/>
<path d="M109.294 233.21C109.333 233.272 109.196 233.427 108.969 233.51C108.741 233.594 108.536 233.565 108.526 233.492C108.514 233.417 108.675 233.33 108.874 233.256C109.074 233.183 109.254 233.145 109.294 233.21Z" fill="#263238"/>
<path d="M109.168 232.779C109.176 232.854 108.963 232.918 108.694 232.921C108.425 232.925 108.211 232.867 108.216 232.792C108.221 232.718 108.434 232.654 108.691 232.651C108.947 232.647 109.161 232.705 109.168 232.779Z" fill="#263238"/>
<path d="M138.497 101.112C138.289 100.897 137.777 100.998 137.777 100.998C137.777 100.998 137.867 100.39 137.772 100.097C137.678 99.8028 137.023 99.8594 137.023 99.8594C137.023 99.8594 136.982 99.5766 137.039 99.12C137.054 99.0056 136.99 98.9214 136.887 98.8584C136.577 98.6707 135.907 98.6796 135.907 98.6796C135.506 98.3925 137.13 96.1212 137.732 95.3942C138.328 94.6761 138.228 94.1004 137.69 94.1015C137.324 94.102 135.428 96.2855 134.849 97.0187C134.271 97.7514 132.719 99.7903 132.667 98.1632C132.614 96.5361 131.96 95.3053 131.551 95.0957C131.143 94.8862 130.702 95.3781 130.928 95.8299C131.111 96.195 131.226 96.8986 131.292 97.4305C131.346 97.8694 131.328 98.3145 131.232 98.7456C130.961 99.9645 130.669 100.756 130.532 101.094L130.492 101.072C130.492 101.072 119.142 111.955 118.324 112.732C117.588 113.431 102.839 111.905 99.8847 111.592C99.0772 111.501 97.8812 111.339 96.8448 111.385C95.563 111.441 95.3352 111.623 94.0524 111.64C90.1243 111.693 86.8509 112.075 84.4147 112.487C81.4694 112.985 79.0545 115.082 78.143 117.927C75.1608 127.233 68.4143 149.266 67.212 161.644C66.2651 163.425 65.2069 165.504 64.7769 166.674C63.9412 168.949 64.144 169.027 64.4259 169.079C65.1819 169.219 66.0472 165.134 66.3701 166.12C66.6936 167.106 64.7311 170.994 65.5272 171.107C66.5651 171.256 67.3925 166.962 67.4892 166.604C67.5833 166.256 68.1069 166.373 68.0024 166.692C67.8516 167.15 66.3883 172.002 67.4065 172.157C67.9707 172.244 68.0315 171.216 68.0315 171.216C68.0315 171.216 69.0663 166.576 69.5442 166.665C70.0299 166.756 69.5141 169.501 69.2743 170.414C69.0377 171.316 69.3711 171.795 69.8578 171.569C70.1895 171.414 70.9888 168.634 71.2041 167.725C71.4199 166.817 71.9664 164.314 72.7006 165.767C73.4349 167.22 74.5461 168.06 75.0053 168.078C75.4639 168.096 75.6563 167.464 75.2606 167.15C74.9408 166.896 74.5394 166.307 74.2554 165.852C74.0214 165.477 73.8498 165.065 73.7552 164.634C73.3896 162.97 73.3927 162.002 73.3927 162.002L73.308 161.468C74.4723 155.699 77.8289 138.776 82.6503 127.964L84.6357 132.05L85.4973 135.074L80.2063 148.146L102.781 147.849L99.4157 134.88L103.504 121.358H103.504C107.929 121.457 119.295 121.621 121.205 120.768C123.586 119.704 135.909 104.169 135.909 104.169H135.909C136.741 103.506 137.588 102.793 138.212 102.171C138.213 102.17 138.948 101.575 138.497 101.112Z" fill="#FFBE9D"/>
<path d="M79.2241 138.522C79.8778 136.286 83.2432 125.232 83.2432 125.232C83.2432 125.232 84.8948 134.244 84.4606 135.329C83.9603 136.58 83.0409 138.011 83.0409 138.011C79.2241 143.824 79.7249 146.729 79.7249 146.729L102.782 146.026C102.838 142.802 100.929 135.305 100.53 134.11C100.131 132.916 101.455 128.996 101.455 128.996C101.455 128.996 104.06 126.349 103.96 124.987C103.756 122.244 103.505 121.358 103.505 121.358L117.535 121.874L117.094 112.355L96.9265 110.336C96.2287 112.322 89.8779 111.349 89.8779 111.349C83.0217 111.575 82.6067 112.836 79.7473 115.049C76.8883 117.263 72.1797 136.275 72.1797 136.275L79.2241 138.522Z" fill="#3887FE"/>
<path d="M92.8601 136.273C92.8596 136.309 92.3958 136.34 91.6449 136.334C90.8945 136.33 89.8571 136.283 88.7173 136.169C87.5769 136.054 86.5515 135.893 85.8146 135.748C85.0783 135.603 84.6295 135.481 84.6363 135.446C84.6436 135.408 85.1038 135.463 85.8453 135.559C86.5868 135.655 87.6102 135.785 88.7443 135.899C89.8779 136.013 90.9065 136.089 91.6522 136.143C92.3984 136.197 92.8606 136.234 92.8601 136.273Z" fill="#263238"/>
<path d="M94.4384 134.312C94.4483 134.345 93.9725 134.526 93.1795 134.741C92.387 134.956 91.2737 135.194 90.0278 135.342C88.7813 135.489 87.6431 135.52 86.822 135.496C86.0004 135.473 85.496 135.408 85.4981 135.374C85.4996 135.334 86.0061 135.33 86.8215 135.305C87.6368 135.279 88.7611 135.22 89.9955 135.073C91.229 134.926 92.3366 134.721 93.1353 134.555C93.934 134.389 94.4275 134.273 94.4384 134.312Z" fill="#263238"/>
<path d="M102.194 125.565C102.23 125.573 102.171 126.022 102.037 126.741C101.902 127.461 101.692 128.449 101.426 129.532C101.16 130.616 100.89 131.59 100.676 132.29C100.463 132.99 100.308 133.416 100.272 133.406C100.235 133.395 100.325 132.952 100.491 132.24C100.688 131.429 100.914 130.497 101.163 129.468C101.418 128.441 101.649 127.511 101.85 126.7C102.031 125.992 102.157 125.557 102.194 125.565Z" fill="#263238"/>
<path d="M79.466 137.197C79.4462 137.269 77.8561 136.899 75.9144 136.369C73.9722 135.838 72.4143 135.351 72.434 135.278C72.4538 135.206 74.0434 135.577 75.9856 136.107C77.9273 136.637 79.4858 137.125 79.466 137.197Z" fill="#263238"/>
<path d="M103.759 121.236C103.759 121.248 103.546 121.27 103.162 121.233C102.781 121.194 102.223 121.105 101.577 120.854C100.93 120.612 100.195 120.207 99.5078 119.595C98.8209 118.985 98.2068 118.145 97.8152 117.158C97.4174 116.171 97.2869 115.142 97.3493 114.227C97.4096 113.312 97.652 112.486 98.0612 111.907C98.4663 111.321 99.0034 111.037 99.3773 110.939C99.5666 110.888 99.7195 110.876 99.8214 110.879C99.9238 110.881 99.9764 110.893 99.9764 110.901C99.9774 110.927 99.7606 110.915 99.409 111.039C99.0638 111.163 98.5781 111.454 98.2203 112.014C97.5126 113.127 97.315 115.159 98.0674 117.058C98.4444 118.007 99.0242 118.813 99.6763 119.41C100.328 120.01 101.029 120.419 101.649 120.677C102.898 121.195 103.769 121.178 103.759 121.236Z" fill="#263238"/>
<path d="M115.88 121.684C115.806 121.684 115.749 119.538 115.754 116.892C115.759 114.245 115.824 112.1 115.899 112.1C115.974 112.101 116.03 114.246 116.025 116.893C116.02 119.539 115.955 121.684 115.88 121.684Z" fill="#263238"/>
<path d="M96.8033 110.916C96.86 109.756 96.9817 108.445 96.9817 108.445C96.9817 108.445 99.851 108.128 100.025 105.164C100.199 102.199 100.025 95.364 100.025 95.364L94.7987 92.7027L89.0496 97.2397L89.9206 112.06L95.2105 112.397C96.0446 112.45 96.7607 111.785 96.8033 110.916Z" fill="#FFBE9D"/>
<path d="M97.32 102.819C97.3283 102.821 97.3289 102.875 97.2748 102.947C97.2217 103.016 97.1058 103.095 96.9446 103.092C96.6113 103.076 96.2909 102.708 96.1729 102.259C96.1136 102.03 96.1141 101.799 96.1589 101.6C96.1942 101.404 96.3076 101.207 96.4709 101.153C96.5489 101.124 96.63 101.127 96.6919 101.158C96.7527 101.189 96.7901 101.235 96.8094 101.278C96.8484 101.366 96.8182 101.42 96.8104 101.416C96.7985 101.415 96.8016 101.366 96.7579 101.311C96.7168 101.254 96.6191 101.203 96.5109 101.259C96.4007 101.309 96.3253 101.45 96.2972 101.63C96.2644 101.809 96.2686 102.014 96.3211 102.218C96.4251 102.62 96.7043 102.95 96.9524 102.979C97.0751 102.995 97.177 102.948 97.2321 102.903C97.2893 102.856 97.3091 102.814 97.32 102.819Z" fill="#FFBE9D"/>
<path d="M101.807 93.764C101.408 92.3995 99.957 91.7214 98.6352 91.347C96.6243 90.7771 94.4461 90.5249 92.4815 91.2482C90.5169 91.9715 88.154 93.244 88.1546 95.4145C86.995 95.3188 86.3325 96.3349 85.8723 97.5938C85.6003 98.3374 85.4214 99.1652 85.3793 99.9853L85.3601 99.979C85.2108 102.82 84.4194 106.734 82.5776 108.835C81.5604 109.995 80.0961 110.797 79.5033 112.242C78.988 113.498 79.2548 114.982 78.7675 116.249C78.3375 117.368 77.3853 118.163 76.7026 119.136C75.2159 121.257 75.1145 124.253 76.207 126.619C77.2995 128.986 79.4643 130.717 81.8672 131.511C84.2702 132.304 86.8878 132.217 89.3334 131.581C91.1388 131.11 92.8954 130.333 94.3343 129.103C95.7731 127.873 96.8771 126.164 97.2062 124.255C97.5723 122.131 96.9779 119.974 96.5406 117.864C95.1574 111.19 95.5526 110.843 97.2983 104.652C97.3378 104.543 97.3622 104.429 97.3924 104.317C97.4153 104.235 97.4376 104.156 97.461 104.072L97.4574 104.071C97.5063 103.829 97.538 103.582 97.539 103.33C97.0336 103.53 96.4231 103.397 96.0352 103.005C95.6478 102.613 95.5032 101.981 95.6795 101.449C95.8823 100.837 96.4439 100.428 97.0206 100.185C97.5973 99.9421 98.2176 99.822 98.7839 99.5532C99.9846 98.9817 100.817 97.7961 101.383 96.5538C101.781 95.6828 102.077 94.6854 101.807 93.764Z" fill="#263238"/>
<path d="M97.5254 102.946C97.5436 102.938 97.6445 103.131 97.7989 103.459C97.9534 103.788 98.1603 104.251 98.3907 104.783L98.4339 104.884L98.3236 104.894C98.1505 104.909 97.9752 104.924 97.7943 104.939C97.4313 104.963 97.1287 105.006 96.7771 105.003C96.7215 104.993 96.6596 104.942 96.643 104.885C96.6243 104.829 96.6295 104.781 96.6352 104.74C96.6503 104.659 96.6685 104.598 96.6841 104.529L96.7761 104.161C96.891 103.712 96.9732 103.436 96.995 103.441C97.0169 103.446 96.9742 103.731 96.8879 104.186L96.8156 104.558C96.7891 104.683 96.7433 104.871 96.8109 104.857C97.0699 104.846 97.4386 104.803 97.7807 104.777C97.9617 104.763 98.1369 104.749 98.3101 104.735L98.2435 104.845C98.021 104.31 97.8322 103.838 97.7033 103.499C97.5759 103.161 97.5072 102.953 97.5254 102.946Z" fill="#3887FE"/>
<path d="M79.7247 146.729L102.782 146.026L112.81 185.203L110.963 230.14H98.7589L100.271 186.159L91.352 158.887L92.7263 231.883L80.4054 232.065L79.1075 163.452C79.0534 161.545 78.4258 157.243 78.6593 155.351L79.7247 146.729Z" fill="#263238"/>
<path d="M94.4231 159.441C94.4184 159.477 93.9858 159.456 93.2921 159.374C92.5984 159.292 91.6442 159.146 90.599 158.936C89.5538 158.726 88.6173 158.492 87.946 158.298C87.2747 158.105 86.8675 157.959 86.8769 157.923C86.8977 157.847 88.5716 158.253 90.6526 158.671C92.7321 159.091 94.433 159.364 94.4231 159.441Z" fill="#455A64"/>
<path d="M110.852 227.676C110.852 227.751 108.089 227.811 104.682 227.811C101.273 227.811 98.5107 227.751 98.5107 227.676C98.5107 227.601 101.273 227.54 104.682 227.54C108.089 227.541 110.852 227.601 110.852 227.676Z" fill="#455A64"/>
<path d="M92.6161 229.987C92.6161 230.062 89.936 230.122 86.6298 230.122C83.3232 230.122 80.6431 230.062 80.6431 229.987C80.6431 229.912 83.3232 229.851 86.6298 229.851C89.936 229.851 92.6161 229.912 92.6161 229.987Z" fill="#455A64"/>
<path d="M91.029 229.799C90.9541 229.8 90.6301 213.85 90.3051 194.178C89.9801 174.498 89.7773 158.549 89.8522 158.548C89.9271 158.547 90.2511 174.494 90.5761 194.173C90.9011 213.846 91.1039 229.798 91.029 229.799Z" fill="#455A64"/>
<path d="M109.213 227.676C109.208 227.676 109.207 227.603 109.207 227.464C109.21 227.31 109.214 227.104 109.219 226.841C109.235 226.278 109.258 225.475 109.288 224.446C109.361 222.353 109.465 219.349 109.594 215.642C109.878 208.197 110.271 197.935 110.704 186.6C110.708 186.496 110.713 186.391 110.716 186.295L110.72 186.333C107.988 175.391 105.518 165.5 103.727 158.329C102.848 154.758 102.136 151.863 101.64 149.847C101.402 148.855 101.216 148.08 101.086 147.538C101.028 147.284 100.983 147.085 100.949 146.937C100.919 146.8 100.906 146.731 100.911 146.73C100.915 146.729 100.937 146.797 100.976 146.93C101.016 147.077 101.07 147.274 101.139 147.526C101.281 148.065 101.483 148.836 101.742 149.822C102.258 151.833 102.998 154.72 103.911 158.284C105.722 165.449 108.22 175.333 110.982 186.267L110.987 186.286L110.987 186.306C110.983 186.402 110.978 186.507 110.975 186.612C110.51 197.945 110.09 208.205 109.784 215.65C109.62 219.355 109.486 222.358 109.393 224.451C109.341 225.478 109.301 226.281 109.273 226.843C109.257 227.106 109.244 227.312 109.235 227.465C109.225 227.605 109.218 227.676 109.213 227.676Z" fill="#455A64"/>
<path d="M105.235 185.38C105.248 185.454 104.041 185.723 102.539 185.98C101.418 186.173 100.45 186.305 100.027 186.329L100.027 186.224C100.167 186.262 100.242 186.292 100.239 186.311C100.237 186.33 100.155 186.336 100.01 186.329L99.6948 186.316L100.009 186.224C100.416 186.105 101.373 185.907 102.494 185.714C103.995 185.456 105.222 185.306 105.235 185.38Z" fill="#455A64"/>
<path d="M105.002 186.875C104.992 186.951 103.908 186.867 102.575 186.765C101.241 186.66 100.158 186.574 100.159 186.498C100.161 186.424 101.253 186.389 102.596 186.494C103.938 186.598 105.012 186.803 105.002 186.875Z" fill="#455A64"/>
<path opacity="0.2" d="M79.6223 147.557C80.1798 148.342 80.9748 148.617 81.8989 148.768C82.8224 148.919 83.7652 148.819 84.6949 148.715C90.6463 148.055 96.9529 147.446 102.782 146.026C95.2369 146.448 87.2694 146.306 79.7247 146.729C79.7247 146.729 79.6603 147.248 79.6452 147.372" fill="#404145"/>
<g opacity="0.2">
<path d="M87.3994 158.192L91.6499 174.693L91.3525 158.887L87.3994 158.192Z" fill="#404145"/>
</g>
</svg>
